<svg width="51" height="43" viewBox="0 0 51 43" fill="none" xmlns="http://www.w3.org/2000/svg">
<path d="M6.08651 28.4255C6.21336 25.5616 7.4437 22.7512 9.76375 20.6734L15.7183 15.3418L25.7102 6.39321C30.3438 2.25691 37.6039 2.59979 41.8535 7.15002C43.9746 9.41144 44.9653 12.3369 44.8415 15.2118C44.7146 18.0757 43.4732 20.8889 41.1808 22.9595L32.3695 30.8257L25.2133 37.2276C20.5827 41.3749 13.3241 41.0375 9.07294 36.4818C6.96544 34.2051 5.95815 31.2839 6.08651 28.4255Z" fill="#3458FF"/>
<path d="M16.349 14.9274L25.7484 6.39048C30.379 2.25737 37.6344 2.59999 41.8813 7.1467C44.001 9.40638 44.9911 12.3296 44.8673 15.2023C44.7405 18.0639 43.5 20.875 41.209 22.944L33.3152 30.0799C31.1493 29.0881 28.2308 27.2123 25.0952 24.4423C21.5728 21.321 18.0035 17.537 16.349 14.9274Z" fill="#F2F2F2"/>
<path d="M16.0399 15.0864L16.7594 14.4421C21.4882 20.6066 26.7407 26.5939 33.7898 29.5294L33.0093 30.2306C25.9876 27.1591 20.7496 21.2032 16.0399 15.0864Z" fill="#333333"/>
</svg>
