<svg width="57" height="69" viewBox="0 0 57 69" fill="none" xmlns="http://www.w3.org/2000/svg">
<path d="M12.7305 1V35.373" stroke="#333333" stroke-width="1.8262" stroke-miterlimit="10" stroke-linecap="round" stroke-linejoin="round"/>
<path d="M22.8962 7.88257L1.62891 29.3199" stroke="#333333" stroke-width="1.8262" stroke-miterlimit="10" stroke-linecap="round" stroke-linejoin="round"/>
<path d="M30.204 18.1837H-4.74609" stroke="#333333" stroke-width="1.8262" stroke-miterlimit="10" stroke-linecap="round" stroke-linejoin="round"/>
<path d="M23.6994 28.6655L1.62891 8.01794" stroke="#333333" stroke-width="1.8262" stroke-miterlimit="10" stroke-linecap="round" stroke-linejoin="round"/>
<path d="M56.2315 51.483C55.3423 54.2021 53.3974 56.5941 50.592 58.0101L43.392 61.6431L31.3098 67.7415C25.7104 70.5565 18.7628 68.4128 15.8599 62.9801C14.4084 60.2779 14.2306 57.2203 15.1198 54.4898C16.009 51.7707 17.9654 49.3787 20.7421 47.9627L31.3901 42.6091L40.0416 38.2482C45.6409 35.4219 52.5885 37.56 55.4914 42.9983C56.9257 45.7118 57.1208 48.7694 56.2315 51.483Z" fill="#B3FFD1"/>
<path d="M42.7189 61.8857L31.3137 67.7415C25.7143 70.5565 18.7667 68.4128 15.8638 62.9801C14.4123 60.2779 14.2345 57.2203 15.1237 54.4898C16.0129 51.7707 17.9693 49.3787 20.746 47.9627L30.3154 43.0773C32.1513 44.5722 34.4805 47.1052 36.7811 50.5521C39.3628 54.4334 41.8125 58.9634 42.7189 61.8857Z" fill="#F2F2F2"/>
<path d="M43.0233 61.8293L42.1513 62.2693C39.2082 55.1498 35.7086 48.0699 29.6445 43.4778L30.5911 42.9983C36.5921 47.7145 40.086 54.7606 43.0233 61.8293Z" fill="#333333"/>
</svg>
