<svg width="235" height="274" viewBox="0 0 235 274" fill="none" xmlns="http://www.w3.org/2000/svg">
<path d="M40.7658 129.25C40.7658 129.25 35.9498 50.6614 51.6506 35.2882C67.3514 19.915 89.624 36.0888 89.624 36.0888" stroke="#333333" stroke-width="4.7707" stroke-miterlimit="10"/>
<path d="M83.7805 36.2464L87.3717 28.4223L93.5492 32.2552L89.1724 40.1724L83.7805 36.2464Z" fill="#333333"/>
<path d="M106.247 40.3667C105.694 45.3423 101.168 48.8799 96.1396 48.2627C91.1113 47.6455 87.4794 43.1104 88.0329 38.1348C88.5864 33.1591 93.1124 29.6215 98.1407 30.2387C103.169 30.856 106.801 35.391 106.247 40.3667Z" fill="#333333"/>
<path d="M95.1007 121.53C95.1007 121.53 75.3543 45.1861 55.6276 34.9127C35.8947 24.6408 19.6658 46.311 19.6658 46.311" stroke="#333333" stroke-width="4.7707" stroke-miterlimit="10"/>
<path d="M25.6668 45.0261L19.801 38.5567L15.0929 43.9488L21.734 50.2887L25.6668 45.0261Z" fill="#333333"/>
<path d="M22.8843 50.9398C22.3783 45.9354 17.8941 42.2309 12.8686 42.6656C7.84309 43.1002 4.17932 47.5094 4.68533 52.5138C5.19135 57.5181 9.67555 61.2226 14.7011 60.788C19.7266 60.3533 23.3903 55.9441 22.8843 50.9398Z" fill="#333333"/>
<path d="M69.5244 181.866C65.2274 181.341 61.2394 179.707 57.5881 176.971C39.7144 163.56 37.0351 127.425 36.9269 125.897L45.9761 125.397C46.6222 134.694 50.948 160.8 63.0096 169.842C66.9738 172.809 71.4488 173.718 76.7016 172.608C82.4116 171.399 86.5349 168.526 89.3011 163.824C98.3342 148.467 89.7057 120.158 89.6207 119.874L98.2884 117.331C98.6973 118.644 108.15 149.72 97.1594 168.417C93.1211 175.291 86.9091 179.657 78.7171 181.387C75.5135 182.069 72.4467 182.227 69.5244 181.866Z" fill="#3458FF"/>
<path d="M202.912 228.876C187.943 222.407 171.662 222.891 155.917 223.347C153.749 223.415 151.567 223.48 149.408 223.533C145.479 223.603 141.309 223.605 137.068 223.352C135.246 223.252 133.423 223.101 131.585 222.894L131.488 222.874C132.035 218.743 132.749 214.626 133.689 210.568C134.284 207.914 134.98 205.293 135.76 202.689C136.135 201.348 136.556 200.029 137.001 198.703L128.391 195.815C127.856 197.432 127.362 199.031 126.89 200.663C126.138 203.247 125.45 205.847 124.843 208.458C123.878 212.711 123.103 217.013 122.523 221.355C122.433 221.313 122.341 221.311 122.256 221.288C121.902 221.191 121.553 221.112 121.2 221.021C114.525 219.305 108.22 216.49 103.046 211.962C93.4242 203.545 88.8117 190.04 85.269 178.509L85.2656 178.497C85.0132 177.632 84.7459 176.784 84.4958 175.95L75.8177 178.45C76.0617 179.285 76.3324 180.146 76.5776 181.032L76.581 181.044C80.4888 193.659 85.571 208.578 97.0883 218.664C102.978 223.812 109.875 227.112 117.102 229.192C118.478 229.597 119.855 229.936 121.25 230.244C121.386 230.287 121.505 230.314 121.638 230.345C121.283 235.715 121.244 241.115 121.495 246.543C121.971 255.934 123.632 267.55 128.188 278.649L136.991 276.364C132.578 266.113 130.987 255.104 130.552 246.242C130.318 241.395 130.351 236.59 130.64 231.809L130.853 231.845C131.348 231.886 131.837 231.947 132.323 231.977C138.343 232.556 144.26 232.621 149.706 232.496C151.898 232.467 154.102 232.409 156.314 232.336C171.046 231.909 186.277 231.463 199.383 237.114C207.88 240.779 221.701 267.052 224.793 275.099L234.923 275.162C229.796 265.597 221 237.25 202.912 228.876Z" fill="#3458FF"/>
<path d="M149.908 205.537C160.198 197.312 161.675 182.358 153.206 172.136C144.736 161.914 129.529 160.296 119.238 168.521C108.948 176.746 107.471 191.699 115.94 201.921C124.409 212.143 139.617 213.761 149.908 205.537Z" fill="#333333"/>
<path d="M144.44 199.708C151.493 194.424 152.798 184.463 147.355 177.458C141.912 170.454 131.782 169.058 124.728 174.342C117.675 179.625 116.37 189.586 121.813 196.591C127.256 203.596 137.386 204.991 144.44 199.708Z" stroke="#F2F2F2" stroke-width="2.3853" stroke-miterlimit="10"/>
<path d="M136.785 223.451L132.035 232.074C131.535 232.042 131.054 231.985 130.557 231.938C130.64 227.658 130.982 224.792 131.306 222.997C133.147 223.208 134.969 223.352 136.785 223.451Z" fill="#333333"/>
<path d="M121.923 221.481L120.916 230.433C119.522 230.126 118.144 229.783 116.77 229.386L120.874 221.214C121.226 221.305 121.571 221.391 121.923 221.481Z" fill="#333333"/>
</svg>
