<svg width="229" height="248" viewBox="0 0 229 248" fill="none" xmlns="http://www.w3.org/2000/svg">
<path d="M14.1445 181.636L96.1385 20.8394L228.125 54.2251L138.415 247.714L14.1445 181.636Z" fill="#333333"/>
<path d="M0.75 190.566L95.79 0L226.233 53.5933L136.787 246.913L0.75 190.566Z" fill="#3458FF"/>
<path d="M16.2383 177.958L100.332 7.32812L219.359 54.5692L138.782 228.713L16.2383 177.958Z" fill="#F2F2F2"/>
<path d="M129 22.9322L186.961 47.7375L187.65 44.725C188.361 41.6222 187.386 38.384 185.074 36.1613L181.746 32.9627L182.928 25.2396C182.435 21.9055 180.088 19.1187 176.847 18.0186L157.674 11.5253C155.241 10.7017 152.568 10.9217 150.307 12.1346L145.058 17.6745L139.539 17.2062C136.808 16.9749 134.117 17.934 132.173 19.8351L129 22.9322Z" fill="#B3FFD1"/>
<path d="M145.062 17.6744L181.745 32.9626" stroke="#333333" stroke-width="1.5913" stroke-miterlimit="10" stroke-linecap="round" stroke-linejoin="round"/>
<path d="M153.02 57.4523L142.961 53.0243L123.078 96.6973L133.137 101.125L153.02 57.4523Z" fill="#3458FF"/>
<path d="M158.009 91.788L162.512 81.897L118.098 62.3453L113.595 72.2364L158.009 91.788Z" fill="#3458FF"/>
<path d="M69.4726 95.3396C69.3406 95.1478 69.312 94.8939 69.4095 94.6683C69.5644 94.3129 69.9889 94.1493 70.3504 94.3072L163.015 133.961C163.377 134.119 163.537 134.53 163.382 134.886C163.228 135.241 162.803 135.405 162.442 135.247L69.7767 95.5935C69.6504 95.537 69.5472 95.4468 69.4726 95.3396Z" fill="#333333"/>
<path d="M65.6015 104.089C65.4695 103.898 65.4409 103.644 65.5384 103.418C65.6933 103.063 66.1178 102.899 66.4793 103.057L159.144 142.71C159.506 142.868 159.666 143.28 159.511 143.636C159.356 143.991 158.932 144.155 158.57 143.997L65.9056 104.343C65.7793 104.287 65.6761 104.197 65.6015 104.089Z" fill="#333333"/>
<path d="M61.7265 112.839C61.5945 112.647 61.5659 112.399 61.6634 112.168C61.8183 111.813 62.2428 111.649 62.6043 111.807L155.269 151.46C155.631 151.618 155.797 152.03 155.636 152.385C155.481 152.741 155.057 152.904 154.695 152.746L62.0306 113.093C61.9043 113.037 61.8011 112.946 61.7265 112.839Z" fill="#333333"/>
<path d="M57.8593 121.589C57.7274 121.397 57.6987 121.143 57.7962 120.918C57.9511 120.562 58.3756 120.399 58.7371 120.557L151.402 160.21C151.763 160.368 151.93 160.78 151.769 161.135C151.614 161.491 151.19 161.654 150.828 161.496L58.1634 121.843C58.0372 121.786 57.9282 121.696 57.8593 121.589Z" fill="#333333"/>
<path d="M53.9882 130.339C53.8563 130.147 53.8276 129.893 53.9251 129.668C54.08 129.312 54.5046 129.149 54.866 129.306L147.531 168.96C147.892 169.118 148.059 169.53 147.898 169.885C147.743 170.24 147.319 170.404 146.957 170.246L54.2923 130.593C54.1661 130.536 54.0571 130.446 53.9882 130.339Z" fill="#333333"/>
<path d="M50.1171 139.089C49.9852 138.897 49.9565 138.643 50.054 138.417C50.2089 138.062 50.6335 137.898 50.9949 138.056L143.66 177.71C144.021 177.862 144.188 178.279 144.027 178.635C143.872 178.99 143.447 179.154 143.086 178.996L50.4212 139.342C50.295 139.28 50.1917 139.196 50.1171 139.089Z" fill="#333333"/>
<path d="M46.2421 147.833C46.1102 147.641 46.0815 147.387 46.179 147.161C46.3339 146.806 46.7585 146.642 47.1199 146.8L139.779 186.454C140.14 186.612 140.307 187.024 140.146 187.379C139.991 187.734 139.567 187.898 139.205 187.74L46.5404 148.092C46.42 148.03 46.3167 147.946 46.2421 147.833Z" fill="#333333"/>
<path d="M42.371 156.583C42.2391 156.391 42.2104 156.137 42.3079 155.911C42.4628 155.556 42.8874 155.392 43.2488 155.55L135.914 195.204C136.275 195.362 136.441 195.773 136.281 196.129C136.126 196.484 135.701 196.648 135.34 196.49L42.6808 156.837C42.5489 156.78 42.4456 156.69 42.371 156.583Z" fill="#333333"/>
<path d="M194.392 175.532C194.392 175.532 194.374 175.537 194.351 175.56L106.265 245.079L90.3444 238.862L89.2773 223.986L172.103 151.815C187.364 160.373 194.392 175.532 194.392 175.532Z" fill="#B3FFD1"/>
<path d="M92.225 229.418C92.1561 229.39 92.093 229.345 92.0414 229.283C91.8578 229.074 91.8808 228.753 92.0988 228.572L176.887 157.101C177.099 156.921 177.426 156.943 177.61 157.158C177.793 157.366 177.77 157.688 177.552 157.868L92.7585 229.339C92.6094 229.469 92.3971 229.492 92.225 229.418Z" fill="#333333"/>
<path d="M97.7088 234.247C97.6399 234.219 97.5711 234.168 97.5194 234.106C97.3359 233.892 97.3645 233.576 97.5826 233.396L180.368 165.315C180.586 165.135 180.908 165.163 181.091 165.377C181.275 165.592 181.246 165.907 181.028 166.088L98.2423 234.168C98.0874 234.298 97.8809 234.321 97.7088 234.247Z" fill="#333333"/>
<path d="M104.713 241.976C104.644 241.948 104.581 241.903 104.53 241.841C104.346 241.626 104.369 241.31 104.587 241.13L187.688 171.188C187.906 171.007 188.228 171.03 188.411 171.244C188.595 171.459 188.572 171.774 188.354 171.955L105.253 241.897C105.098 242.027 104.885 242.049 104.713 241.976Z" fill="#333333"/>
<path d="M194.391 175.532C194.391 175.532 194.373 175.537 194.35 175.56C193.765 175.808 186.674 175.492 179.744 167.301C173.559 159.984 171.615 156.103 171.936 152.966C172.005 152.233 172.096 151.821 172.096 151.821C193.828 154.326 194.391 175.532 194.391 175.532Z" fill="#B1B1B1"/>
<path d="M111.834 237.627L106.263 245.079L95.5064 242.89L89.7005 239.9L88.3867 234.14L89.2817 223.991L98.6503 222.186L96.7169 229.588L106.086 227.788L103.36 236.543L111.834 237.627Z" fill="#B1B1B1"/>
<path d="M95.5083 242.89L87.7461 241.316L88.3886 234.14C88.9451 234.259 89.4959 234.405 90.0409 234.591L90.0524 234.597C92.3529 235.432 94.3609 237.181 95.21 239.449C95.3764 239.917 95.5026 240.408 95.5542 240.899C95.6518 241.559 95.6345 242.241 95.5083 242.89Z" fill="#333333"/>
<path d="M189.442 168.88C188.53 169.727 185.507 168.04 182.69 165.112C179.873 162.184 178.33 159.121 179.236 158.275C180.148 157.428 183.172 159.115 185.989 162.043C188.806 164.971 190.355 168.029 189.442 168.88Z" fill="#333333"/>
</svg>
