<svg width="186" height="279" viewBox="0 0 186 279" fill="none" xmlns="http://www.w3.org/2000/svg">
<path d="M54.664 57.311C53.5715 63.09 53.2552 69.0876 53.0769 74.7229C52.8699 81.3587 52.8239 88.0061 52.4214 94.6361C52.1741 98.8741 53.4679 103.049 56.0498 106.384C58.9422 110.122 63.2147 112.514 67.907 113.054L75.3076 114.032L75.2903 114.193L74.3185 121.933L73.962 124.796L72.812 131.093L70.4428 165.773L114.088 131.91L116.652 103.687C127.561 103.52 135.904 94.0956 132.075 84.4639C129.562 78.1558 123.972 78.5468 119.752 79.9556C122.012 75.9477 123.512 71.4452 124.07 66.5919C126.284 47.2192 112.5 30.5 93.0013 27.5014C82.875 26.3456 72.4439 29.3588 64.9743 36.4144C59.0572 42.0094 56.1476 49.4561 54.664 57.311Z" fill="white"/>
<path fill-rule="evenodd" clip-rule="evenodd" d="M55.8432 57.5337C57.3016 49.8118 60.1354 42.6415 65.7988 37.2863C72.9793 30.5041 83.0373 27.5783 92.842 28.691C111.746 31.6097 125.011 47.7845 122.878 66.4549C122.339 71.1475 120.888 75.4964 118.706 79.3663L117.176 82.0804L120.132 81.0939C122.155 80.4185 124.359 80.0427 126.285 80.4854C128.119 80.9071 129.841 82.0999 130.96 84.908C132.695 89.2722 131.688 93.5781 128.967 96.8587C126.229 100.158 121.753 102.409 116.634 102.487L115.555 102.504L112.94 131.281L71.8225 163.184L74.0046 131.242L75.1486 124.979L75.5092 122.082L76.4823 114.332L76.6255 112.996L68.0542 111.863L68.0443 111.862C63.6705 111.358 59.6918 109.129 56.9989 105.65C54.5952 102.545 53.3892 98.6562 53.6193 94.7075C53.8978 90.1188 54.0068 85.5072 54.1152 80.923C54.1639 78.8619 54.2125 76.8063 54.2763 74.7608C54.4543 69.1344 54.769 63.2154 55.8432 57.5337ZM53.0769 74.7229C53.0125 76.7881 52.9637 78.8545 52.9148 80.9211C52.8068 85.4947 52.6986 90.0695 52.4214 94.6361C52.1741 98.8741 53.4679 103.049 56.0498 106.384C58.9422 110.122 63.2147 112.514 67.907 113.054L75.3076 114.032L75.2903 114.193L74.3185 121.933L73.962 124.796L72.812 131.093L70.4428 165.773L114.088 131.91L116.652 103.687C127.561 103.52 135.904 94.0956 132.075 84.4639C129.872 78.9342 125.305 78.5523 121.368 79.4912C120.814 79.6234 120.273 79.7818 119.752 79.9556C120.028 79.4651 120.293 78.9672 120.547 78.4621C122.365 74.8403 123.581 70.8512 124.07 66.5919C126.284 47.2192 112.5 30.5 93.0013 27.5014C82.875 26.3456 72.4439 29.3588 64.9743 36.4144C59.0572 42.0094 56.1476 49.4561 54.664 57.311C53.5714 63.09 53.2552 69.0876 53.0769 74.7229Z" fill="#333333"/>
<path d="M94.0782 63.5677C95.3663 64.3555 96.2576 65.494 96.0736 66.5291C95.9988 66.9431 95.7631 67.3284 95.3836 67.6389C95.0673 67.8976 94.6418 68.1104 94.1242 68.1794C93.4054 68.2772 92.6062 68.1046 91.8586 67.9091C90.4153 67.5354 89.0065 67.0753 87.6552 66.5406C87.0284 66.2933 86.4016 66.023 85.9301 65.655C84.9813 64.9247 84.803 63.9242 85.0963 63.0904C85.3263 62.4349 85.9128 61.7908 86.9421 61.6701C88.9145 61.4286 92.5429 62.6304 94.0782 63.5677Z" fill="#333333"/>
<path d="M58.3692 58.6912C56.8972 59.0305 55.6953 59.8298 55.5401 60.8706C55.4768 61.2846 55.5861 61.7274 55.8448 62.1414C56.0634 62.4864 56.3969 62.8199 56.8684 63.0499C57.5182 63.372 58.3347 63.4582 59.1053 63.51C60.5946 63.6077 62.0782 63.6192 63.5273 63.533C64.2 63.4927 64.8786 63.4352 65.4479 63.2339C66.5749 62.8372 67.0637 61.9459 67.0464 61.0603C67.0349 60.3645 66.6784 59.571 65.7411 59.1282C63.947 58.2887 60.1231 58.2829 58.3692 58.6912Z" fill="#333333"/>
<path fill-rule="evenodd" clip-rule="evenodd" d="M72.5887 64.6073C71.9784 64.427 71.3375 64.7756 71.1572 65.3859C70.4811 67.6738 70.0317 69.9198 69.6053 72.1646C69.5525 72.4425 69.5001 72.7203 69.4477 72.9981C69.0742 74.9771 68.6998 76.9616 68.1826 79.0393C68.173 79.0779 68.1654 79.1169 68.1599 79.1562L68.1577 79.1718C67.9892 80.3628 67.8073 81.6487 68.521 83.2812C68.5346 83.3121 68.5495 83.3425 68.5657 83.3722C69.1355 84.4149 70.056 85.046 70.9837 85.4415C71.9029 85.8334 72.909 86.0284 73.7729 86.1561C74.4024 86.2491 74.9882 85.8142 75.0812 85.1846C75.1742 84.5551 74.7393 83.9693 74.1097 83.8762C73.3003 83.7566 72.5295 83.5952 71.8875 83.3215C71.2738 83.0599 70.8557 82.7292 70.6112 82.3081C70.2055 81.3512 70.2774 80.6465 70.4335 79.5376C70.9603 77.4121 71.3439 75.3785 71.713 73.4219C71.7653 73.1446 71.8173 72.8689 71.8694 72.5946C72.2948 70.3553 72.7265 68.2075 73.3673 66.0389C73.5476 65.4286 73.1991 64.7877 72.5887 64.6073Z" fill="#333333"/>
<path d="M75.2824 90.4906C76.8925 90.1628 78.3991 89.3117 79.4974 88.0869C79.7331 87.8224 79.7101 87.4256 79.4456 87.1899C79.1869 86.9541 78.7843 86.9771 78.5486 87.2416C77.3525 88.5814 75.5642 89.3807 73.7758 89.375C71.9818 89.375 70.1992 88.5699 69.0088 87.2301C68.7788 86.9714 68.3763 86.9426 68.1118 87.1784C67.8473 87.4084 67.8243 87.8109 68.06 88.0754C69.4861 89.6855 71.6252 90.6458 73.7758 90.6458C74.2761 90.6401 74.7821 90.5883 75.2824 90.4906Z" fill="#333333"/>
<path d="M74.3182 121.933C94.2948 122.238 100.258 114.492 100.258 114.492C88.4064 115.809 78.4987 114.659 75.29 114.188L74.3182 121.933Z" fill="#333333"/>
<path d="M116.533 97.7819C116.556 97.7819 116.585 97.7876 116.608 97.7819C116.889 97.7761 117.108 97.5404 117.102 97.2586C116.987 93.4864 118.068 89.6682 120.138 86.5113C121.369 84.6367 122.789 83.2394 124.359 82.3653C126.176 81.3533 128.217 81.0543 129.971 81.5775C130.247 81.6465 130.523 81.5028 130.604 81.2325C130.684 80.9622 130.529 80.6805 130.259 80.6C128.258 80.0134 125.923 80.3297 123.864 81.4798C122.151 82.4343 120.61 83.9409 119.287 85.9593C117.102 89.2887 115.969 93.3196 116.09 97.2988C116.09 97.5461 116.285 97.7531 116.533 97.7819Z" fill="#333333"/>
<path d="M85.6951 76.563C85.4594 78.5986 86.9257 80.4387 88.9613 80.6744C90.9969 80.9102 92.837 79.4439 93.0728 77.4083C93.3085 75.3726 91.8422 73.5325 89.8066 73.2968C87.7652 73.0668 85.9252 74.5274 85.6951 76.563Z" fill="#333333"/>
<path d="M58.2314 73.4234C58.0013 75.459 59.4619 77.2991 61.4975 77.5348C63.5331 77.7706 65.3732 76.3043 65.609 74.2687C65.839 72.2331 64.3784 70.393 62.3428 70.1572C60.3015 69.9214 58.4614 71.3878 58.2314 73.4234Z" fill="#333333"/>
<path d="M132.134 84.6249C131.064 82.4743 129.184 80.0362 126.855 79.4612C124.526 78.8919 121.956 79.3922 120.012 80.801C118.281 82.0545 117.114 83.9176 115.987 85.7347C113.98 85.752 113.221 83.5439 112.991 81.5485C112.761 79.5532 112.979 77.368 111.852 75.7062C110.823 74.1766 108.937 73.5153 107.471 72.3998C104.676 70.2722 103.543 66.6092 103.054 63.1303C101.571 52.5613 104.538 41.9002 108.063 31.8257C116.654 33.9763 125.262 36.5237 133.152 40.5431C134.1 41.0262 135.072 41.5437 135.774 42.3487C136.602 43.3033 136.97 44.5626 137.234 45.7932C137.896 48.8926 138.034 52.084 137.999 55.2524C137.896 64.7806 135.268 75.643 132.134 84.6249Z" fill="#333333"/>
<path d="M134.537 46.5984C135.785 42.4984 135.083 37.8579 132.685 34.3042C130.287 30.7563 126.239 28.3699 121.973 27.9961C120.69 27.8869 119.333 27.9214 118.229 27.2659C116.659 26.3286 116.165 24.3505 115.538 22.6311C112.646 14.6612 103.773 9.34217 95.3831 10.5325C94.3596 10.6762 93.29 10.9063 92.3125 10.567C91.2947 10.2162 90.5816 9.33067 89.8686 8.53138C85.7686 3.92539 79.9551 0.883483 73.831 0.141694C70.0243 -0.31833 65.7633 0.262451 63.1412 3.06285C60.3696 6.02425 60.2258 10.5095 60.2718 14.5634C57.6957 15.104 54.993 15.702 53.0092 17.4271C50.7263 19.4109 49.7832 22.5794 49.7487 25.604C49.6625 32.5906 54.1937 39.4162 60.6686 42.0441C67.1434 44.672 75.1478 42.9412 79.9608 37.8694C82.3184 44.7065 88.684 49.991 95.8431 51.0491C102.997 52.1071 110.621 48.887 114.854 43.0159C119.08 45.1148 123.56 47.1101 127.786 49.209C128.58 48.5765 129.707 48.6972 130.724 48.657C131.725 48.634 134.238 47.5702 134.537 46.5984Z" fill="#333333"/>
<path d="M0.334435 277.323L85.0306 260.193L185.695 277.323C185.494 258.98 183.913 211.787 173.539 183.869C172.004 179.735 170.003 175.859 167.662 172.231C167.432 171.834 167.174 171.472 166.926 171.104C166.696 170.753 166.466 170.425 166.231 170.098C165.92 169.638 165.592 169.172 165.265 168.723C164.925 168.263 164.586 167.815 164.229 167.366C163.879 166.918 163.534 166.469 163.183 166.021C162.464 165.135 161.74 164.267 160.992 163.421C160.624 162.984 160.233 162.565 159.865 162.156C159.485 161.737 159.106 161.328 158.709 160.903C158.33 160.506 157.933 160.098 157.553 159.707C156.748 158.902 155.961 158.131 155.144 157.355C153.948 156.199 152.712 155.112 151.458 154.048C151.05 153.698 150.63 153.341 150.222 153.002C150.193 152.973 150.153 152.933 150.112 152.904C149.336 152.266 148.56 151.639 147.789 151.03C147.761 151.001 147.738 150.989 147.709 150.961C146.961 150.391 146.197 149.816 145.466 149.258C145.368 149.178 145.265 149.109 145.167 149.04C144.747 148.741 144.322 148.413 143.914 148.131C143.494 147.832 143.068 147.522 142.637 147.234C142.217 146.924 141.792 146.636 141.384 146.349C140.975 146.079 140.538 145.791 140.13 145.521C138.457 144.394 136.824 143.359 135.219 142.393C134.811 142.145 134.414 141.915 134.023 141.674C132.039 140.506 130.119 139.443 128.336 138.494C127.985 138.304 127.617 138.097 127.278 137.936C126.927 137.746 126.571 137.557 126.231 137.39C125.892 137.2 125.553 137.039 125.225 136.872C124.817 136.671 124.409 136.464 124.018 136.274C121.677 135.118 119.636 134.21 118.02 133.503C117.819 133.422 117.641 133.324 117.434 133.255C117.296 133.204 117.163 133.135 117.025 133.077C116.795 132.979 116.565 132.887 116.358 132.807C116.059 132.686 115.772 132.56 115.542 132.468C115.444 132.427 115.34 132.387 115.254 132.358C115.105 132.307 114.967 132.249 114.857 132.209C114.656 132.128 114.489 132.059 114.369 132.019C114.259 131.979 114.179 131.95 114.121 131.921C114.11 131.921 114.093 131.91 114.081 131.91C114.07 131.91 114.07 131.91 114.07 131.91L75.1631 160.535L72.8112 131.093C72.8112 131.093 72.8112 131.093 72.7997 131.093C72.7882 131.093 72.7709 131.105 72.7594 131.105C72.7307 131.105 72.7077 131.116 72.6617 131.134C72.5812 131.162 72.4834 131.185 72.3627 131.231C72.0924 131.3 71.7244 131.421 71.2471 131.571C70.9481 131.68 70.6376 131.76 70.2811 131.881C70.0625 131.95 69.8325 132.031 69.6025 132.111C69.2748 132.22 68.924 132.33 68.556 132.45C67.8774 132.669 67.1299 132.928 66.3134 133.209C65.4566 133.508 64.5193 133.848 63.5245 134.204C61.0231 135.113 58.1364 136.228 55.014 137.522C54.6345 137.683 54.2377 137.85 53.8295 138.011C53.7317 138.04 53.6397 138.091 53.5419 138.132C53.5132 138.143 53.4902 138.16 53.4614 138.172C52.7944 138.482 52.1446 138.799 51.4776 139.126C51.0003 139.356 50.523 139.586 50.0343 139.834C48.4989 140.593 46.9349 141.427 45.3708 142.324C44.583 142.772 43.8067 143.232 43.0189 143.709C42.2713 144.158 41.5066 144.635 40.759 145.112C40.7303 145.141 40.7073 145.153 40.6785 145.164C39.1432 146.159 37.6193 147.217 36.1358 148.333C35.9978 148.43 35.877 148.522 35.7563 148.62C35.1295 149.097 34.5027 149.586 33.8932 150.075L33.8242 150.144C33.2664 150.593 32.6971 151.07 32.1508 151.547C30.9835 152.565 29.8679 153.611 28.7754 154.715C28.0681 155.423 27.3896 156.159 26.7225 156.906C26.6938 156.935 26.6823 156.947 26.6708 156.975C25.9923 157.734 25.3367 158.528 24.7099 159.339C24.4799 159.638 24.2614 159.937 24.0314 160.236C23.8301 160.506 23.6231 160.794 23.4334 161.081C23.2551 161.328 23.0826 161.587 22.9044 161.84C22.6168 162.26 22.3466 162.685 22.0878 163.117C21.8175 163.554 21.5415 163.985 21.3 164.433C21.0412 164.871 20.794 165.331 20.564 165.779C20.403 166.078 20.2535 166.389 20.104 166.688C19.5749 167.763 19.0976 168.878 18.6779 170.006C6.80925 201.782 1.81801 257.186 0.334435 277.323Z" fill="#B3FFD1"/>
<path d="M0 279H186C185.798 260.435 184.211 212.671 173.802 184.415C172.261 180.231 170.253 176.308 167.905 172.636C167.674 172.234 167.414 171.867 167.166 171.495C166.936 171.14 166.705 170.808 166.468 170.476C166.157 170.011 165.828 169.539 165.499 169.085C165.158 168.62 164.818 168.166 164.46 167.712C164.108 167.258 163.762 166.804 163.41 166.35C162.689 165.454 161.962 164.575 161.212 163.719C160.842 163.277 160.45 162.852 160.081 162.439C159.7 162.014 159.319 161.601 158.921 161.17C158.54 160.769 158.142 160.356 157.761 159.96C156.953 159.145 156.163 158.365 155.343 157.579C154.143 156.41 152.903 155.31 151.645 154.233C151.235 153.878 150.814 153.517 150.404 153.174C150.375 153.145 150.335 153.104 150.294 153.075C149.515 152.429 148.737 151.794 147.963 151.178C147.934 151.148 147.911 151.137 147.883 151.108C147.132 150.532 146.365 149.95 145.632 149.385C145.534 149.304 145.43 149.234 145.332 149.164C144.911 148.861 144.484 148.53 144.074 148.244C143.653 147.942 143.226 147.627 142.793 147.336C142.372 147.022 141.945 146.731 141.535 146.44C141.126 146.167 140.687 145.876 140.278 145.602C138.598 144.461 136.96 143.414 135.35 142.436C134.94 142.186 134.542 141.953 134.15 141.709C132.159 140.527 130.232 139.45 128.443 138.49C128.091 138.298 127.722 138.089 127.381 137.926C127.029 137.734 126.672 137.542 126.331 137.373C125.991 137.181 125.65 137.018 125.321 136.849C124.912 136.645 124.502 136.436 124.11 136.244C121.761 135.074 119.713 134.154 118.091 133.439C117.889 133.357 117.711 133.258 117.503 133.188C117.364 133.136 117.232 133.066 117.093 133.008C116.862 132.909 116.632 132.816 116.424 132.734C116.124 132.612 115.835 132.484 115.604 132.391C115.506 132.35 115.403 132.309 115.316 132.28C115.166 132.228 115.027 132.17 114.918 132.129C110.157 135.679 77.4293 160.775 66.0102 189.839C65.8602 190.194 65.7102 190.567 65.589 190.939L65.8487 188.669C65.8487 188.658 65.8487 188.658 65.8487 188.658L72.6978 131.262L72.7266 131C72.7266 131 72.7267 131 72.7151 131C72.7036 131 72.6863 131.012 72.6747 131.012C72.6459 131.012 72.6228 131.023 72.5766 131.041C72.0054 131.18 69.7666 131.786 66.4776 132.886C65.6063 133.177 64.66 133.503 63.6503 133.875C60.7421 134.934 57.332 136.296 53.6737 138.007C53.5756 138.036 53.4833 138.089 53.3852 138.129C53.3563 138.141 53.3333 138.158 53.3044 138.17C52.6351 138.484 51.9831 138.804 51.3137 139.136C50.8348 139.369 50.3559 139.602 49.8654 139.852C48.3248 140.638 46.7553 141.476 45.1859 142.372C44.3953 142.826 43.6164 143.292 42.8259 143.775C42.0758 144.229 41.3083 144.712 40.5582 145.195C40.5293 145.224 40.5063 145.235 40.4774 145.247C38.9368 146.266 37.4077 147.325 35.919 148.454C35.7806 148.553 35.6594 148.646 35.5382 148.745C34.9092 149.228 34.2803 149.723 33.6687 150.217L33.5994 150.287C33.0397 150.741 32.4685 151.224 31.9203 151.707C30.749 152.737 29.6296 153.797 28.5332 154.914C27.8235 155.63 27.1427 156.375 26.4733 157.131C26.4445 157.16 26.4329 157.172 26.4214 157.201C25.7405 157.969 25.0827 158.773 24.4538 159.593C24.223 159.896 24.0037 160.198 23.7729 160.501C23.5709 160.775 23.3632 161.066 23.1728 161.357C22.9939 161.607 22.8208 161.869 22.642 162.125C22.3535 162.55 22.0823 162.98 21.8226 163.417C21.5514 163.859 21.2744 164.296 21.0321 164.75C20.7724 165.192 20.5243 165.657 20.2935 166.111C20.132 166.414 19.9819 166.728 19.8319 167.031C19.3011 168.119 18.8221 169.248 18.4009 170.389C6.49714 202.544 1.48869 258.619 0 279Z" fill="white"/>
<path fill-rule="evenodd" clip-rule="evenodd" d="M172.582 184.864C177.727 198.83 180.714 217.699 182.435 235.467C184.075 252.399 184.556 268.238 184.684 277.7H1.39983C3.0108 256.235 8.05104 202.091 19.6201 170.84L19.6204 170.839C20.0271 169.738 20.4887 168.65 20.9989 167.604C21.0406 167.52 21.0804 167.439 21.1191 167.36C21.2293 167.135 21.3303 166.93 21.4403 166.724L21.4464 166.712L21.4523 166.701C21.676 166.261 21.9112 165.82 22.1532 165.408L22.1665 165.385L22.1789 165.362C22.3589 165.025 22.5582 164.701 22.7826 164.337C22.8308 164.259 22.8802 164.179 22.9309 164.096L22.9354 164.089L22.9399 164.081C23.187 163.666 23.4429 163.26 23.7131 162.862C23.8048 162.73 23.8802 162.619 23.9511 162.515C24.0432 162.38 24.1277 162.256 24.2304 162.113L24.246 162.091L24.2606 162.068C24.4307 161.808 24.6205 161.542 24.8128 161.281C24.9299 161.127 25.0435 160.975 25.152 160.829L25.1565 160.823C25.2698 160.671 25.3777 160.526 25.4875 160.381C26.099 159.584 26.7365 158.806 27.3943 158.063L27.5457 157.893L27.5537 157.872C28.1792 157.168 28.8076 156.484 29.4564 155.829L29.4612 155.824C30.535 154.73 31.6313 153.693 32.7788 152.683L32.7798 152.683C33.3148 152.211 33.8725 151.739 34.4183 151.297L34.4731 151.252L34.5414 151.183C35.1265 150.711 35.7279 150.238 36.33 149.776L36.3454 149.764L36.3604 149.752C36.4607 149.67 36.5597 149.594 36.6748 149.512L36.6898 149.501L36.7046 149.49C38.1424 148.399 39.6237 147.371 41.1255 146.377C41.1894 146.343 41.2589 146.299 41.3307 146.244C42.0515 145.78 42.7845 145.319 43.4989 144.887L43.5037 144.884C44.287 144.405 45.0552 143.946 45.8324 143.5C47.3804 142.616 48.9308 141.788 50.456 141.01C50.9335 140.767 51.4015 140.539 51.882 140.305L51.891 140.301C52.5524 139.973 53.1892 139.661 53.8398 139.355C53.8734 139.34 53.9016 139.326 53.9231 139.315C53.9291 139.312 53.9349 139.309 53.9404 139.306C53.9647 139.295 53.9862 139.285 54.0037 139.277L54.0439 139.258L54.0712 139.246C54.0721 139.245 54.0729 139.245 54.0737 139.244L54.1365 139.226L54.2245 139.185C57.8422 137.493 61.2162 136.145 64.0952 135.097L64.1002 135.095C65.0936 134.728 66.0265 134.407 66.8894 134.119C68.6836 133.519 70.158 133.069 71.2094 132.764L64.5578 188.504L65.1175 188.57C65.1155 188.575 65.1135 188.58 65.1116 188.585L64.5571 188.522L64.2974 190.791L66.8252 191.341C66.9291 191.022 67.062 190.69 67.2077 190.345L67.2141 190.33L67.2202 190.315C72.8347 176.024 83.7283 162.633 93.8868 152.329C103.343 142.737 112.081 135.901 115.125 133.599C115.225 133.64 115.34 133.689 115.479 133.748C115.617 133.806 115.773 133.873 115.933 133.938L115.941 133.941L115.949 133.945C116.149 134.023 116.366 134.111 116.581 134.203L116.589 134.206C116.624 134.221 116.656 134.236 116.71 134.261C116.723 134.267 116.738 134.273 116.753 134.281C116.824 134.313 116.928 134.361 117.043 134.404L117.066 134.413L117.089 134.42C117.127 134.433 117.174 134.453 117.261 134.492C117.273 134.498 117.288 134.505 117.304 134.512C117.375 134.545 117.479 134.592 117.583 134.635C119.195 135.347 121.216 136.255 123.53 137.407L123.538 137.411C123.77 137.525 123.999 137.64 124.236 137.759C124.397 137.84 124.562 137.923 124.735 138.009C124.847 138.067 124.95 138.119 125.049 138.168C125.276 138.282 125.477 138.384 125.692 138.505L125.723 138.522L125.754 138.538C126.07 138.694 126.409 138.876 126.759 139.067L126.789 139.083L126.82 139.098C127.054 139.21 127.3 139.346 127.579 139.499C127.657 139.542 127.737 139.586 127.82 139.631L127.828 139.636C129.6 140.587 131.506 141.652 133.474 142.82C133.706 142.963 133.957 143.114 134.2 143.261C134.364 143.359 134.524 143.455 134.672 143.545L134.675 143.547C136.267 144.514 137.887 145.55 139.547 146.677L139.556 146.683C139.761 146.82 139.973 146.961 140.184 147.102L140.186 147.103C140.393 147.241 140.599 147.378 140.798 147.511C140.932 147.606 141.062 147.697 141.19 147.787C141.471 147.984 141.74 148.172 142.016 148.378L142.041 148.397L142.068 148.415C142.388 148.631 142.702 148.857 143.032 149.095C143.125 149.163 143.219 149.231 143.316 149.3L143.324 149.306L143.332 149.311C143.566 149.474 143.769 149.626 143.988 149.789C144.164 149.92 144.351 150.06 144.574 150.22L144.578 150.223C144.617 150.25 144.647 150.272 144.673 150.29C144.737 150.335 144.766 150.356 144.802 150.385L144.82 150.4L144.839 150.415C145.239 150.723 145.658 151.043 146.077 151.363C146.404 151.613 146.732 151.863 147.049 152.107C147.06 152.116 147.071 152.125 147.08 152.133L147.093 152.147L147.153 152.194C147.919 152.805 148.691 153.434 149.465 154.076L149.481 154.089L149.523 154.132L149.569 154.17C149.972 154.508 150.387 154.864 150.793 155.215L150.799 155.221C152.047 156.288 153.264 157.368 154.436 158.51L154.444 158.518C155.252 159.293 156.032 160.063 156.831 160.868L156.913 160.953C157.265 161.319 157.626 161.694 157.972 162.059C158.367 162.487 158.74 162.892 159.112 163.306C159.21 163.416 159.307 163.523 159.402 163.629C159.683 163.941 159.952 164.239 160.214 164.553L160.224 164.565L160.234 164.577C160.966 165.411 161.678 166.271 162.39 167.156C162.561 167.377 162.732 167.599 162.905 167.823L162.905 167.825C163.079 168.051 163.255 168.28 163.433 168.508L163.439 168.517C163.784 168.954 164.114 169.394 164.448 169.85C164.767 170.291 165.086 170.749 165.388 171.199L165.398 171.215L165.41 171.231C165.641 171.555 165.86 171.87 166.076 172.203L166.08 172.21L166.084 172.216C166.152 172.317 166.216 172.412 166.277 172.502C166.465 172.78 166.625 173.018 166.778 173.283L166.793 173.31L166.81 173.336C169.113 176.938 171.077 180.777 172.582 184.864ZM165.499 169.085C165.158 168.62 164.818 168.166 164.46 167.712C164.284 167.485 164.11 167.258 163.935 167.031C163.76 166.804 163.586 166.577 163.41 166.35C162.689 165.454 161.962 164.575 161.212 163.719C160.933 163.386 160.641 163.062 160.356 162.745C160.263 162.642 160.171 162.54 160.081 162.439C159.7 162.014 159.319 161.601 158.921 161.17C158.569 160.8 158.203 160.419 157.85 160.052L157.761 159.96C156.953 159.145 156.163 158.365 155.343 157.579C154.143 156.41 152.903 155.31 151.645 154.233C151.235 153.878 150.814 153.517 150.404 153.174C150.375 153.145 150.335 153.104 150.294 153.075C149.515 152.429 148.737 151.794 147.963 151.178C147.949 151.163 147.936 151.153 147.923 151.143C147.91 151.132 147.897 151.122 147.883 151.108C147.544 150.848 147.201 150.586 146.86 150.326C146.446 150.009 146.034 149.695 145.632 149.385C145.554 149.32 145.473 149.263 145.393 149.207C145.373 149.193 145.352 149.178 145.332 149.164C145.154 149.036 144.974 148.902 144.795 148.769C144.552 148.588 144.31 148.409 144.074 148.244C143.984 148.18 143.894 148.114 143.803 148.049C143.47 147.808 143.133 147.565 142.793 147.336C142.502 147.119 142.207 146.912 141.918 146.709C141.789 146.619 141.661 146.53 141.535 146.44C141.331 146.303 141.119 146.162 140.906 146.021C140.694 145.88 140.482 145.739 140.278 145.602C138.598 144.461 136.96 143.414 135.35 142.436C135.182 142.333 135.015 142.233 134.85 142.134C134.614 141.993 134.381 141.853 134.15 141.709C132.159 140.527 130.232 139.45 128.443 138.49C128.371 138.451 128.298 138.411 128.224 138.37C127.941 138.214 127.652 138.055 127.381 137.926C127.029 137.734 126.672 137.542 126.331 137.373C126.088 137.236 125.845 137.113 125.606 136.993C125.51 136.945 125.415 136.897 125.321 136.849C125.158 136.768 124.994 136.685 124.832 136.604C124.587 136.481 124.345 136.359 124.11 136.244C121.761 135.074 119.713 134.154 118.091 133.439C118.011 133.406 117.934 133.371 117.858 133.336C117.742 133.283 117.628 133.23 117.503 133.188C117.422 133.158 117.343 133.121 117.264 133.084C117.207 133.058 117.151 133.032 117.093 133.008C116.862 132.909 116.632 132.816 116.424 132.734C116.271 132.672 116.122 132.608 115.981 132.549C115.845 132.491 115.718 132.437 115.604 132.391C115.506 132.35 115.403 132.309 115.316 132.28C115.222 132.248 115.132 132.212 115.051 132.181C115.003 132.162 114.959 132.144 114.918 132.129C110.34 135.543 79.8951 158.884 67.4132 186.518C67.0923 187.229 66.7833 187.942 66.4869 188.658C66.4853 188.662 66.4837 188.665 66.4821 188.669C66.4737 188.69 66.4653 188.71 66.4569 188.73C66.4558 188.733 66.4547 188.736 66.4535 188.739C66.4492 188.749 66.4448 188.76 66.4405 188.77C66.2939 189.126 66.1505 189.482 66.0102 189.839C65.8602 190.194 65.7102 190.567 65.589 190.939L65.8487 188.669V188.658L72.6978 131.262L72.7266 131L72.7151 131C72.7093 131 72.7021 131.003 72.6949 131.006C72.6877 131.009 72.6805 131.012 72.6747 131.012C72.6513 131.012 72.6317 131.019 72.6004 131.032C72.5932 131.034 72.5853 131.037 72.5766 131.041C72.4613 131.069 72.2781 131.116 72.032 131.182C72.0267 131.184 72.0213 131.185 72.0159 131.187C71.8352 131.236 71.6214 131.295 71.3764 131.364C70.2949 131.669 68.6062 132.174 66.4776 132.886C65.6063 133.177 64.66 133.503 63.6503 133.875C60.7421 134.934 57.332 136.296 53.6737 138.007C53.6105 138.026 53.5497 138.054 53.4882 138.083C53.4543 138.099 53.4201 138.115 53.3852 138.129C53.3708 138.135 53.3578 138.142 53.3448 138.15C53.3318 138.157 53.3188 138.164 53.3044 138.17C52.6351 138.484 51.9831 138.804 51.3137 139.136C50.8348 139.369 50.3559 139.602 49.8654 139.852C48.3248 140.638 46.7553 141.476 45.1859 142.372C44.3953 142.826 43.6164 143.292 42.8259 143.775C42.0757 144.229 41.3083 144.712 40.5582 145.195C40.5293 145.224 40.5063 145.235 40.4774 145.247C38.9368 146.266 37.4077 147.325 35.919 148.454C35.7805 148.553 35.6593 148.646 35.5382 148.745C34.9092 149.228 34.2803 149.723 33.6687 150.217L33.5994 150.287C33.0397 150.741 32.4685 151.224 31.9203 151.707C30.749 152.737 29.6296 153.797 28.5332 154.914C27.8235 155.63 27.1427 156.375 26.4733 157.131C26.4445 157.16 26.4329 157.172 26.4214 157.201C25.7405 157.969 25.0827 158.773 24.4538 159.593C24.3384 159.744 24.2259 159.896 24.1133 160.047C24.0008 160.198 23.8883 160.35 23.7729 160.501C23.5709 160.775 23.3632 161.066 23.1728 161.357C23.0683 161.503 22.9657 161.653 22.8627 161.804C22.7896 161.911 22.7163 162.018 22.642 162.125C22.3535 162.55 22.0823 162.98 21.8226 163.417C21.7761 163.493 21.7294 163.568 21.6827 163.644C21.4574 164.009 21.2328 164.374 21.0321 164.75C20.7724 165.192 20.5243 165.657 20.2935 166.111C20.1721 166.339 20.0573 166.573 19.9441 166.803C19.9066 166.88 19.8692 166.956 19.8319 167.031C19.3011 168.119 18.8221 169.248 18.4009 170.389C6.74155 201.884 1.69727 256.326 0.0961761 277.7C0.0626068 278.148 0.0305634 278.582 0 279H186C185.995 278.581 185.99 278.148 185.984 277.7C185.722 258.29 183.977 212.033 173.802 184.415C172.261 180.231 170.253 176.308 167.905 172.636C167.727 172.325 167.531 172.036 167.337 171.749C167.28 171.664 167.223 171.58 167.166 171.495C166.936 171.14 166.705 170.808 166.468 170.476C166.157 170.011 165.828 169.539 165.499 169.085ZM147.121 152.166L147.119 152.164C147.123 152.168 147.124 152.169 147.121 152.166ZM53.8716 139.335C53.8758 139.333 53.8799 139.332 53.8838 139.33L53.8716 139.335ZM27.3965 158.047C27.3977 158.045 27.3989 158.044 27.4002 158.043L27.3965 158.047ZM27.3965 158.047L27.3909 158.052C27.3909 158.052 27.3933 158.05 27.3965 158.047Z" fill="#333333"/>
<path d="M56.2351 277.323H57.5692C58.1787 251.976 59.8118 220.924 63.9865 206.048C71.5597 179.028 120.138 171.069 120.627 171C120.874 170.96 121.075 170.782 121.156 170.563C121.236 170.316 121.185 170.074 121.006 169.885L108.873 156.791L121.455 153.036L122.732 152.657L140.667 147.298C141.018 147.188 141.225 146.809 141.115 146.469C141.006 146.119 140.638 145.912 140.299 146.021L122.525 151.323L121.248 151.702L107.47 155.825C107.252 155.894 107.091 156.084 107.022 156.285C106.97 156.515 107.022 156.745 107.183 156.912L119.189 169.885C112.255 171.15 79.0063 178.056 66.4534 197.48C66.0164 198.159 65.6081 198.837 65.2171 199.545C64.1705 201.477 63.3137 203.518 62.6985 205.692C59.9498 215.496 58.2937 232.252 57.2989 249.797V249.837C57.2587 250.475 57.2184 251.113 57.1897 251.752C56.7354 260.377 56.4249 269.152 56.2351 277.323Z" fill="#333333"/>
<path d="M36.9647 156.849C36.9934 157.142 37.1889 157.378 37.4707 157.447C37.7755 157.527 67.355 165.187 65.0606 199.056C65.0491 199.257 65.1124 199.43 65.2331 199.545C65.3539 199.665 65.4976 199.746 65.6701 199.757H65.7219C66.0669 199.757 66.3602 199.493 66.3717 199.148C66.4119 198.579 66.4407 198.021 66.4637 197.48C66.5844 194.525 66.4522 191.782 66.1302 189.223C66.0784 188.826 66.0267 188.441 65.9692 188.067C65.9692 188.056 65.9692 188.056 65.9692 188.056C62.7087 166.665 45.4694 158.821 39.6788 156.757L64.5948 147.614C64.8306 147.533 65.0031 147.309 65.0204 147.044C65.0491 146.791 64.9169 146.538 64.6754 146.423L51.4899 139.132C51.0126 139.356 50.5354 139.598 50.0466 139.834L62.7662 146.872L37.4017 156.187C37.1199 156.291 36.9474 156.555 36.9647 156.849Z" fill="#333333"/>
<path d="M130.795 277.323H132.129L132.348 204.185C132.348 203.817 132.06 203.507 131.681 203.507C131.33 203.507 131.025 203.817 131.025 204.174L130.795 277.323Z" fill="#333333"/>
<path d="M22.6698 277.323H23.9866L26.0395 252.068L26.787 242.89L30.5017 197.13C30.5305 196.762 30.2717 196.451 29.9037 196.411C29.5357 196.399 29.2079 196.658 29.1849 197.02L25.4185 243.46L24.7917 251.28L22.6698 277.323Z" fill="#333333"/>
<path d="M46.3642 184.491C46.324 184.836 46.5655 185.152 46.9048 185.192C46.9163 185.204 46.9335 185.204 46.945 185.204C46.9738 185.215 46.9968 185.215 47.014 185.215C47.3475 185.215 47.6121 184.991 47.6638 184.657C47.6753 184.646 47.6753 184.629 47.6753 184.617C47.6868 184.514 47.7041 184.416 47.7041 184.312C47.7328 184.088 47.7558 183.864 47.7846 183.634C48.8714 173.404 50.3032 162.628 54.1214 152.571C57.0885 144.739 62.8158 134.124 73.3619 127.724L73.5977 126.252C73.4366 126.211 73.2641 126.223 73.1089 126.321C61.9763 132.893 55.9615 143.974 52.8736 152.093C48.9519 162.444 47.52 173.467 46.4332 183.91C46.4217 183.979 46.4045 184.042 46.4045 184.111C46.3872 184.243 46.3757 184.376 46.3642 184.491Z" fill="#333333"/>
<path d="M29.3961 248.29C29.4133 248.29 29.4306 248.29 29.4536 248.29C40.3561 247.376 50.6147 238.986 55.5772 226.911C60.3384 215.33 59.8382 202.322 54.2431 192.11C52.2708 188.516 49.9246 185.79 47.2623 184.014C46.9575 183.807 46.5492 183.893 46.3422 184.198C46.1409 184.502 46.2215 184.911 46.5262 185.118C49.0103 186.779 51.2127 189.344 53.0816 192.754C58.4926 202.621 58.9641 215.203 54.3524 226.416C49.5739 238.038 39.7524 246.111 29.3443 246.979C28.9821 247.008 28.706 247.33 28.7406 247.692C28.7693 248.032 29.0568 248.29 29.3961 248.29Z" fill="#3458FF"/>
<path d="M50.2716 251.154C50.4096 251.154 50.5533 251.108 50.6741 251.016C50.9673 250.798 51.0248 250.378 50.8006 250.09C40.4903 236.514 35.9706 218.366 38.7192 201.541C40.0533 193.352 43.0664 187.677 47.6724 184.663C47.9772 184.462 48.0634 184.054 47.8622 183.743C47.6609 183.439 47.2527 183.352 46.9421 183.554C42.0141 186.774 38.8112 192.754 37.4081 201.328C34.602 218.504 39.2137 237.037 49.7425 250.895C49.8748 251.062 50.0703 251.154 50.2716 251.154Z" fill="#3458FF"/>
<path d="M52.504 255.381C49.8268 255.381 47.6565 253.21 47.6565 250.533C47.6565 247.856 49.8268 245.686 52.504 245.686C55.1812 245.686 57.3516 247.856 57.3516 250.533C57.3516 253.21 55.1812 255.381 52.504 255.381Z" fill="#333333"/>
<path d="M24.4982 251.028C22.6052 249.135 22.6052 246.066 24.4982 244.173C26.3913 242.28 29.4605 242.28 31.3536 244.173C33.2466 246.066 33.2466 249.135 31.3536 251.028C29.4605 252.921 26.3913 252.921 24.4982 251.028Z" fill="#333333"/>
<path d="M116.069 210.056C115.845 210.959 115.62 211.856 115.39 212.759C115.321 213.024 115.431 213.3 115.626 213.449C115.695 213.501 115.77 213.541 115.862 213.57C115.914 213.581 115.983 213.581 116.034 213.581C116.086 213.581 116.138 213.57 116.195 213.553C116.42 213.501 116.604 213.328 116.673 213.087C116.909 212.172 117.139 211.247 117.363 210.315C120.612 197.302 123.51 183.438 123.803 169.591C124.148 153.726 120.916 139.351 114.419 127.913L114.217 130.3C119.956 141.231 122.803 154.738 122.475 169.568C122.205 183.312 119.301 197.095 116.069 210.056Z" fill="#333333"/>
<path d="M114.121 235.404C107.083 235.404 101.378 229.698 101.378 222.661C101.378 215.623 107.083 209.918 114.121 209.918C121.158 209.918 126.863 215.623 126.863 222.661C126.863 229.698 121.158 235.404 114.121 235.404Z" fill="#333333"/>
<path d="M114.125 213.311C114.642 213.311 115.142 213.351 115.637 213.449C115.838 213.478 116.034 213.501 116.206 213.558C120.369 214.495 123.469 218.222 123.469 222.655C123.469 227.807 119.283 231.999 114.125 231.999C108.972 231.999 104.78 227.813 104.78 222.655C104.78 217.503 108.966 213.311 114.125 213.311ZM114.125 230.677C118.558 230.677 122.146 227.089 122.146 222.655C122.146 218.233 118.558 214.645 114.125 214.645C109.703 214.645 106.114 218.233 106.114 222.655C106.114 227.089 109.703 230.677 114.125 230.677Z" fill="#3458FF"/>
</svg>
