<svg width="107" height="283" viewBox="0 0 107 283" fill="none" xmlns="http://www.w3.org/2000/svg">
<path d="M29.4738 96.884L33.1523 98.7202L26.6602 111.726L22.9817 109.89L29.4738 96.884Z" fill="#B3FFD1"/>
<path d="M33.0199 117.434C33.6064 117.29 34.1297 116.887 34.4 116.295C34.8772 115.266 34.423 114.041 33.3937 113.57L16.9133 105.979C15.884 105.502 14.6592 105.95 14.1877 106.985C13.7104 108.015 14.1647 109.24 15.194 109.711L31.6743 117.301C32.1114 117.508 32.5829 117.537 33.0199 117.434Z" fill="#B3FFD1"/>
<path d="M62.212 31.5184C62.3615 31.7082 62.5398 31.8174 62.7296 31.8174C62.9883 31.8059 63.2471 31.6162 63.4081 31.2309L64.3166 29.1895L64.9147 27.8555L68.8594 19H66.726L63.4599 26.2914L62.4823 28.4822L62.005 29.5575C61.7348 30.1901 61.821 31.0469 62.212 31.5184Z" fill="#333333"/>
<path d="M40.0762 105.588L70.2308 40.2759C70.8863 38.8556 70.225 37.1823 68.776 36.59L53.7677 30.4659C52.4106 29.9139 50.8638 30.5234 50.2485 31.846L19.7432 97.4569L40.0762 105.588Z" fill="#B3FFD1"/>
<path d="M23.5503 94.2311L52.8768 33.554L67.1836 38.7752L38.9669 101.459L23.5503 94.2311Z" fill="#3458FF"/>
<path d="M52.876 33.5538L67.545 37.8377L68.2408 36.2679L69.2758 33.9045L70.3281 31.5239L56.8782 26.2969L54.4976 30.6211L54.4458 30.7246L52.876 33.5538Z" fill="#B3FFD1"/>
<path d="M54.4434 30.7246L68.2384 36.2679L69.2734 33.9045L54.4952 30.6211L54.4434 30.7246Z" fill="#333333"/>
<path d="M64.0682 48.5564C64.2752 48.5046 64.465 48.3666 64.5628 48.1538C64.741 47.7801 64.5858 47.3373 64.2178 47.1533L59.0942 44.6692C58.7205 44.4909 58.2719 44.6462 58.0937 45.0142C57.9154 45.388 58.0707 45.8307 58.4387 46.0147L63.5622 48.4989C63.729 48.5851 63.9072 48.5966 64.0682 48.5564Z" fill="#333333"/>
<path d="M61.6232 54.6577C61.8302 54.6059 62.0142 54.4679 62.1177 54.2609C62.3017 53.8929 62.1465 53.4443 61.7785 53.2603L56.1892 50.5002C55.8154 50.3162 55.3669 50.4714 55.1886 50.8395C55.0046 51.2075 55.1599 51.656 55.5279 51.84L61.1172 54.6002C61.2782 54.6807 61.4564 54.6979 61.6232 54.6577Z" fill="#333333"/>
<path d="M58.6866 59.4989C58.8878 59.4472 59.0718 59.3149 59.1753 59.1136C59.3651 58.7456 59.2156 58.2971 58.8476 58.1073L53.9081 55.583C53.5401 55.3932 53.0915 55.5427 52.9018 55.9107C52.712 56.2787 52.8615 56.7273 53.2295 56.917L58.169 59.4414C58.3358 59.5219 58.5198 59.5392 58.6866 59.4989Z" fill="#333333"/>
<path d="M9.87807 210.758C15.7095 198.028 24.4432 186.726 32.8642 175.797C40.7074 165.622 48.809 155.108 54.5657 143.506C64.8014 122.804 67.3637 98.37 61.7157 75.982C46.7156 77.9938 31.2398 72.1216 23.3829 60.2139C20.6167 56.034 19.3186 51.9697 19.5089 48.1296C19.7467 43.372 22.5469 39.1921 26.455 37.7444C29.6834 36.5414 33.5778 37.0512 38.0092 39.2872C51.9966 46.3421 58.8068 61.2946 62.0555 72.5905C62.2458 73.2634 62.4429 73.9566 62.6196 74.6295C66.6568 73.9838 70.6396 72.7333 74.4049 70.871C90.0779 63.1093 101.428 45.7644 104.011 25.6057C105.248 15.8662 104.684 5.57612 102.244 -5.48193H103.481C105.907 5.6237 106.471 15.9613 105.2 25.7688C102.563 46.3081 90.975 64.0064 74.9351 71.9517C71.095 73.8615 67.0442 75.1325 62.9255 75.8121C68.5803 98.4448 65.9975 123.116 55.6463 144.043C49.842 155.76 41.6929 166.322 33.8157 176.531C25.4219 187.412 16.763 198.667 10.9723 211.282C0.376448 234.377 -0.214876 262.365 9.11005 287.587C8.51195 287.234 7.95465 286.846 7.40412 286.445C-1.41786 261.325 -0.629464 233.663 9.87807 210.758ZM60.9001 72.9236C56.4008 57.2846 48.0749 45.71 37.4655 40.3611C33.3535 38.2881 29.7853 37.7716 26.8696 38.8658C23.4645 40.1368 20.9225 43.9769 20.7119 48.1908C20.5215 51.7726 21.7585 55.599 24.3752 59.5547C31.9602 71.0477 46.8923 76.7025 61.4099 74.8062C61.2535 74.1809 61.0768 73.5489 60.9001 72.9236Z" fill="#B3FFD1"/>
<path fill-rule="evenodd" clip-rule="evenodd" d="M19.5089 48.1296C19.3186 51.9697 20.6167 56.034 23.3829 60.2139C31.2398 72.1216 46.7156 77.9938 61.7157 75.982C67.3637 98.37 64.8013 122.804 54.5657 143.506C48.809 155.108 40.7074 165.622 32.8642 175.797L32.7097 175.997C24.3365 186.864 15.6739 198.106 9.87807 210.758C-0.629471 233.663 -1.41786 261.325 7.40411 286.445C7.7374 286.688 8.07318 286.926 8.41898 287.154C8.64438 287.303 8.87404 287.448 9.11005 287.587C9.01646 287.334 8.92388 287.081 8.8323 286.827C-0.202003 261.804 0.48278 234.145 10.9723 211.282C16.763 198.667 25.4219 187.412 33.8157 176.531C41.6929 166.322 49.842 155.76 55.6463 144.043C65.9234 123.266 68.5428 98.7982 63.0458 76.299C63.0061 76.1366 62.966 75.9743 62.9255 75.8121C63.0904 75.7849 63.2551 75.7568 63.4198 75.7277C67.3682 75.0297 71.2487 73.785 74.9351 71.9517C90.975 64.0064 102.563 46.3081 105.2 25.7688C106.471 15.9613 105.907 5.6237 103.481 -5.48193H102.244C102.281 -5.31509 102.317 -5.14843 102.353 -4.98193C104.7 5.88651 105.229 16.0131 104.011 25.6057C101.428 45.7644 90.0779 63.1093 74.4049 70.871C70.6396 72.7333 66.6568 73.9838 62.6196 74.6295C62.4546 74.0011 62.2718 73.355 62.0933 72.7242L62.0555 72.5905C58.8067 61.2946 51.9966 46.3421 38.0092 39.2872C33.5778 37.0512 29.6834 36.5414 26.455 37.7444C22.5469 39.1921 19.7467 43.372 19.5089 48.1296ZM26.2813 37.2755C22.1543 38.8043 19.2556 43.1829 19.0095 48.1046C18.8125 52.0788 20.1583 56.2471 22.9656 60.4893C30.8689 72.4674 46.3227 78.3938 61.3384 76.5348C66.8167 98.6902 64.2347 122.821 54.1178 143.284C48.3866 154.834 40.3168 165.31 32.4682 175.492L32.2971 175.713C23.9352 186.566 15.2431 197.846 9.42349 210.55C-1.14227 233.582 -1.92897 261.379 6.93237 286.611L6.98393 286.758L7.10973 286.849C7.66548 287.254 8.23754 287.652 8.85568 288.018L10.0669 288.733L9.57903 287.414C0.296326 262.306 0.890388 234.455 11.4267 211.49C17.1897 198.936 25.8119 187.725 34.2115 176.836L34.2205 176.825C42.0896 166.627 50.2666 156.03 56.0944 144.265C66.4189 123.392 69.0536 98.8173 63.5398 76.2142C67.5217 75.5072 71.4365 74.25 75.157 72.3997C91.3724 64.3676 103.042 46.5073 105.696 25.8328C106.975 15.9608 106.406 5.56501 103.969 -5.58866L103.883 -5.98193H101.621L101.756 -5.3742C104.185 5.63513 104.744 15.867 103.515 25.5425C100.949 45.566 89.68 62.7482 74.1833 70.4228M26.2813 37.2755C29.6877 36.0066 33.7333 36.5695 38.2344 38.8408C52.4145 45.9929 59.2769 61.1204 62.536 72.4523L62.5366 72.4545L62.5747 72.5891C62.7118 73.0736 62.8524 73.5704 62.9856 74.0621C66.8216 73.4051 70.6022 72.1939 74.1833 70.4228M26.8696 38.8658C29.7853 37.7716 33.3535 38.2881 37.4654 40.3611C48.0749 45.71 56.4008 57.2846 60.9001 72.9236C61.031 73.3866 61.1618 73.8533 61.2844 74.3183C61.3273 74.4812 61.3693 74.644 61.4099 74.8062C61.2433 74.828 61.0766 74.8487 60.91 74.8685C46.5506 76.5719 31.8732 70.9158 24.3752 59.5547C21.7585 55.599 20.5215 51.7726 20.7118 48.1908C20.9225 43.9769 23.4645 40.1368 26.8696 38.8658ZM60.7835 74.38C46.5973 76.0398 32.1557 70.4362 24.7925 59.2793C22.2157 55.384 21.0281 51.6619 21.2111 48.2173L21.2112 48.2157C21.4139 44.1617 23.8607 40.5226 27.0444 39.3343C29.776 38.3091 33.1909 38.7661 37.2404 40.8076C47.6845 46.0731 55.9437 57.5049 60.4193 73.0609C60.5438 73.5015 60.6674 73.9422 60.7835 74.38Z" fill="#B3FFD1"/>
<path fill-rule="evenodd" clip-rule="evenodd" d="M69.1338 159.264C68.6338 159.264 68.2285 159.669 68.2285 160.169V194.901C68.2285 195.401 68.6338 195.806 69.1338 195.806C69.6337 195.806 70.0391 195.401 70.0391 194.901V160.169C70.0391 159.669 69.6337 159.264 69.1338 159.264Z" fill="#333333"/>
<path fill-rule="evenodd" clip-rule="evenodd" d="M58.4006 166.473C58.0426 166.822 58.0355 167.396 58.3846 167.753L79.5169 189.421C79.866 189.779 80.4392 189.786 80.7971 189.437C81.155 189.087 81.1622 188.514 80.8131 188.156L59.6808 166.489C59.3317 166.131 58.7585 166.124 58.4006 166.473Z" fill="#333333"/>
<path fill-rule="evenodd" clip-rule="evenodd" d="M87.4062 177.535C87.4062 177.035 87.0009 176.63 86.5009 176.63H51.7691C51.2692 176.63 50.8638 177.035 50.8638 177.535C50.8638 178.035 51.2692 178.44 51.7691 178.44H86.5009C87.0009 178.44 87.4062 178.035 87.4062 177.535Z" fill="#333333"/>
<path fill-rule="evenodd" clip-rule="evenodd" d="M80.8209 166.635C80.4762 166.273 79.9032 166.259 79.541 166.603L57.6151 187.466C57.2529 187.81 57.2386 188.383 57.5833 188.745C57.9279 189.108 58.5009 189.122 58.8632 188.777L80.789 167.915C81.1513 167.571 81.1655 166.997 80.8209 166.635Z" fill="#333333"/>
</svg>
