<svg width="96" height="283" viewBox="0 0 96 283" fill="none" xmlns="http://www.w3.org/2000/svg">
<path d="M66.5876 163.57L68.707 177.952L64.6396 178.551L62.5201 164.17L66.5876 163.57Z" fill="#B3FFD1"/>
<path d="M54.0299 163.136C53.6274 163.591 53.4319 164.217 53.5469 164.856C53.7482 165.971 54.8177 166.713 55.9333 166.518L73.7937 163.309C74.9093 163.113 75.6568 162.044 75.4555 160.923C75.2543 159.807 74.1847 159.065 73.0692 159.261L55.2087 162.469C54.7315 162.556 54.3232 162.797 54.0299 163.136Z" fill="#B3FFD1"/>
<path d="M79.2591 250.299C79.0175 250.23 78.8105 250.242 78.661 250.357C78.454 250.506 78.362 250.823 78.4368 251.214L79.1326 254.842L82.2262 270.937C82.8645 270.851 83.5085 270.765 84.1641 270.673L81.2142 255.302L80.5471 251.794C80.4149 251.122 79.8456 250.46 79.2591 250.299Z" fill="#333333"/>
<path d="M55.0207 176.891L67.6713 247.712C67.9473 249.247 69.4482 250.248 70.972 249.903L86.7853 246.337C88.2114 246.015 89.1372 244.63 88.8842 243.192L76.3485 171.934L55.0207 176.891Z" fill="#B3FFD1"/>
<path d="M75.0717 176.742L85.75 243.284L71.0292 247.194L58.2923 179.64L75.0717 176.742Z" fill="#3458FF"/>
<path d="M85.7431 243.284L71.2639 248.166L71.5974 249.851L72.0977 252.381L72.598 254.934L86.6172 251.524L86.0939 246.619L86.0767 246.504L85.7431 243.284Z" fill="#B3FFD1"/>
<path d="M86.0804 246.504L71.6012 249.851L72.1014 252.381L86.0977 246.619L86.0804 246.504Z" fill="#333333"/>
<path d="M67.9856 237.39C67.8418 237.551 67.7728 237.775 67.8073 237.999C67.8706 238.408 68.2559 238.684 68.6641 238.62L74.2879 237.723C74.6962 237.66 74.9722 237.275 74.9089 236.867C74.8457 236.458 74.4604 236.182 74.0522 236.246L68.4284 237.143C68.2501 237.171 68.0948 237.263 67.9856 237.39Z" fill="#333333"/>
<path d="M66.5038 230.99C66.36 231.151 66.291 231.369 66.3255 231.594C66.3888 232.002 66.7683 232.284 67.1766 232.22L73.3409 231.289C73.7492 231.226 74.0309 230.846 73.9677 230.438C73.9044 230.03 73.5249 229.748 73.1166 229.811L66.9523 230.743C66.7741 230.771 66.6131 230.863 66.5038 230.99Z" fill="#333333"/>
<path d="M66.1333 225.332C65.9953 225.487 65.9206 225.706 65.9551 225.93C66.0126 226.338 66.3863 226.626 66.7946 226.568L72.2919 225.815C72.7002 225.758 72.9877 225.384 72.9302 224.97C72.8727 224.562 72.4989 224.274 72.0849 224.332L66.5876 225.085C66.4093 225.114 66.2483 225.206 66.1333 225.332Z" fill="#333333"/>
<path d="M35.8627 290H37.0657C36.8754 281.803 38.1736 273.28 41.0553 264.989C47.4985 246.42 60.8742 229.191 81.9164 212.281C83.0583 211.384 84.1797 210.48 85.3215 209.583C88.9373 206.735 92.6347 203.826 95.9922 200.632V198.96C92.4376 202.446 88.4684 205.566 84.5807 208.638C83.4389 209.535 82.297 210.439 81.1756 211.357C59.9295 228.396 46.4382 245.822 39.9135 264.594C36.9842 273.009 35.6656 281.661 35.8627 290Z" fill="#B3FFD1"/>
<path fill-rule="evenodd" clip-rule="evenodd" d="M35.3744 290.5H37.5775L37.5656 289.988C37.3767 281.852 38.6653 273.389 41.5276 265.153C47.9302 246.701 61.2331 229.544 82.2276 212.672C82.7989 212.223 83.365 211.773 83.9296 211.324C84.4956 210.873 85.061 210.423 85.6304 209.976L85.6993 209.922C89.2902 207.094 92.9808 204.187 96.3368 200.994L96.4922 200.846V197.769L95.6421 198.603C92.1912 201.988 88.3441 205.027 84.5388 208.034C84.4496 208.104 84.3604 208.175 84.2713 208.245C83.1296 209.142 81.9854 210.048 80.8609 210.968C59.5684 228.045 46.006 245.543 39.4412 264.43C36.4924 272.9 35.1643 281.612 35.3629 290.012L35.3744 290.5ZM81.1756 211.357C82.297 210.439 83.4389 209.535 84.5807 208.638C84.6729 208.565 84.7651 208.492 84.8574 208.419C88.4749 205.561 92.1527 202.655 95.4922 199.445C95.6597 199.284 95.8264 199.122 95.9922 198.96V200.632C92.6531 203.808 88.9779 206.703 85.3811 209.536L85.3215 209.583C84.7506 210.031 84.1848 210.482 83.6189 210.932C83.0531 211.382 82.4873 211.832 81.9164 212.281C60.8742 229.191 47.4985 246.42 41.0553 264.989C38.2321 273.112 36.9288 281.457 37.056 289.5C37.0586 289.667 37.0618 289.833 37.0657 290H35.8627C35.6656 281.661 36.9842 273.009 39.9135 264.594C46.4382 245.822 59.9295 228.396 81.1756 211.357Z" fill="#B3FFD1"/>
<path d="M6.76649 51.657C10.7561 64.3395 18.7897 81.0047 34.3199 88.4674C40.4572 91.4239 47.2606 92.6609 53.8329 93.8503C58.0604 94.6251 62.4306 95.4067 66.5765 96.6641C78.1171 100.117 88.3256 107.675 95.9922 117.577V115.294C88.312 105.989 78.3142 98.9274 66.9164 95.5087C62.7025 94.2377 58.2983 93.4357 54.0436 92.6609C47.5529 91.4851 40.831 90.2685 34.85 87.3867C19.7072 80.1076 11.8503 63.7414 7.90833 51.3036C2.12442 32.946 0.887436 13.3718 4.1498 -5.48193H2.92642C-0.335945 13.501 0.935013 33.1907 6.76649 51.657Z" fill="#B3FFD1"/>
<path fill-rule="evenodd" clip-rule="evenodd" d="M95.9922 115.294C88.312 105.989 78.3142 98.9274 66.9164 95.5087C62.7028 94.2378 58.299 93.4358 54.0446 92.6611L54.032 92.6588C47.5448 91.4836 40.8275 90.2668 34.85 87.3867C19.7072 80.1076 11.8503 63.7414 7.90833 51.3036C2.17553 33.1082 0.909653 13.7177 4.06436 -4.98193C4.09249 -5.14866 4.12096 -5.31532 4.1498 -5.48193H2.92642C-0.335945 13.501 0.935013 33.1907 6.76649 51.657C10.7561 64.3395 18.7897 81.0047 34.3199 88.4674C40.4572 91.4239 47.2606 92.6609 53.8329 93.8503C53.9854 93.8782 54.138 93.9062 54.2909 93.9342C58.3753 94.6821 62.5801 95.4521 66.5765 96.6641C77.868 100.042 87.8843 107.35 95.4922 116.939C95.66 117.151 95.8267 117.363 95.9922 117.577V115.294ZM53.7439 94.3423C47.1832 93.155 40.3119 91.9088 34.1033 88.9181C18.3779 81.3616 10.2891 64.5211 6.28954 51.8071C0.433899 33.2639 -0.842033 13.4937 2.43364 -5.56662L2.50502 -5.98193H4.74374L4.64248 -5.39668C1.39353 13.3795 2.62563 32.8729 8.38522 51.1534C12.3181 63.562 20.1201 79.7513 35.0666 86.9361C40.976 89.7833 47.6293 90.9908 54.1327 92.1689L54.148 92.1717C58.3932 92.9448 62.8199 93.7509 67.0604 95.0299C78.5632 98.4801 88.642 105.603 96.3778 114.975L96.4922 115.114V119.04L95.5968 117.883C87.9846 108.051 77.8598 100.562 66.4332 97.1431L66.4314 97.1426C62.4628 95.939 58.283 95.1735 54.1908 94.4242C54.0417 94.3969 53.8927 94.3696 53.7439 94.3423Z" fill="#B3FFD1"/>
<path fill-rule="evenodd" clip-rule="evenodd" d="M50.3916 60.8821C49.8916 60.8821 49.4863 61.2874 49.4863 61.7874V96.5249C49.4863 97.0249 49.8916 97.4302 50.3916 97.4302C50.8916 97.4302 51.2969 97.0249 51.2969 96.5249V61.7874C51.2969 61.2874 50.8916 60.8821 50.3916 60.8821Z" fill="#333333"/>
<path fill-rule="evenodd" clip-rule="evenodd" d="M39.6584 68.0971C39.3005 68.4461 39.2933 69.0193 39.6424 69.3772L60.7747 91.0444C61.1238 91.4023 61.697 91.4095 62.0549 91.0604C62.4129 90.7113 62.42 90.1381 62.0709 89.7802L40.9386 68.113C40.5895 67.7551 40.0163 67.748 39.6584 68.0971Z" fill="#333333"/>
<path fill-rule="evenodd" clip-rule="evenodd" d="M68.6641 79.1592C68.6641 78.6592 68.2587 78.2539 67.7588 78.2539H33.0212C32.5212 78.2539 32.1159 78.6592 32.1159 79.1592C32.1159 79.6592 32.5212 80.0645 33.0212 80.0645H67.7588C68.2587 80.0645 68.6641 79.6592 68.6641 79.1592Z" fill="#333333"/>
<path fill-rule="evenodd" clip-rule="evenodd" d="M62.0787 68.2534C61.734 67.8912 61.161 67.877 60.7988 68.2216L38.8671 89.0894C38.5049 89.4341 38.4907 90.0071 38.8353 90.3693C39.18 90.7316 39.753 90.7458 40.1152 90.4012L62.0469 69.5333C62.4091 69.1887 62.4233 68.6156 62.0787 68.2534Z" fill="#333333"/>
</svg>
