<svg width="108" height="102" viewBox="0 0 108 102" fill="none" xmlns="http://www.w3.org/2000/svg">
<path d="M43.2422 52.3586V101.302H106.655V52.3586L43.2422 52.3586Z" fill="white" stroke="#B1B1B1" stroke-miterlimit="10" stroke-linecap="round" stroke-linejoin="round"/>
<path d="M46.4922 55.4644V98.1958H103.406V55.4644H46.4922Z" stroke="#B1B1B1" stroke-miterlimit="10" stroke-linecap="round" stroke-linejoin="round"/>
<path d="M43.2422 101.304L46.4917 98.1985" stroke="#B1B1B1" stroke-miterlimit="10" stroke-linecap="round" stroke-linejoin="round"/>
<path d="M106.656 101.304L103.406 98.1985" stroke="#B1B1B1" stroke-miterlimit="10" stroke-linecap="round" stroke-linejoin="round"/>
<path d="M103.406 55.4671L106.656 52.3613" stroke="#B1B1B1" stroke-miterlimit="10" stroke-linecap="round" stroke-linejoin="round"/>
<path d="M43.2422 52.3613L46.4917 55.4671" stroke="#B1B1B1" stroke-miterlimit="10" stroke-linecap="round" stroke-linejoin="round"/>
<path d="M95.8416 60.9221H54.0586V64.835H95.8416V60.9221Z" fill="#B1B1B1"/>
<path d="M97.9448 89.4937C97.9448 91.3673 96.4245 92.8805 94.5583 92.8805C92.685 92.8805 91.1719 91.3601 91.1719 89.4937C91.1719 87.6202 92.6922 86.1069 94.5583 86.1069C96.4245 86.1069 97.9448 87.6202 97.9448 89.4937Z" fill="#B1B1B1"/>
<path d="M50.125 69.843H99.7833" stroke="#B1B1B1" stroke-miterlimit="10" stroke-linecap="round" stroke-linejoin="round"/>
<path d="M50.125 73.5901H99.7833" stroke="#B1B1B1" stroke-miterlimit="10" stroke-linecap="round" stroke-linejoin="round"/>
<path d="M50.125 77.3372H99.7833" stroke="#B1B1B1" stroke-miterlimit="10" stroke-linecap="round" stroke-linejoin="round"/>
<path d="M50.125 81.0844H99.7833" stroke="#B1B1B1" stroke-miterlimit="10" stroke-linecap="round" stroke-linejoin="round"/>
<path d="M50.125 84.8314H88.1541" stroke="#B1B1B1" stroke-miterlimit="10" stroke-linecap="round" stroke-linejoin="round"/>
<path d="M50.125 88.5785H70.5446" stroke="#B1B1B1" stroke-miterlimit="10" stroke-linecap="round" stroke-linejoin="round"/>
<path d="M1.27734 -12.4576L1.27734 36.4854L64.6904 36.4854V-12.4576L1.27734 -12.4576Z" fill="white" stroke="#B1B1B1" stroke-miterlimit="10" stroke-linecap="round" stroke-linejoin="round"/>
<path d="M4.52734 -9.35175L4.52734 33.3796H61.4413V-9.35175H4.52734Z" stroke="#B1B1B1" stroke-miterlimit="10" stroke-linecap="round" stroke-linejoin="round"/>
<path d="M1.27344 36.4868L4.52299 33.381" stroke="#B1B1B1" stroke-miterlimit="10" stroke-linecap="round" stroke-linejoin="round"/>
<path d="M64.6871 36.4868L61.4375 33.381" stroke="#B1B1B1" stroke-miterlimit="10" stroke-linecap="round" stroke-linejoin="round"/>
<path d="M53.8728 -3.88831H12.0898V0.0245333H53.8728V-3.88831Z" fill="#B1B1B1"/>
<path d="M52.5817 28.0701C54.452 28.0701 55.9682 26.5538 55.9682 24.6833C55.9682 22.8128 54.452 21.2965 52.5817 21.2965C50.7115 21.2965 49.1953 22.8128 49.1953 24.6833C49.1953 26.5538 50.7115 28.0701 52.5817 28.0701Z" fill="#B1B1B1"/>
<path d="M8.15625 5.03271H57.8073" stroke="#B1B1B1" stroke-miterlimit="10" stroke-linecap="round" stroke-linejoin="round"/>
<path d="M8.15625 8.77979H57.8073" stroke="#B1B1B1" stroke-miterlimit="10" stroke-linecap="round" stroke-linejoin="round"/>
<path d="M8.15625 12.5269H57.8073" stroke="#B1B1B1" stroke-miterlimit="10" stroke-linecap="round" stroke-linejoin="round"/>
<path d="M8.15625 16.274H57.8073" stroke="#B1B1B1" stroke-miterlimit="10" stroke-linecap="round" stroke-linejoin="round"/>
<path d="M8.15625 20.0211H46.1853" stroke="#B1B1B1" stroke-miterlimit="10" stroke-linecap="round" stroke-linejoin="round"/>
<path d="M8.15625 23.7682H28.5758" stroke="#B1B1B1" stroke-miterlimit="10" stroke-linecap="round" stroke-linejoin="round"/>
</svg>
