<svg width="800" height="283" viewBox="0 0 800 283" fill="none" xmlns="http://www.w3.org/2000/svg">
<g clip-path="url(#clip0_711_3290)">
<rect width="800" height="283" fill="#D9D9D9"/>
<g clip-path="url(#clip1_711_3290)">
<rect width="840" height="283" fill="white"/>
<path d="M726.017 77.7853C740.275 94.1035 753.269 114.997 755.16 144.706C757.05 174.414 755.161 217 755.161 217C755.161 217 744.751 217 723.52 217H407C408.14 171.489 435.334 162.804 460.558 155.412C488.101 147.343 508.739 136.42 506.507 105.914C504.268 75.4084 524.297 26.815 584.752 19.3159C615.298 15.5295 683.137 47.027 683.137 47.027C683.137 47.027 708.948 58.2496 726.017 77.7853Z" fill="#F0F0F0"/>
<path d="M344.088 216.381C347.064 207.813 349.816 198.243 352.172 187.571C368.434 113.89 333.1 91.5084 311.938 92.6613C290.776 93.8143 274.096 103.117 248.676 89.0728C218.249 72.2613 209.624 24.1399 149.122 -0.52616C88.6199 -25.1922 66.5 6.95136 50 28.2257C33.5 49.5 -3.5 216.381 -3.5 216.381L344.088 216.373V216.381Z" fill="#F0F0F0"/>
<path d="M476.784 76.4546C482.077 53.4231 467.699 30.4612 444.67 25.1677C421.641 19.8742 398.681 34.2536 393.388 57.2851C388.095 80.3166 402.473 103.279 425.502 108.572C448.532 113.866 471.491 99.4861 476.784 76.4546Z" fill="#F0F0F0"/>
<path d="M304.85 216.381C305.023 212.936 304.922 208.267 303.711 203.799C301.391 195.26 284.697 166.35 277.167 156.42C269.638 146.49 257.468 125.268 246.905 112.874C236.804 101.02 221.781 93.5189 220.484 92.8848C220.419 92.8559 220.383 92.8343 220.383 92.8343L187.729 92.6614C187.729 92.6614 155.68 107.21 139.116 128.922C126.146 145.928 115.129 195.649 110.965 216.388H304.85V216.381Z" fill="white"/>
<path d="M302.73 216.381L304.906 213.073C304.891 212.28 304.863 211.452 304.805 210.609L301.008 216.381H302.73Z" fill="#B1B1B1"/>
<path d="M117.824 216.381H119.547L121.247 213.794L125.181 216.381H127.804L122.04 212.59L129.663 201.01L141.241 208.634L136.14 216.388H137.862L142.445 209.427L153.015 216.388H156.178L163.635 205.06L175.214 212.684L172.771 216.395H174.493L176.41 213.477L180.841 216.395H183.464L177.203 212.273L184.826 200.693L196.404 208.317L191.087 216.395H192.809L197.608 209.11L208.682 216.395H211.305L211.19 216.316L218.813 204.736L230.391 212.36L227.733 216.395H229.455L231.587 213.152L236.516 216.395H239.139L232.38 211.949L240.003 200.369L251.582 207.993L246.048 216.402H247.77L252.778 208.786L264.35 216.402H266.972L266.353 215.999L273.976 204.419L285.554 212.043L282.68 216.41H284.402L286.751 212.835L292.176 216.41H294.799L287.543 211.632L295.166 200.052L304.202 205.997C304.072 205.32 303.913 204.642 303.733 203.965L295.959 198.849L299.36 193.682C299.115 193.192 298.87 192.702 298.61 192.197L294.756 198.063L283.177 190.439L290.8 178.859L291.686 179.443C291.153 178.513 290.62 177.584 290.079 176.661L278.81 169.239L282.305 163.928C282.017 163.482 281.729 163.042 281.448 162.61L277.607 168.447L266.028 160.823L272.881 150.403C272.592 149.978 272.304 149.545 272.009 149.106L264.825 160.03L253.246 152.406L260.869 140.826L270.899 147.427C270.251 146.44 269.581 145.424 268.903 144.386L261.662 139.623L263.737 136.467C263.449 136.027 263.168 135.595 262.88 135.155L260.459 138.837L248.88 131.213L254.457 122.739C254.154 122.314 253.859 121.896 253.556 121.485L247.677 130.428L236.098 122.804L243.721 111.224L247.684 113.833C247.425 113.516 247.165 113.206 246.906 112.903C245.782 111.584 244.6 110.331 243.382 109.127L243.31 109.235L231.732 101.611L232.632 100.242C232.236 99.9611 231.84 99.6873 231.451 99.4207L230.528 100.819L218.95 93.1947L219.173 92.856L215.786 92.8344L216.954 93.6055L209.331 105.185L197.752 97.5615L200.915 92.7552L199.193 92.748L196.549 96.7689L190.359 92.6975L187.722 92.6831L195.756 97.9723L188.133 109.552L176.554 101.928L180.099 96.5455C179.249 97.0067 178.341 97.5039 177.39 98.0443L175.351 101.136L173.802 100.112C173.348 100.379 172.894 100.653 172.426 100.934L174.558 102.339L166.935 113.919L159.888 109.278C159.478 109.581 159.067 109.884 158.656 110.194L166.143 115.122L158.519 126.702L147.604 119.518C147.251 119.857 146.897 120.203 146.544 120.549L157.727 127.906L150.104 139.486L138.525 131.862L144.83 122.285C142.783 124.418 140.852 126.63 139.101 128.936C136.587 132.229 134.151 136.762 131.817 142.058L137.732 133.065L149.311 140.689L141.688 152.269L130.578 144.962C130.39 145.409 130.21 145.863 130.023 146.324L140.888 153.48L133.265 165.06L125.21 159.756C125.058 160.232 124.9 160.7 124.749 161.176L132.473 166.263L124.85 177.843L120.642 175.069C120.505 175.559 120.375 176.042 120.245 176.532L124.064 179.047L116.744 190.165C116.405 191.556 116.074 192.932 115.757 194.287L116.852 192.623L128.431 200.247L120.807 211.827L112.961 206.667C112.853 207.179 112.745 207.683 112.637 208.18L120.015 213.037L117.824 216.381ZM142.034 207.424L130.455 199.8L138.078 188.22L149.657 195.844L142.034 207.424ZM248.008 185.568L236.429 177.944L244.052 166.364L255.631 173.988L248.008 185.568ZM256.827 174.781L268.406 182.405L260.783 193.985L249.204 186.361L256.827 174.781ZM168.477 169.866L176.093 158.286L187.672 165.91L180.049 177.49L168.477 169.866ZM179.263 178.686L171.64 190.266L160.061 182.642L167.684 171.062L179.263 178.686ZM209.655 160.333L198.076 152.709L205.699 141.129L217.278 148.753L209.655 160.333ZM218.481 149.545L230.06 157.169L222.437 168.749L210.858 161.125L218.481 149.545ZM208.869 161.536L201.246 173.116L189.668 165.492L197.291 153.912L208.869 161.536ZM188.464 164.7L176.886 157.076L184.509 145.496L196.087 153.12L188.464 164.7ZM188.875 166.696L200.454 174.319L192.831 185.899L181.252 178.276L188.875 166.696ZM201.657 175.112L213.236 182.736L205.613 194.316L194.034 186.692L201.657 175.112ZM202.45 173.909L210.073 162.329L221.651 169.953L214.028 181.533L202.45 173.909ZM222.855 170.738L234.434 178.362L226.81 189.942L215.232 182.318L222.855 170.738ZM223.647 169.535L231.27 157.955L242.849 165.579L235.226 177.159L223.647 169.535ZM243.635 164.375L232.056 156.751L239.679 145.171L251.258 152.795L243.635 164.375ZM230.853 155.959L219.274 148.335L226.897 136.755L238.476 144.379L230.853 155.959ZM226.479 134.766L214.9 127.142L222.523 115.562L234.102 123.186L226.479 134.766ZM225.694 135.969L218.07 147.549L206.492 139.925L214.115 128.345L225.694 135.969ZM205.288 139.133L193.71 131.509L201.333 119.929L212.912 127.553L205.288 139.133ZM204.496 140.336L196.873 151.916L185.294 144.292L192.917 132.712L204.496 140.336ZM184.091 143.507L172.512 135.883L180.135 124.303L191.714 131.927L184.091 143.507ZM183.298 144.71L175.675 156.29L164.096 148.666L171.719 137.086L183.298 144.71ZM174.89 157.494L167.267 169.074L155.688 161.45L163.311 149.87L174.89 157.494ZM166.474 170.277L158.851 181.857L147.272 174.233L154.895 162.653L166.474 170.277ZM158.066 183.06L150.442 194.64L138.864 187.016L146.487 175.436L158.066 183.06ZM154.816 215.84L143.237 208.216L150.86 196.636L162.439 204.26L154.816 215.84ZM163.224 203.057L151.646 195.433L159.269 183.853L170.848 191.477L163.224 203.057ZM176.007 211.466L164.428 203.842L172.051 192.262L183.63 199.886L176.007 211.466ZM184.422 198.683L172.843 191.059L180.467 179.479L192.045 187.103L184.422 198.683ZM197.204 207.099L185.625 199.476L193.249 187.896L204.827 195.519L197.204 207.099ZM209.986 215.509L198.408 207.885L206.031 196.305L217.609 203.929L209.986 215.509ZM218.402 202.725L206.823 195.101L214.446 183.521L226.025 191.145L218.402 202.725ZM231.184 211.135L219.605 203.518L227.228 191.938L238.807 199.562L231.184 211.135ZM239.592 198.351L228.014 190.727L235.637 179.147L247.216 186.771L239.592 198.351ZM252.375 206.768L240.796 199.144L248.419 187.564L259.998 195.188L252.375 206.768ZM265.157 215.177L253.578 207.553L261.201 195.973L272.78 203.597L265.157 215.177ZM273.572 202.394L261.993 194.77L269.617 183.19L281.195 190.814L273.572 202.394ZM293.97 199.23L286.347 210.81L274.768 203.187L282.391 191.607L293.97 199.23ZM278.025 170.414L289.604 178.038L281.981 189.618L270.402 181.994L278.025 170.414ZM265.243 161.997L276.822 169.621L269.199 181.201L257.62 173.577L265.243 161.997ZM264.04 161.205L256.417 172.785L244.838 165.161L252.461 153.581L264.04 161.205ZM248.087 132.388L259.666 140.012L252.043 151.592L240.464 143.968L248.087 132.388ZM246.884 131.595L239.261 143.175L227.682 135.551L235.305 123.971L246.884 131.595ZM230.939 102.779L242.518 110.403L234.895 121.983L223.316 114.359L230.939 102.779ZM218.157 94.3693L229.736 101.993L222.113 113.573L210.534 105.949L218.157 94.3693ZM209.741 107.153L221.32 114.777L213.697 126.357L202.118 118.733L209.741 107.153ZM196.959 98.7361L208.538 106.36L200.915 117.94L189.336 110.316L196.959 98.7361ZM188.544 111.519L200.122 119.143L192.499 130.723L180.92 123.099L188.544 111.519ZM175.762 103.11L187.34 110.734L179.717 122.314L168.138 114.69L175.762 103.11ZM167.353 115.894L178.932 123.517L171.309 135.097L159.73 127.474L167.353 115.894ZM158.937 128.677L170.516 136.301L162.893 147.881L151.314 140.257L158.937 128.677ZM150.529 141.46L162.108 149.084L154.485 160.664L142.906 153.04L150.529 141.46ZM142.113 154.244L153.692 161.868L146.069 173.448L134.49 165.824L142.113 154.244ZM133.705 167.027L145.284 174.651L137.66 186.231L126.082 178.607L133.705 167.027ZM117.673 191.39L125.296 179.81L136.875 187.434L129.252 199.014L117.673 191.39Z" fill="#B1B1B1"/>
<path d="M304.85 216.381C305.023 212.936 304.922 208.267 303.711 203.799C301.391 195.26 284.697 166.35 277.167 156.42C269.638 146.49 257.468 125.268 246.905 112.874C236.804 101.02 221.781 93.5189 220.484 92.8848C220.419 92.8559 220.383 92.8343 220.383 92.8343L187.729 92.6614C187.729 92.6614 155.68 107.21 139.116 128.922C126.146 145.928 115.129 195.649 110.965 216.388H304.85V216.381Z" stroke="#020046" stroke-miterlimit="10" stroke-linecap="round" stroke-linejoin="round"/>
<path d="M318.619 77.2334C318.619 77.2334 326.48 68.6367 330.363 68.7448C334.254 68.8529 334.204 72.7225 332.179 76.0228C330.155 79.3231 327.172 82.0326 323.259 83.8845C319.347 85.7437 315.233 81.4993 318.619 77.2334Z" fill="white" stroke="#020046" stroke-miterlimit="10" stroke-linecap="round" stroke-linejoin="round"/>
<path d="M285.992 124.029L304.12 131.033L317.709 94.8087L320.664 85.7941L301.887 81.6146L285.992 124.029Z" fill="white" stroke="#020046" stroke-miterlimit="10" stroke-linecap="round" stroke-linejoin="round"/>
<path d="M320.649 96.2356H309.121C306.505 96.2356 304.387 94.117 304.387 91.5012V64.4861H325.383V91.5012C325.383 94.117 323.264 96.2356 320.649 96.2356Z" fill="white" stroke="#020046" stroke-miterlimit="10" stroke-linecap="round" stroke-linejoin="round"/>
<path d="M325.383 73.7025H304.387V86.7958H325.383V73.7025Z" fill="white" stroke="#020046" stroke-miterlimit="10" stroke-linecap="round" stroke-linejoin="round"/>
<path d="M325.382 69.5158H304.386C303.414 69.5158 302.621 68.7304 302.621 67.7504V63.0953C302.621 62.1225 303.406 61.3298 304.386 61.3298H325.382C326.355 61.3298 327.148 62.1153 327.148 63.0953V67.7504C327.14 68.7304 326.355 69.5158 325.382 69.5158Z" fill="#B3FFD1" stroke="#020046" stroke-miterlimit="10" stroke-linecap="round" stroke-linejoin="round"/>
<path d="M306.273 61.3372V69.5159" stroke="#020046" stroke-miterlimit="10" stroke-linecap="round" stroke-linejoin="round"/>
<path d="M310.578 61.3372V69.5159" stroke="#020046" stroke-miterlimit="10" stroke-linecap="round" stroke-linejoin="round"/>
<path d="M314.887 61.3372V69.5159" stroke="#020046" stroke-miterlimit="10" stroke-linecap="round" stroke-linejoin="round"/>
<path d="M319.188 61.3372V69.5159" stroke="#020046" stroke-miterlimit="10" stroke-linecap="round" stroke-linejoin="round"/>
<path d="M323.496 61.3372V69.5159" stroke="#020046" stroke-miterlimit="10" stroke-linecap="round" stroke-linejoin="round"/>
<path d="M307.363 76.6714H322.408" stroke="#020046" stroke-miterlimit="10" stroke-linecap="round" stroke-linejoin="round"/>
<path d="M307.363 79.806H322.408" stroke="#020046" stroke-miterlimit="10" stroke-linecap="round" stroke-linejoin="round"/>
<path d="M307.363 82.9333H322.408" stroke="#020046" stroke-miterlimit="10" stroke-linecap="round" stroke-linejoin="round"/>
<path d="M328.099 83.8774C329.447 82.0471 330.16 79.5034 327.566 78.2207C324.021 76.4625 319.849 80.8725 318.617 82.7389C316.139 86.5004 317.299 87.9056 319.554 87.956L319.54 87.9632C319.54 87.9632 315.757 92.1066 321.132 92.3156C326.06 92.4958 332.401 87.1706 328.099 83.8774Z" fill="white"/>
<path d="M318.617 82.7316C319.849 80.8652 324.021 76.4552 327.566 78.2134C331.017 79.9212 328.625 83.8629 326.651 85.3762C322.594 88.4891 313.826 89.9952 318.617 82.7316Z" stroke="#020046" stroke-miterlimit="10" stroke-linecap="round" stroke-linejoin="round"/>
<path d="M319.539 87.9631C319.539 87.9631 315.756 92.1065 321.131 92.3155C326.053 92.5029 332.393 87.1777 328.092 83.8773" stroke="#020046" stroke-miterlimit="10" stroke-linecap="round" stroke-linejoin="round"/>
<path d="M280.352 118.358C280.352 118.358 291.498 91.9264 293.609 86.0536C295.72 80.1879 304.475 67.5991 309.612 71.7353C312.919 74.3943 305.231 86.7886 305.231 86.7886C305.231 86.7886 307.58 93.9225 307.933 99.435L295.396 126.508L280.352 118.358Z" fill="white"/>
<path d="M280.352 118.358C280.352 118.358 291.498 91.9264 293.609 86.0536C295.72 80.1879 304.475 67.5991 309.612 71.7353C312.919 74.3943 305.231 86.7886 305.231 86.7886C305.231 86.7886 307.58 93.9225 307.933 99.435" stroke="#020046" stroke-miterlimit="10" stroke-linecap="round" stroke-linejoin="round"/>
<path d="M281.541 106.836L262.217 142.224L265.402 136.027C246.063 118.783 224.793 106.771 224.793 106.771L262.635 207.539C262.635 207.539 286.088 213.275 297.71 190.043C309.332 166.811 314.88 122.256 314.88 122.256L281.541 106.836Z" fill="#3458FF"/>
<path d="M314.885 122.256L281.539 106.836L262.215 142.224" stroke="#020046" stroke-miterlimit="10" stroke-linecap="round" stroke-linejoin="round"/>
<path d="M265.402 136.027C246.063 118.783 224.793 106.771 224.793 106.771" stroke="#020046" stroke-miterlimit="10" stroke-linecap="round" stroke-linejoin="round"/>
<path d="M275.445 118.005L312.855 135.652C314.217 127.654 314.887 122.264 314.887 122.264L281.541 106.836L275.445 118.005Z" fill="#3458FF" stroke="#020046" stroke-miterlimit="10" stroke-linecap="round" stroke-linejoin="round"/>
<path d="M280.312 120.304L285.99 108.896" stroke="#020046" stroke-miterlimit="10" stroke-linecap="round" stroke-linejoin="round"/>
<path d="M292.001 111.851L286.863 123.316" stroke="#020046" stroke-miterlimit="10" stroke-linecap="round" stroke-linejoin="round"/>
<path d="M299.199 115.166L294.242 126.796" stroke="#020046" stroke-miterlimit="10" stroke-linecap="round" stroke-linejoin="round"/>
<path d="M305.871 118.358L301.887 130.435" stroke="#020046" stroke-miterlimit="10" stroke-linecap="round" stroke-linejoin="round"/>
<path d="M311.936 121.103L308.398 133.548" stroke="#020046" stroke-miterlimit="10" stroke-linecap="round" stroke-linejoin="round"/>
<path d="M278.824 128.087L273.832 131.855L277.6 136.848L282.592 133.08L278.824 128.087Z" fill="white"/>
<path d="M286.371 146.299L281.379 150.067L285.146 155.059L290.138 151.292L286.371 146.299Z" fill="white"/>
<path d="M253.82 129.164L248.828 132.931L252.596 137.924L257.588 134.156L253.82 129.164Z" fill="white"/>
<path d="M303.941 138.122L298.949 141.889L302.717 146.882L307.709 143.114L303.941 138.122Z" fill="white"/>
<path d="M262.668 150.811L257.676 154.579L261.443 159.572L266.435 155.804L262.668 150.811Z" fill="white"/>
<path d="M271.383 166.972L266.391 170.74L270.158 175.733L275.15 171.965L271.383 166.972Z" fill="white"/>
<path d="M280.265 183.091L275.273 186.859L279.041 191.851L284.033 188.084L280.265 183.091Z" fill="white"/>
<path d="M259.812 182.232L254.82 186L258.588 190.992L263.58 187.225L259.812 182.232Z" fill="white"/>
<path d="M245.988 147.211L240.996 150.979L244.764 155.971L249.756 152.203L245.988 147.211Z" fill="white"/>
<path d="M293.32 169.413L288.328 173.181L292.096 178.173L297.088 174.406L293.32 169.413Z" fill="white"/>
<path d="M307.708 156.42L302.715 160.189L306.483 165.182L306.555 165.132C307.24 162.566 307.881 159.987 308.479 157.443L307.708 156.42Z" fill="white"/>
<path d="M298.212 189.02L297.052 187.478L292.059 191.246L294.825 194.914C295.849 193.451 296.814 191.837 297.707 190.043C297.88 189.711 298.046 189.366 298.212 189.02Z" fill="white"/>
<path d="M281.539 205.118L277.771 200.124L272.777 203.893L275.544 207.553C276.92 207.287 278.347 206.919 279.802 206.422L281.539 205.118Z" fill="white"/>
<path d="M128.868 209.658L131.159 216.381H270.522C269.11 200.384 264.167 162.185 253.208 135.119C241.557 106.331 219.668 98.5128 219.668 98.5128L169.426 100.105C147.176 112.687 120.805 159.98 128.205 206.163C128.392 207.359 128.615 208.526 128.868 209.658Z" fill="#3458FF"/>
<path d="M212.219 113.971L207.227 117.739L210.994 122.732L215.986 118.964L212.219 113.971Z" fill="white"/>
<path d="M229.937 125.93L224.945 129.698L228.713 134.69L233.705 130.922L229.937 125.93Z" fill="white"/>
<path d="M200.719 132.809L195.727 136.577L199.494 141.569L204.486 137.801L200.719 132.809Z" fill="white"/>
<path d="M217.445 148.756L212.453 152.524L216.221 157.517L221.213 153.749L217.445 148.756Z" fill="white"/>
<path d="M137.789 175.589L132.797 179.357L136.564 184.349L141.556 180.582L137.789 175.589Z" fill="white"/>
<path d="M147.515 147.984L142.523 151.752L146.291 156.745L151.283 152.977L147.515 147.984Z" fill="white"/>
<path d="M160.953 117.256L155.961 121.024L159.728 126.016L164.72 122.249L160.953 117.256Z" fill="white"/>
<path d="M249.289 144.377L244.297 148.145L248.064 153.138L253.056 149.37L249.289 144.377Z" fill="white"/>
<path d="M236.152 163.311L231.16 167.079L234.928 172.072L239.92 168.304L236.152 163.311Z" fill="white"/>
<path d="M201.68 165.173L196.688 168.941L200.455 173.933L205.447 170.165L201.68 165.173Z" fill="white"/>
<path d="M217.445 182.019L212.453 185.787L216.221 190.779L221.213 187.012L217.445 182.019Z" fill="white"/>
<path d="M236.148 196.171L231.156 199.939L234.924 204.931L239.916 201.164L236.148 196.171Z" fill="white"/>
<path d="M197.562 198.089L192.57 201.857L196.338 206.85L201.33 203.082L197.562 198.089Z" fill="white"/>
<path d="M236.925 110.345C235.297 108.745 233.697 107.333 232.17 106.101L229.273 108.284L233.042 113.278L236.925 110.345Z" fill="white"/>
<path d="M264.68 175.948C264.24 173.707 263.765 171.444 263.267 169.174L258.793 172.554L262.561 177.548L264.68 175.948Z" fill="white"/>
<path d="M127.306 198.726L132.241 195.001L128.473 190.007L126.945 191.16C126.967 193.682 127.089 196.204 127.306 198.726Z" fill="white"/>
<path d="M134.437 161.925L131.446 157.962C130.747 160.47 130.113 163.021 129.559 165.607L134.437 161.925Z" fill="white"/>
<path d="M142.65 136.243L147.643 132.474L144.156 127.855C143.025 129.794 141.922 131.804 140.863 133.872L142.65 136.243Z" fill="white"/>
<path d="M215.815 216.345L218.106 214.615L214.345 209.621L209.352 213.39L211.6 216.366L215.815 216.345Z" fill="white"/>
<path d="M270.442 215.502C268.929 199.021 263.972 161.695 253.207 135.112C241.557 106.324 219.667 98.5055 219.667 98.5055L199.219 99.154" stroke="#020046" stroke-miterlimit="10" stroke-linecap="round" stroke-linejoin="round"/>
<path d="M219.753 43.3294L209.724 43.4519C203.052 43.5312 197.669 49.8148 197.763 57.4099L197.95 72.9603C197.957 73.3999 197.986 73.8322 198.022 74.2574C197.921 74.7186 197.864 75.1942 197.871 75.6842L197.986 85.1528L197.993 85.6788L198.109 95.1475C198.152 98.5847 200.998 101.359 204.428 101.316L208.405 101.265C211.842 101.222 214.616 98.3758 214.573 94.9457L214.472 86.5652L220.272 86.4931C226.944 86.4139 232.326 80.1303 232.233 72.5352L232.045 56.9847C231.959 49.3968 226.425 43.2429 219.753 43.3294Z" fill="white" stroke="#020046" stroke-miterlimit="10" stroke-linecap="round" stroke-linejoin="round"/>
<path d="M198.002 70.7481C198.074 70.2077 197.707 67.4982 198.427 67.5054C200.387 67.527 201.806 66.72 203.291 65.2211C204.465 64.0321 205.171 62.5549 205.424 61.0201C206.439 60.6381 207.405 60.0545 208.219 59.2258C209.905 57.518 210.611 55.2337 210.402 53.0214C210.921 52.7044 211.418 52.3369 211.865 51.8901C212.232 51.5154 212.557 51.1191 212.83 50.6939C215.756 53.0719 219.971 52.9998 222.817 50.4993C223.019 50.7516 223.206 51.0182 223.437 51.256C226.492 54.2753 231.413 54.2536 234.432 51.1983C235.664 49.9517 236.363 48.388 236.586 46.7739C237.559 46.3919 238.474 45.8155 239.252 45.0228C242.271 41.9675 242.249 37.0458 239.194 34.0265C238.784 33.6158 238.33 33.2699 237.854 32.9744C237.847 30.9856 237.076 28.9968 235.548 27.4835C234.043 25.9919 232.083 25.2497 230.116 25.2424C229.734 24.3489 229.179 23.5058 228.444 22.778C225.879 20.2415 222.01 19.8812 219.041 21.625C218.659 20.6018 218.076 19.629 217.247 18.8075C214.192 15.7882 209.271 15.8098 206.252 18.858C205.56 19.5497 205.056 20.3496 204.681 21.1999C204.566 21.063 204.472 20.9189 204.343 20.7892C201.598 18.0725 197.166 18.0941 194.45 20.8396C193.802 21.4953 193.319 22.2448 192.98 23.0446C190.134 21.834 186.726 22.3889 184.413 24.7164C183.03 26.1144 182.316 27.9014 182.208 29.7246C180.609 29.6885 179.002 30.2722 177.784 31.4972C175.904 33.3996 175.572 36.2315 176.732 38.487C175.19 38.7752 173.713 39.5102 172.525 40.7064C169.426 43.8338 169.455 48.8852 172.582 51.9766C173.627 53.0142 174.895 53.6628 176.221 54.0014C174.117 56.6388 174.268 60.4796 176.718 62.908C177.892 64.0682 179.384 64.6735 180.911 64.796C178.505 67.7648 178.663 72.11 181.437 74.8555C183.959 77.356 187.8 77.6802 190.689 75.886C190.408 77.7739 190.977 79.77 192.44 81.2112C193.967 82.7244 196.086 83.2793 198.045 82.8757L198.002 70.7481Z" fill="white" stroke="#020046" stroke-miterlimit="10" stroke-linecap="round" stroke-linejoin="round"/>
<path d="M220 104.515L194.472 104.335C191.374 104.313 188.881 101.784 188.902 98.6856L188.931 94.4557C188.953 91.3571 191.482 88.8639 194.58 88.8927L220.108 89.0729C223.206 89.0945 225.699 91.6238 225.671 94.7223L225.642 98.9522C225.62 102.044 223.091 104.537 220 104.515Z" fill="#3458FF" stroke="#020046" stroke-miterlimit="10"/>
<path d="M191.223 89.9808V103.182" stroke="#020046" stroke-miterlimit="10" stroke-linecap="round" stroke-linejoin="round"/>
<path d="M194.969 88.8999V104.335" stroke="#020046" stroke-miterlimit="10" stroke-linecap="round" stroke-linejoin="round"/>
<path d="M199.184 89.0297V104.371" stroke="#020046" stroke-miterlimit="10" stroke-linecap="round" stroke-linejoin="round"/>
<path d="M203.289 88.9575V104.4" stroke="#020046" stroke-miterlimit="10" stroke-linecap="round" stroke-linejoin="round"/>
<path d="M208.695 88.9937V104.198" stroke="#020046" stroke-miterlimit="10" stroke-linecap="round" stroke-linejoin="round"/>
<path d="M213.625 89.0297V104.371" stroke="#020046" stroke-miterlimit="10" stroke-linecap="round" stroke-linejoin="round"/>
<path d="M218.629 89.0657V104.508" stroke="#020046" stroke-miterlimit="10" stroke-linecap="round" stroke-linejoin="round"/>
<path d="M222.414 89.6782V103.824" stroke="#020046" stroke-miterlimit="10" stroke-linecap="round" stroke-linejoin="round"/>
<path d="M212.039 62.317C212.054 63.5637 213.077 64.5653 214.33 64.5509C215.577 64.5365 216.578 63.5132 216.564 62.2594C216.55 61.0128 215.527 60.0111 214.273 60.0255C213.026 60.04 212.025 61.0632 212.039 62.317Z" fill="#020046"/>
<path d="M226.836 61.8055C226.851 62.872 227.722 63.7223 228.789 63.7151C229.855 63.7007 230.705 62.8288 230.698 61.7623C230.684 60.6958 229.812 59.8455 228.746 59.8527C227.679 59.8599 226.822 60.739 226.836 61.8055Z" fill="#020046"/>
<path d="M224.79 71.0796C224.79 71.0796 223.695 74.4015 221.295 74.6609C218.896 74.9203 216.979 72.2758 216.828 70.2004L224.79 71.0796Z" fill="white" stroke="#020046" stroke-miterlimit="10" stroke-linecap="round" stroke-linejoin="round"/>
<path d="M221.074 67.6567L224.727 65.3724L221.442 59.9463" stroke="#020046" stroke-miterlimit="10" stroke-linecap="round" stroke-linejoin="round"/>
<path d="M210.105 58.289L214.234 56.783" stroke="#020046" stroke-miterlimit="10" stroke-linecap="round" stroke-linejoin="round"/>
<path d="M226.887 57.3522L230.641 57.309" stroke="#020046" stroke-miterlimit="10" stroke-linecap="round" stroke-linejoin="round"/>
<path d="M219.669 61.3659C219.669 66.2443 216.145 70.2004 211.793 70.2004C207.441 70.2004 203.918 66.2443 203.918 61.3659C203.918 56.4874 207.441 52.5314 211.793 52.5314C216.138 52.5314 219.669 56.4874 219.669 61.3659Z" stroke="#3458FF" stroke-miterlimit="10" stroke-linecap="round" stroke-linejoin="round"/>
<path d="M237.637 60.7534C237.637 65.1274 234.762 68.6799 231.217 68.6799C227.672 68.6799 224.797 65.1346 224.797 60.7534C224.797 56.3793 227.672 52.834 231.217 52.834C234.762 52.8268 237.637 56.3793 237.637 60.7534Z" stroke="#3458FF" stroke-miterlimit="10" stroke-linecap="round" stroke-linejoin="round"/>
<path d="M219.438 63.8736C220.295 63.4268 221.368 63.0449 222.874 63.0449C223.753 63.0449 224.438 63.153 225.144 63.3548" stroke="#3458FF" stroke-miterlimit="10" stroke-linecap="round" stroke-linejoin="round"/>
<path d="M203.912 62.2883L198.465 65.8913" stroke="#3458FF" stroke-miterlimit="10" stroke-linecap="round" stroke-linejoin="round"/>
<path d="M185.262 68.3341C185.313 72.7081 188.937 76.2102 193.347 76.1598C197.756 76.1094 201.287 72.5136 201.236 68.1396C201.186 63.7655 197.562 60.2635 193.152 60.3139C188.743 60.3715 185.205 63.9601 185.262 68.3341Z" fill="white"/>
<path d="M197.579 69.2348C197.579 69.2348 197.867 63.852 192.348 64.5149" stroke="#020046" stroke-miterlimit="10" stroke-linecap="round" stroke-linejoin="round"/>
<path d="M201.236 68.1396C201.208 65.9129 200.264 63.9169 198.758 62.4973" stroke="#020046" stroke-miterlimit="10" stroke-linecap="round" stroke-linejoin="round"/>
<path d="M198.758 62.4972C197.302 61.1209 195.321 60.285 193.152 60.3138C188.742 60.3643 185.212 63.96 185.262 68.3341C185.313 72.7081 188.937 76.2102 193.346 76.1597C194.708 76.1453 195.984 75.7922 197.1 75.1797C197.511 74.9563 198.57 74.2357 198.895 73.8971" stroke="#020046" stroke-miterlimit="10" stroke-linecap="round" stroke-linejoin="round"/>
<path d="M124.229 216.381C130.426 197.66 140.326 168.252 145.578 155.202C153.59 135.292 169.319 120.7 173.794 118.365C178.268 116.03 201.073 90.9248 201.073 90.9248L201.75 85.0736C201.75 85.0736 166.358 83.2721 132.811 124.577C107.873 155.281 96.7414 194.554 92.375 216.388H124.229V216.381Z" fill="white"/>
<path d="M201.743 85.0663C201.743 85.0663 201.03 85.0303 199.719 85.0879L201.599 86.3201L201.743 85.0663Z" fill="#B1B1B1"/>
<path d="M201.063 90.9175L201.423 87.819L195.184 97.2948C198.62 93.6054 201.063 90.9175 201.063 90.9175Z" fill="#B1B1B1"/>
<path d="M98.507 216.381H100.229L106.462 206.905L118.04 214.529L116.823 216.381H118.545L119.244 215.321L120.85 216.381H123.473L120.036 214.118L127.659 202.538L128.625 203.172C128.783 202.704 128.942 202.235 129.1 201.76L128.452 201.335L130.073 198.87C130.671 197.09 131.283 195.282 131.896 193.473L127.241 200.542L115.663 192.918L123.286 181.338L133.697 188.191C133.856 187.723 134.021 187.254 134.18 186.786L124.078 180.142L131.701 168.562L138.878 173.282C139.043 172.813 139.209 172.345 139.375 171.884L132.494 167.358L140.117 155.778L144.274 158.517C144.455 158.048 144.635 157.587 144.808 157.14L140.91 154.575L148.526 142.988L150.824 144.501C151.069 144.083 151.314 143.672 151.559 143.262L149.311 141.784L156.934 130.205L159.549 131.927C159.859 131.545 160.169 131.177 160.472 130.81L157.719 129.001L165.342 117.421L170.408 120.75C170.826 120.404 171.222 120.087 171.597 119.806L166.142 116.218L173.765 104.638L182.599 110.453C182.938 110.107 183.283 109.761 183.636 109.408L174.558 103.434L182.181 91.8544L193.385 99.2333C193.724 98.873 194.055 98.5127 194.387 98.1668L182.974 90.6582L184.926 87.6893C184.227 87.8911 183.507 88.1145 182.772 88.3451L181.77 89.8655L180.574 89.0801C180.019 89.2746 179.457 89.4764 178.881 89.6926L180.971 91.0689L173.347 102.649L164.327 96.7112C163.873 96.9778 163.419 97.2589 162.958 97.5399L172.555 103.86L164.932 115.439L153.353 107.816L157.957 100.811C156.862 101.575 155.767 102.368 154.657 103.211L152.15 107.023L150.889 106.194C150.507 106.511 150.118 106.828 149.736 107.16L151.357 108.226L143.734 119.806L139.433 116.974C139.101 117.327 138.77 117.688 138.438 118.048L142.941 121.01L135.318 132.59L129.511 128.771C129.223 129.152 128.935 129.542 128.646 129.931L134.526 133.8L126.903 145.38L120.886 141.417C120.634 141.828 120.382 142.238 120.13 142.649L126.11 146.584L118.487 158.164L113.379 154.798C113.155 155.231 112.939 155.663 112.723 156.096L117.694 159.367L110.093 170.933L106.894 168.828C106.706 169.282 106.512 169.729 106.325 170.183L109.3 172.143L101.677 183.723L101.303 183.478C101.137 183.947 100.978 184.422 100.82 184.883L100.885 184.927L100.719 185.179C100.128 186.93 99.5661 188.659 99.033 190.36L102.088 185.719L113.667 193.343L106.044 204.923L96.576 198.69C96.4391 199.18 96.3094 199.67 96.1797 200.153L105.251 206.127L98.507 216.381ZM152.568 109.005L164.146 116.628L156.523 128.208L144.945 120.585L152.568 109.005ZM144.159 121.795L155.738 129.419L148.115 140.999L136.536 133.375L144.159 121.795ZM135.743 134.579L147.322 142.202L139.699 153.782L128.12 146.159L135.743 134.579ZM127.335 147.362L138.914 154.986L131.291 166.566L119.712 158.942L127.335 147.362ZM118.919 160.145L130.498 167.769L122.875 179.349L111.296 171.725L118.919 160.145ZM102.888 184.509L110.511 172.929L122.09 180.553L114.467 192.133L102.888 184.509ZM114.877 194.121L126.456 201.745L118.833 213.325L107.254 205.701L114.877 194.121Z" fill="#B1B1B1"/>
<path d="M95.6444 216.381L92.7551 214.478C92.6471 214.997 92.5462 215.502 92.4453 215.999L93.0289 216.381H95.6444Z" fill="#B1B1B1"/>
<path d="M124.229 216.381C130.426 197.66 140.326 168.252 145.578 155.202C153.59 135.292 169.319 120.7 173.794 118.365C178.268 116.03 201.073 90.9248 201.073 90.9248L201.75 85.0736C201.75 85.0736 166.358 83.2721 132.811 124.577C107.873 155.281 96.7414 194.554 92.375 216.388H124.229V216.381Z" stroke="#020046" stroke-miterlimit="10" stroke-linecap="round" stroke-linejoin="round"/>
<path fill-rule="evenodd" clip-rule="evenodd" d="M466.628 62.9596C466.72 62.8764 467.406 62.8158 468.41 63.0272C467.038 63.1484 466.536 63.0427 466.628 62.9596Z" fill="#F0F0F0"/>
<path d="M808.688 168.384C826.19 168.384 840.377 154.195 840.377 136.692C840.377 119.189 826.19 105 808.688 105C791.187 105 777 119.189 777 136.692C777 154.195 791.187 168.384 808.688 168.384Z" fill="#F0F0F0"/>
<path d="M688.17 76.0907C684.646 76.0907 681.512 77.7625 679.502 80.3422C678.284 79.881 676.973 79.6144 675.597 79.6144C672.491 79.6144 669.696 80.9043 667.7 82.9724C665.689 80.7602 662.8 79.3622 659.572 79.3622C657.094 79.3622 654.81 80.1981 652.972 81.5816C651.07 78.3029 647.532 76.0907 643.469 76.0907C641.257 76.0907 639.21 76.7464 637.481 77.8706C637.344 77.9282 637.207 77.9787 637.07 78.0435C634.347 79.3406 632.301 81.6249 631.299 84.464C629.944 88.2904 630.766 92.5707 633.432 95.6405C633.518 95.7414 633.641 95.7918 633.756 95.7918C633.857 95.7918 633.958 95.7558 634.044 95.6837C634.224 95.5252 634.246 95.2514 634.087 95.0712C631.623 92.2393 630.874 88.2904 632.12 84.7523C632.567 83.484 633.244 82.3455 634.102 81.3655C633.086 83.03 632.488 84.9756 632.488 87.0726C632.488 93.14 637.402 98.0545 643.469 98.0545C645.947 98.0545 648.231 97.2186 650.069 95.835C651.971 99.1138 655.509 101.326 659.572 101.326C662.678 101.326 665.473 100.036 667.469 97.968C669.479 100.18 672.369 101.578 675.597 101.578C679.12 101.578 682.254 99.9064 684.265 97.3267C685.482 97.7879 686.794 98.0545 688.17 98.0545C694.237 98.0545 699.15 93.14 699.15 87.0726C699.15 81.0052 694.237 76.0907 688.17 76.0907Z" fill="#020046"/>
<path d="M645.22 73.9217C645.22 73.9217 639.91 68.6974 639.91 58.1911C639.91 47.6776 649.983 39.4484 655.726 41.7255C655.726 41.7255 662.282 38.0432 672.492 38.2594C682.702 38.4756 692.955 47.1588 691.154 59.6035C689.352 72.0482 687.486 76.0979 687.486 76.0979L645.22 73.9217Z" fill="#020046"/>
<path d="M709.239 123.102C694.173 110.593 681.744 106.276 681.744 106.276L664.148 228.655H709.231V123.102H709.239Z" fill="white" stroke="#020046" stroke-miterlimit="10" stroke-linecap="round"/>
<path d="M611.492 141.341V230.219H717.654V155.299C717.654 155.299 699.806 113.115 684.675 111.349C677.067 110.463 666.432 102.89 651.928 105.628C637.791 108.294 620.102 121.805 611.492 141.341Z" fill="white"/>
<path d="M717.652 230.219V177.435" stroke="#020046" stroke-miterlimit="10" stroke-linecap="round"/>
<path d="M707.55 161.409H688.406V166.843H707.55V161.409Z" stroke="#020046" stroke-miterlimit="10" stroke-linecap="round"/>
<path d="M668.811 108.95H665.057C660.438 108.95 656.691 105.203 656.691 100.584V92.1023C656.691 87.4833 660.438 83.7362 665.057 83.7362H668.811C673.429 83.7362 677.176 87.4833 677.176 92.1023V100.584C677.176 105.203 673.429 108.95 668.811 108.95Z" fill="white" stroke="#020046" stroke-miterlimit="10"/>
<path d="M674.495 104.626L666.152 107.257L658.413 104.396C654.018 104.922 647.944 106.507 643.988 108.128L666.108 182.249L686.881 108.835C683.12 107.177 678.681 105.282 674.495 104.626Z" fill="#3458FF"/>
<path d="M682.434 106.003L679.299 100.137L666.582 107.019L654.73 99.856L649.391 106.276L663.506 116.732L666.582 107.256L669.659 116.732L682.434 106.003Z" fill="#3458FF"/>
<path d="M649.602 106.428L663.508 116.732L665.914 109.317L666.584 107.257L669.661 116.732L682.609 105.959" stroke="#020046" stroke-miterlimit="10" stroke-linecap="round" stroke-linejoin="round"/>
<path d="M666.582 107.256V180.88" stroke="#020046" stroke-miterlimit="10" stroke-linecap="round" stroke-linejoin="round"/>
<path d="M666.65 191.509L666.434 176.297L644.4 109.317L637.793 131.209L649.494 131.663L641.648 138.703L666.65 191.509Z" fill="white"/>
<path d="M644.335 109.534L637.793 131.454H649.725L641.648 138.703L666.65 190.471" stroke="#020046" stroke-miterlimit="10" stroke-linecap="round" stroke-linejoin="round"/>
<path d="M666.65 191.509L666.434 176.297L686.846 109.317L693.453 131.209L681.752 131.663L689.598 138.703L666.65 191.509Z" fill="white"/>
<path d="M686.909 109.534L693.452 131.454H681.52L689.597 138.703L666.648 190.471" stroke="#020046" stroke-miterlimit="10" stroke-linecap="round" stroke-linejoin="round"/>
<path d="M666.668 174.431L666.582 211.224" stroke="#020046" stroke-miterlimit="10" stroke-linecap="round" stroke-linejoin="round"/>
<path d="M655.654 205.142C655.654 205.142 670.281 204.933 674.51 203.881C678.733 202.829 690.275 200.869 693.273 201.467C696.861 202.181 701.292 205.971 698.403 207.174C695.506 208.378 679.064 210.424 679.064 210.424L654.206 209.848L653.176 206.865L655.654 205.142Z" fill="white"/>
<path d="M655.654 205.142C655.654 205.142 670.281 204.933 674.51 203.881C678.733 202.829 690.275 200.869 693.273 201.467C696.861 202.181 701.292 205.971 698.403 207.174C695.506 208.378 679.064 210.424 679.064 210.424L654.206 209.848L653.176 206.865L655.654 205.142Z" stroke="#020046" stroke-miterlimit="10" stroke-linecap="round" stroke-linejoin="round"/>
<path d="M707.935 223.719L706.919 224.49C706.169 225.06 705.096 224.908 704.534 224.159L675.533 185.751C674.963 185.002 675.115 183.928 675.864 183.366L676.88 182.595C677.629 182.026 678.703 182.177 679.265 182.926L708.266 221.334C708.835 222.084 708.684 223.15 707.935 223.719Z" fill="#020046"/>
<path d="M704.117 223.546C704.117 223.546 709.932 228.972 710.861 228.648C711.784 228.317 707.785 220.686 707.785 220.686L704.117 223.546Z" fill="#020046"/>
<path d="M653.169 206.857C653.695 206.49 666.246 206.605 666.246 206.605C666.246 206.605 678.027 203.096 688.381 204.559C699.253 206.093 699.657 206.072 700.918 207.023C701.321 207.333 702.395 207.672 703.223 208.471C704.96 210.143 706.127 212.471 701.299 211.246C701.299 211.246 705.507 211.556 706.732 213.213C707.957 214.87 707.251 218.682 704.736 218.387C704.736 218.387 706.912 220.066 706.141 222.631C705.601 224.433 702.69 225.542 699.556 224.649C699.556 224.649 704.282 227.221 700.334 230.14C699.714 230.601 695.809 230.262 690.708 230.255C679.273 230.241 661.822 229.909 661.822 229.909L651.23 228.057L653.169 206.857Z" fill="white"/>
<path d="M683.234 204.018C683.234 204.018 691.42 204.796 695.966 205.618C701.694 206.641 704.828 208.58 704.655 211.909" stroke="#020046" stroke-miterlimit="10" stroke-linecap="round" stroke-linejoin="round"/>
<path d="M686.879 209.358C686.879 209.358 704.121 210.532 706.355 212.802C708.588 215.065 706.794 217.746 704.669 218.61" stroke="#020046" stroke-miterlimit="10" stroke-linecap="round" stroke-linejoin="round"/>
<path d="M685.578 215.598C685.578 215.598 703.029 216.751 705.659 219.619C707.662 221.802 705.14 225.168 702.719 224.944" stroke="#020046" stroke-miterlimit="10" stroke-linecap="round" stroke-linejoin="round"/>
<path d="M686.692 223.222C686.692 223.222 701.073 223.518 703.357 225.276C705.649 227.034 703.682 229.736 699.322 229.909L654.16 230.241" stroke="#020046" stroke-miterlimit="10" stroke-linecap="round" stroke-linejoin="round"/>
<path d="M607.251 181.636L617.857 183.87L625.761 165.553L634.825 117.993L643.983 108.114C643.983 108.114 614.852 113.778 584.345 159.947C574.64 174.632 569.445 186.587 566.707 195.515C560.799 214.755 567.954 221.918 577.767 225.975C592.141 231.912 661.816 229.873 661.816 229.873L663.92 193.57L607.251 181.636Z" fill="white"/>
<path d="M650.164 230.111C657.225 230.01 661.822 229.88 661.822 229.88L663.926 193.577L652.556 191.184L650.164 230.111Z" fill="white" stroke="#020046" stroke-miterlimit="10"/>
<path d="M649.391 106.276C649.391 106.276 614.223 112.149 584.35 159.961C554.916 207.066 563.397 220.044 577.771 225.989C592.146 231.927 661.82 229.888 661.82 229.888L663.924 193.584L607.248 181.644" stroke="#020046" stroke-miterlimit="10" stroke-linecap="round"/>
<path d="M617.855 183.878L625.767 165.56" stroke="#020046" stroke-miterlimit="10" stroke-linecap="round"/>
<path d="M692.991 61.0591C692.991 61.0591 701.904 68.4956 706.083 73.1363C710.255 77.7769 723.548 107.775 723.548 107.775L702.905 118.181L695.736 102.803C695.736 102.803 681.751 94.2353 684.734 78.1444L692.991 61.0591Z" fill="white" stroke="#020046" stroke-miterlimit="10" stroke-linecap="round"/>
<path d="M702.797 93.2553L691.816 97.7374C689.669 98.6166 687.227 97.5861 686.347 95.4387L674.603 66.6725C673.724 64.5251 674.754 62.0823 676.901 61.2032L687.882 56.7211C690.029 55.842 692.472 56.8724 693.351 59.0198L705.095 87.786C705.967 89.9334 704.937 92.3762 702.797 93.2553Z" fill="#020046"/>
<path d="M694.949 89.2921L690.158 91.2521C688.781 91.8141 687.211 91.1512 686.649 89.7821L677.325 66.9608C676.763 65.5844 677.426 64.0135 678.795 63.4515L683.586 61.4914C684.963 60.9294 686.533 61.5923 687.095 62.9615L696.419 85.7828C696.981 87.1591 696.325 88.73 694.949 89.2921Z" fill="white"/>
<path d="M689.008 59.8197L701.653 91.2953" stroke="white" stroke-width="0.75" stroke-miterlimit="10" stroke-linecap="round" stroke-linejoin="round"/>
<path d="M730.371 101.103L695.332 119.168L718.014 185.549L718.079 207.369C738.052 211.441 756.973 215.238 769.02 195.544C782.515 173.465 730.371 101.103 730.371 101.103Z" fill="white"/>
<path d="M717.654 207.283C737.778 211.383 756.886 215.382 769.012 195.544C782.515 173.465 730.371 101.095 730.371 101.095L695.332 119.161L723.483 201.345" stroke="#020046" stroke-miterlimit="10" stroke-linecap="round"/>
<path d="M699.066 130.063L736.915 110.903" stroke="#020046" stroke-miterlimit="10" stroke-linecap="round"/>
<path d="M702.41 122.483C702.41 123.405 701.66 124.154 700.738 124.154C699.816 124.154 699.066 123.405 699.066 122.483C699.066 121.56 699.816 120.811 700.738 120.811C701.66 120.811 702.41 121.56 702.41 122.483Z" stroke="#020046" stroke-miterlimit="10" stroke-linecap="round"/>
<path d="M683.949 78.8938C683.863 87.2599 676.953 94.0407 668.581 93.9542L663.638 93.9038C655.273 93.8173 648.492 86.9068 648.579 78.5335L648.745 62.1183C648.831 53.7522 655.741 46.9714 664.113 47.0578L669.056 47.1083C677.421 47.1947 684.201 54.1053 684.115 62.4786L683.949 78.8938Z" fill="white" stroke="#020046" stroke-miterlimit="10"/>
<path d="M685.634 49.8466C682.543 44.4853 667.001 38.4179 656.438 45.2419L657.022 46.467C655.977 45.7247 654.788 45.4005 653.462 45.84C647.936 47.6848 643.714 54.8331 647.179 63.9342C647.179 63.9342 657.93 62.947 661.345 57.2255C661.921 58.4937 662.808 59.9133 664.184 61.2464C664.256 61.3184 664.349 61.3545 664.443 61.3545C664.544 61.3545 664.638 61.3184 664.71 61.2392C664.854 61.0879 664.854 60.8573 664.703 60.7131C663.204 59.2503 662.318 57.6722 661.792 56.3391C661.835 56.2382 661.878 56.1446 661.921 56.0437C663.103 58.1983 665.135 60.4681 668.644 61.8445C668.687 61.8589 668.737 61.8733 668.781 61.8733C668.932 61.8733 669.069 61.7796 669.127 61.6355C669.199 61.4409 669.105 61.2248 668.918 61.1527C666.266 60.115 664.522 58.5369 663.355 56.9084C666.475 59.0414 673.089 62.2985 684.639 62.5867C684.625 62.5795 688.717 55.2078 685.634 49.8466Z" fill="#020046"/>
<path d="M649.825 72.1347C648.866 70.5998 647.18 69.5621 645.228 69.4973C642.137 69.4036 639.557 71.8104 639.464 74.8801C639.37 77.9427 641.798 80.508 644.889 80.6017C646.712 80.6593 648.362 79.8378 649.421 78.5336" fill="white"/>
<path d="M649.825 72.1347C648.866 70.5998 647.18 69.5621 645.228 69.4973C642.137 69.4036 639.557 71.8104 639.464 74.8801C639.37 77.9427 641.798 80.508 644.889 80.6017C646.712 80.6593 648.362 79.8378 649.421 78.5336" stroke="#020046" stroke-miterlimit="10" stroke-linecap="round" stroke-linejoin="round"/>
<path d="M647.95 76.1339C648.008 75.8961 648.044 75.6511 648.051 75.3989C648.109 73.5614 646.646 72.0193 644.794 71.9616C644.34 71.9472 643.908 72.0265 643.512 72.1706" stroke="#020046" stroke-miterlimit="10" stroke-linecap="round" stroke-linejoin="round"/>
<path d="M676.455 70.0522C676.505 71.1835 677.456 72.0626 678.587 72.0122C679.719 71.9617 680.598 71.0105 680.547 69.8792C680.497 68.7479 679.546 67.8687 678.414 67.9192C677.283 67.9696 676.411 68.9208 676.455 70.0522Z" fill="#020046"/>
<path d="M654.776 70.0522C654.826 71.1835 655.777 72.0626 656.908 72.0122C658.039 71.9617 658.918 71.0105 658.868 69.8792C658.818 68.7479 657.867 67.8687 656.735 67.9192C655.604 67.9696 654.725 68.9208 654.776 70.0522Z" fill="#020046"/>
<path d="M658.867 65.5051C658.867 65.5051 655.964 64.8566 653.773 66.4563" stroke="#020046" stroke-miterlimit="10" stroke-linecap="round" stroke-linejoin="round"/>
<path d="M676.484 65.5051C676.484 65.5051 679.388 64.8566 681.578 66.4563" stroke="#020046" stroke-miterlimit="10" stroke-linecap="round" stroke-linejoin="round"/>
<path d="M667.18 66.8887L668.96 74.9738H665.984" stroke="#020046" stroke-miterlimit="10" stroke-linecap="round" stroke-linejoin="round"/>
<path d="M671.273 80.8251C671.273 82.7419 669.378 84.2911 667.05 84.2911C664.716 84.2911 662.828 82.7419 662.828 80.8251" stroke="#020046" stroke-miterlimit="10" stroke-linecap="round" stroke-linejoin="round"/>
<path d="M326.383 216.381H598.848" stroke="#020046" stroke-miterlimit="10" stroke-linecap="round"/>
<path d="M650.4 236.358L629.98 267.971H717.163L737.583 236.358H650.4Z" fill="white" stroke="#020046" stroke-miterlimit="10" stroke-linecap="round"/>
<path d="M646.076 234.917L625.656 266.53H712.839L733.259 234.917H646.076Z" fill="white" stroke="#020046" stroke-miterlimit="10" stroke-linecap="round"/>
<path d="M650.4 232.755L629.98 264.368H717.163L737.583 232.755H650.4Z" fill="white" stroke="#020046" stroke-miterlimit="10" stroke-linecap="round"/>
<path d="M714.385 259.201H640.207" stroke="#020046" stroke-miterlimit="10" stroke-linecap="round"/>
<path d="M717.274 254.035H643.27" stroke="#020046" stroke-miterlimit="10" stroke-linecap="round"/>
<path d="M721.819 248.558H646.078" stroke="#020046" stroke-miterlimit="10" stroke-linecap="round"/>
<path d="M724.553 243.939H665.859" stroke="#020046" stroke-miterlimit="10" stroke-linecap="round"/>
<path d="M728.15 238.78H681.504" stroke="#020046" stroke-miterlimit="10" stroke-linecap="round"/>
<path d="M608.377 221.521C601.013 221.327 594.874 227.798 594.658 235.969C594.442 244.141 600.235 250.922 607.599 251.116C614.962 251.311 621.101 244.84 621.317 236.668C621.534 228.497 615.741 221.716 608.377 221.521ZM607.743 245.669C603.088 245.546 599.428 241.259 599.565 236.099C599.702 230.932 603.585 226.847 608.233 226.969C612.887 227.092 616.548 231.379 616.411 236.539C616.274 241.698 612.39 245.791 607.743 245.669Z" fill="white" stroke="#020046" stroke-miterlimit="10" stroke-linecap="round" stroke-linejoin="round"/>
<path d="M572.973 217.875L572.108 251.059C571.993 255.505 575.466 259.201 579.868 259.317L600.662 259.872C605.065 259.987 608.725 256.478 608.84 252.031L609.719 218.336C609.734 217.76 609.28 217.277 608.704 217.27L574.01 216.859C573.456 216.859 572.995 217.306 572.973 217.875Z" fill="white" stroke="#020046" stroke-miterlimit="10" stroke-linecap="round" stroke-linejoin="round"/>
<path d="M591.289 221.197C601.349 221.197 609.504 219.661 609.504 217.767C609.504 215.873 601.349 214.337 591.289 214.337C581.229 214.337 573.074 215.873 573.074 217.767C573.074 219.661 581.229 221.197 591.289 221.197Z" fill="white" stroke="#020046" stroke-miterlimit="10" stroke-linecap="round" stroke-linejoin="round"/>
<path d="M591.287 221.197C600.415 221.197 607.815 220.307 607.815 219.208C607.815 218.11 600.415 217.219 591.287 217.219C582.158 217.219 574.758 218.11 574.758 219.208C574.758 220.307 582.158 221.197 591.287 221.197Z" fill="#020046"/>
<path d="M601.448 230.313C598.898 227.92 594.2 227.056 590.972 231.689C587.989 226.89 583.255 227.51 580.582 229.758C577.606 232.266 577.527 237.627 580.899 242.181C582.895 244.876 586.231 246.8 588.457 247.866C589.25 248.241 590.749 248.688 590.749 248.688C591.217 248.529 592.024 248.241 592.997 247.823C595.266 246.843 598.451 245.15 600.476 242.7C604.078 238.333 604.287 232.972 601.448 230.313Z" fill="#B3FFD1"/>
<path d="M590.757 209.991C593.986 209.883 596.522 207.348 596.42 204.329C596.319 201.311 593.619 198.951 590.39 199.059C587.161 199.168 584.625 201.703 584.726 204.721C584.827 207.74 587.527 210.1 590.757 209.991Z" stroke="#B1B1B1" stroke-width="0.75" stroke-miterlimit="10" stroke-linecap="round" stroke-linejoin="round"/>
<path d="M589.292 192.943C599.005 186.191 606.419 170.532 593.673 155.969C579.731 140.029 560.666 158.541 555.644 131.562C550.622 104.583 521.412 106.103 505.784 122.31C490.149 138.516 496.006 167.325 518.429 174.776C540.859 182.227 559.852 170.741 562.993 184.144C566.135 197.504 583.528 196.949 589.292 192.943Z" stroke="#B1B1B1" stroke-width="0.75" stroke-miterlimit="10" stroke-linecap="round" stroke-linejoin="round"/>
<path d="M548.246 52.3586V101.302H611.659V52.3586L548.246 52.3586Z" fill="white" stroke="#B1B1B1" stroke-miterlimit="10" stroke-linecap="round" stroke-linejoin="round"/>
<path d="M551.496 55.4645V98.1959H608.41V55.4645H551.496Z" stroke="#B1B1B1" stroke-miterlimit="10" stroke-linecap="round" stroke-linejoin="round"/>
<path d="M548.242 101.304L551.492 98.1985" stroke="#B1B1B1" stroke-miterlimit="10" stroke-linecap="round" stroke-linejoin="round"/>
<path d="M611.656 101.304L608.406 98.1985" stroke="#B1B1B1" stroke-miterlimit="10" stroke-linecap="round" stroke-linejoin="round"/>
<path d="M608.406 55.4671L611.656 52.3613" stroke="#B1B1B1" stroke-miterlimit="10" stroke-linecap="round" stroke-linejoin="round"/>
<path d="M548.242 52.3613L551.492 55.4671" stroke="#B1B1B1" stroke-miterlimit="10" stroke-linecap="round" stroke-linejoin="round"/>
<path d="M600.842 60.9221H559.059V64.835H600.842V60.9221Z" fill="#B1B1B1"/>
<path d="M602.945 89.4937C602.945 91.3673 601.424 92.8805 599.558 92.8805C597.685 92.8805 596.172 91.3601 596.172 89.4937C596.172 87.6202 597.692 86.1069 599.558 86.1069C601.424 86.1069 602.945 87.6202 602.945 89.4937Z" fill="#B1B1B1"/>
<path d="M555.125 69.843H604.783" stroke="#B1B1B1" stroke-miterlimit="10" stroke-linecap="round" stroke-linejoin="round"/>
<path d="M555.125 73.5902H604.783" stroke="#B1B1B1" stroke-miterlimit="10" stroke-linecap="round" stroke-linejoin="round"/>
<path d="M555.125 77.3373H604.783" stroke="#B1B1B1" stroke-miterlimit="10" stroke-linecap="round" stroke-linejoin="round"/>
<path d="M555.125 81.0844H604.783" stroke="#B1B1B1" stroke-miterlimit="10" stroke-linecap="round" stroke-linejoin="round"/>
<path d="M555.125 84.8314H593.154" stroke="#B1B1B1" stroke-miterlimit="10" stroke-linecap="round" stroke-linejoin="round"/>
<path d="M555.125 88.5786H575.545" stroke="#B1B1B1" stroke-miterlimit="10" stroke-linecap="round" stroke-linejoin="round"/>
<path d="M506.277 -12.4576V36.4854L569.69 36.4854V-12.4576L506.277 -12.4576Z" fill="white" stroke="#B1B1B1" stroke-miterlimit="10" stroke-linecap="round" stroke-linejoin="round"/>
<path d="M509.527 -9.35187V33.3795H566.441V-9.35187H509.527Z" stroke="#B1B1B1" stroke-miterlimit="10" stroke-linecap="round" stroke-linejoin="round"/>
<path d="M506.273 36.4866L509.523 33.3809" stroke="#B1B1B1" stroke-miterlimit="10" stroke-linecap="round" stroke-linejoin="round"/>
<path d="M569.687 36.4866L566.438 33.3809" stroke="#B1B1B1" stroke-miterlimit="10" stroke-linecap="round" stroke-linejoin="round"/>
<path d="M558.873 -3.88843H517.09V0.0244112H558.873V-3.88843Z" fill="#B1B1B1"/>
<path d="M557.582 28.0701C559.452 28.0701 560.968 26.5538 560.968 24.6833C560.968 22.8128 559.452 21.2965 557.582 21.2965C555.711 21.2965 554.195 22.8128 554.195 24.6833C554.195 26.5538 555.711 28.0701 557.582 28.0701Z" fill="#B1B1B1"/>
<path d="M513.156 5.03259H562.807" stroke="#B1B1B1" stroke-miterlimit="10" stroke-linecap="round" stroke-linejoin="round"/>
<path d="M513.156 8.77966H562.807" stroke="#B1B1B1" stroke-miterlimit="10" stroke-linecap="round" stroke-linejoin="round"/>
<path d="M513.156 12.5269H562.807" stroke="#B1B1B1" stroke-miterlimit="10" stroke-linecap="round" stroke-linejoin="round"/>
<path d="M513.156 16.2739H562.807" stroke="#B1B1B1" stroke-miterlimit="10" stroke-linecap="round" stroke-linejoin="round"/>
<path d="M513.156 20.021H551.185" stroke="#B1B1B1" stroke-miterlimit="10" stroke-linecap="round" stroke-linejoin="round"/>
<path d="M513.156 23.7681H533.576" stroke="#B1B1B1" stroke-miterlimit="10" stroke-linecap="round" stroke-linejoin="round"/>
<path d="M401.992 17.2655L409.687 2.11133L417.39 15.8819" stroke="#B1B1B1" stroke-miterlimit="10" stroke-linecap="round" stroke-linejoin="round"/>
<path d="M411.808 2.11135C411.808 3.27871 410.864 4.2227 409.697 4.2227C408.53 4.2227 407.586 3.27871 407.586 2.11135C407.586 0.943981 408.53 0 409.697 0C410.857 0 411.808 0.943981 411.808 2.11135Z" fill="#B1B1B1"/>
<path d="M436.383 14.7002H383V60.595H436.383V14.7002Z" fill="white" stroke="#B1B1B1" stroke-miterlimit="10" stroke-linecap="round" stroke-linejoin="round"/>
<path d="M428.896 21.1423H390.492V54.1601H428.896V21.1423Z" stroke="#B1B1B1" stroke-miterlimit="10" stroke-linecap="round" stroke-linejoin="round"/>
<path d="M383 14.7002L390.493 21.1423" stroke="#B1B1B1" stroke-miterlimit="10" stroke-linecap="round" stroke-linejoin="round"/>
<path d="M436.384 14.7002L428.891 21.1423" stroke="#B1B1B1" stroke-miterlimit="10" stroke-linecap="round" stroke-linejoin="round"/>
<path d="M436.384 60.595L428.891 54.16" stroke="#B1B1B1" stroke-miterlimit="10" stroke-linecap="round" stroke-linejoin="round"/>
<path d="M383 60.595L390.493 54.16" stroke="#B1B1B1" stroke-miterlimit="10" stroke-linecap="round" stroke-linejoin="round"/>
<path d="M404.789 32.0233C404.789 32.0233 401.014 25.9775 399.212 26.3018C397.411 26.626 396.655 36.7432 397.613 36.21C398.571 35.6839 404.789 32.0233 404.789 32.0233Z" fill="white" stroke="#B1B1B1" stroke-width="0.75" stroke-miterlimit="10"/>
<path d="M414.891 31.3748C414.891 31.3748 418.882 25.4731 420.669 25.855C422.456 26.2442 422.838 36.383 421.901 35.8209C420.972 35.2588 414.891 31.3748 414.891 31.3748Z" fill="#B1B1B1"/>
<path d="M423.069 38.5663C422.968 44.2014 416.88 48.6691 409.473 48.5322C402.066 48.3953 396.143 43.7186 396.251 38.0763C396.352 32.4413 402.441 27.9736 409.848 28.1105C417.255 28.2402 423.177 32.9241 423.069 38.5663Z" fill="white"/>
<path d="M396.251 38.0692C396.244 38.5592 396.28 39.042 396.359 39.5176C397.188 39.9355 398.167 40.1949 399.234 40.2093C402.217 40.267 404.674 38.4583 404.717 36.1668C404.76 33.8825 402.375 31.9873 399.385 31.9297C399.292 31.9297 399.198 31.9369 399.104 31.9369C397.353 33.6303 396.294 35.7488 396.251 38.0692Z" fill="#B1B1B1"/>
<path d="M423.069 38.5663C422.968 44.2014 416.88 48.6691 409.473 48.5322C402.066 48.3953 396.143 43.7186 396.251 38.0763C396.352 32.4413 402.441 27.9736 409.848 28.1105C417.255 28.2402 423.177 32.9241 423.069 38.5663Z" stroke="#B1B1B1" stroke-width="0.75" stroke-miterlimit="10"/>
<path d="M414.22 37.363C414.22 37.5359 414.076 37.68 413.896 37.6728C413.723 37.6728 413.579 37.5215 413.586 37.3486C413.586 37.1756 413.738 37.0315 413.91 37.0387C414.083 37.0387 414.227 37.1828 414.22 37.363Z" fill="#B1B1B1"/>
<path d="M414.255 38.5663C414.255 38.7393 414.104 38.8834 413.931 38.8762C413.758 38.8762 413.614 38.7249 413.621 38.5519C413.621 38.379 413.773 38.2349 413.946 38.2421C414.118 38.2493 414.255 38.3934 414.255 38.5663Z" fill="#B1B1B1"/>
<path d="M415.209 37.8818C415.209 38.0547 415.057 38.1988 414.884 38.1916C414.711 38.1916 414.567 38.0403 414.574 37.8674C414.574 37.6944 414.726 37.5503 414.899 37.5575C415.072 37.5575 415.216 37.7016 415.209 37.8818Z" fill="#B1B1B1"/>
<path d="M405.688 37.4926C405.688 37.6656 405.824 37.8097 405.997 37.8169C406.17 37.8241 406.314 37.68 406.322 37.507C406.322 37.3341 406.185 37.19 406.012 37.1828C405.832 37.1756 405.688 37.3125 405.688 37.4926Z" fill="#B1B1B1"/>
<path d="M405.609 38.696C405.609 38.8689 405.746 39.013 405.919 39.0202C406.092 39.0202 406.236 38.8833 406.243 38.7104C406.243 38.5374 406.107 38.3933 405.934 38.3861C405.761 38.3789 405.609 38.523 405.609 38.696Z" fill="#B1B1B1"/>
<path d="M404.68 37.9754C404.68 38.1484 404.817 38.2925 404.99 38.2997C405.162 38.2997 405.307 38.1628 405.314 37.9898C405.314 37.8169 405.177 37.6728 405.004 37.6656C404.831 37.6583 404.68 37.7953 404.68 37.9754Z" fill="#B1B1B1"/>
<path d="M408.593 39.604C408.363 40.6488 408.492 42.9691 410.027 42.998C411.562 43.0268 411.771 40.7137 411.583 39.6616C411.54 39.4022 411.137 39.5031 411.187 39.7625C411.324 40.5191 411.245 42.6088 410.034 42.5872C408.824 42.5656 408.824 40.4759 408.99 39.7193C409.04 39.467 408.644 39.3518 408.593 39.604Z" fill="#B1B1B1"/>
<path d="M411.382 36.7505C411.375 37.2333 410.813 37.6152 410.136 37.608C409.451 37.5935 408.911 37.19 408.918 36.7072C408.925 36.2244 409.487 35.8425 410.165 35.8497C410.849 35.8569 411.397 36.2604 411.382 36.7505Z" fill="#B1B1B1"/>
<path d="M409.938 37.2045C409.924 37.853 409.917 38.4943 409.902 39.1429C409.895 39.4095 410.306 39.4167 410.313 39.1501C410.328 38.5015 410.335 37.8602 410.349 37.2117C410.349 36.945 409.938 36.9378 409.938 37.2045Z" fill="#B1B1B1"/>
<path d="M402.621 37.579C402.621 38.1555 402.152 38.6239 401.576 38.6239C401 38.6239 400.531 38.1555 400.531 37.579C400.531 37.0026 401 36.5342 401.576 36.5342C402.16 36.5342 402.621 37.0026 402.621 37.579Z" fill="#B1B1B1"/>
<path d="M419.675 37.6728C419.675 38.2493 419.207 38.7177 418.631 38.7177C418.054 38.7177 417.586 38.2493 417.586 37.6728C417.586 37.0963 418.054 36.6279 418.631 36.6279C419.207 36.6279 419.675 37.0963 419.675 37.6728Z" fill="#B1B1B1"/>
<path d="M80.0469 216.381H326.876" stroke="#020046" stroke-miterlimit="10" stroke-linecap="round"/>
<path d="M164.391 131.033C164.391 131.033 167.129 104.602 168.397 95.3277C169.665 86.0536 174.276 75.0861 178.311 75.1149C182.346 75.1437 179.529 82.8902 180.228 86.5292C180.934 90.1682 183.175 93.3388 183.175 93.3388L176.431 132.482L164.391 131.033Z" fill="white" stroke="#020046" stroke-miterlimit="10" stroke-linecap="round" stroke-linejoin="round"/>
<path d="M203.297 105.178C200.674 103.406 199.478 104.969 197.626 106.504C197.144 106.562 195.573 107.225 194.182 104.393C192.799 101.561 187.546 86.3347 186.941 82.1481C186.329 77.9614 187.914 77.529 187.935 77.4642C190.565 77.5867 192.626 78.4586 193.815 75.3024C195.025 72.1102 196.913 60.4005 191.574 58.9232C186.242 57.446 178.835 62.4398 176.89 68.9828C175.37 74.1134 177.963 85.8663 180.053 93.375C180.053 93.375 180.456 94.9242 180.781 95.8898C181.076 96.8698 181.638 98.3615 181.638 98.3615C184.261 105.704 188.915 116.802 193.123 120.109C198.484 124.332 207.411 124.144 210.92 119.857C214.422 115.562 206.129 107.088 203.297 105.178Z" fill="#B3FFD1" stroke="#020046" stroke-miterlimit="10" stroke-linecap="round" stroke-linejoin="round"/>
<path d="M191.577 58.9159C190.273 58.5556 188.839 58.5844 187.391 58.9231C191.757 66.1651 189.675 74.0917 188.414 77.4857C190.813 77.673 192.694 78.2567 193.81 75.2951C195.021 72.1028 196.916 60.3931 191.577 58.9159Z" stroke="#020046" stroke-miterlimit="10" stroke-linecap="round" stroke-linejoin="round"/>
<path d="M210.919 119.85C210.062 120.902 208.873 121.701 207.497 122.256C206.884 113.818 200.616 108.543 197.633 106.497C199.485 104.962 200.688 103.398 203.303 105.171C206.128 107.088 214.421 115.562 210.919 119.85Z" stroke="#020046" stroke-miterlimit="10" stroke-linecap="round" stroke-linejoin="round"/>
<path d="M195.278 91.422C195.79 85.8806 193.534 84.0575 193.534 84.0575L193.325 84.3169C193.325 83.4738 193.232 82.8325 193.117 82.4289C192.554 80.541 190.775 79.352 186.97 84.1223C183.166 88.8927 174.217 96.7256 174.217 96.7256L169.426 131.783L187.741 133.231C187.741 133.231 189.146 123.878 190.897 119.496C192.648 115.115 196.229 108.846 197.151 99.5431C197.951 91.3715 195.278 91.422 195.278 91.422Z" fill="white"/>
<path d="M174.211 96.74C174.211 96.74 183.16 88.9071 186.964 84.1367C190.769 79.3664 192.541 80.5554 193.11 82.4433C193.672 84.3313 193.723 91.6454 185.271 100.004" stroke="#020046" stroke-miterlimit="10" stroke-linecap="round" stroke-linejoin="round"/>
<path d="M193.527 84.0575C193.527 84.0575 198.917 88.3811 191.164 104.09" stroke="#020046" stroke-miterlimit="10" stroke-linecap="round" stroke-linejoin="round"/>
<path d="M195.277 91.422C195.277 91.422 197.951 91.3716 197.144 99.5575C196.221 108.868 192.648 115.13 190.889 119.511C189.139 123.892 187.734 133.245 187.734 133.245L169.418 131.797" stroke="#020046" stroke-miterlimit="10" stroke-linecap="round" stroke-linejoin="round"/>
<path d="M128.867 209.657C137.6 249.074 179.794 239.649 190.594 221.547C201.705 202.934 198.895 127.041 198.895 127.041L157.983 122.768L134.689 200.102L128.867 209.657Z" fill="#3458FF"/>
<path d="M167.453 163.921L162.461 167.688L166.228 172.681L171.22 168.913L167.453 163.921Z" fill="white"/>
<path d="M188.992 150.494L184 154.262L187.767 159.254L192.76 155.487L188.992 150.494Z" fill="white"/>
<path d="M170.762 137.612L165.77 141.38L169.537 146.373L174.529 142.605L170.762 137.612Z" fill="white"/>
<path d="M159.273 187.822L154.281 191.59L158.049 196.583L163.041 192.815L159.273 187.822Z" fill="white"/>
<path d="M181.777 182.749L176.785 186.517L180.553 191.509L185.545 187.741L181.777 182.749Z" fill="white"/>
<path d="M189.734 202.26L184.742 206.028L188.51 211.02L193.502 207.253L189.734 202.26Z" fill="white"/>
<path d="M169.25 207.191L164.258 210.959L168.025 215.951L173.017 212.184L169.25 207.191Z" fill="white"/>
<path d="M140.426 202.96L135.434 206.728L139.201 211.721L144.193 207.953L140.426 202.96Z" fill="white"/>
<path d="M149.586 220.291L144.594 224.059L148.361 229.052L153.353 225.284L149.586 220.291Z" fill="white"/>
<path d="M199.212 146.447C199.205 143.708 199.183 141.172 199.162 138.895L195.566 141.612L199.212 146.447Z" fill="white"/>
<path d="M151.016 152.37L156.002 148.601L152.24 143.615L151.549 144.134L149.625 150.525L151.016 152.37Z" fill="white"/>
<path d="M197.556 170.731L192.562 174.5L196.331 179.493L198.377 177.951C198.492 176.042 198.586 174.125 198.673 172.215L197.556 170.731Z" fill="white"/>
<path d="M143.327 180.704L148.32 176.942L144.552 171.949L142.765 173.296L141.324 178.059L143.327 180.704Z" fill="white"/>
<path d="M181.192 225.129L176.199 228.897L178.75 232.277C180.63 231.254 182.388 230.101 183.995 228.84L181.192 225.129Z" fill="white"/>
<path d="M163.589 236.975L160.231 232.529L155.238 236.298L155.721 236.939C158.329 237.249 160.974 237.249 163.589 236.975Z" fill="white"/>
<path d="M134.935 224.228L137.175 222.535L133.407 217.541L131.887 218.687C132.6 220.113 133.76 222.326 134.935 224.228Z" fill="white"/>
<path d="M199.193 142.073C199.121 133.036 198.897 127.034 198.897 127.034L157.986 122.761L153.742 136.856L199.193 142.073Z" fill="#3458FF" stroke="#020046" stroke-miterlimit="10" stroke-linecap="round" stroke-linejoin="round"/>
<path d="M161.985 123.15L159.168 137.483" stroke="#020046" stroke-miterlimit="10" stroke-linecap="round" stroke-linejoin="round"/>
<path d="M167.474 123.755L165.824 138.246" stroke="#020046" stroke-miterlimit="10" stroke-linecap="round" stroke-linejoin="round"/>
<path d="M175.262 124.569L173.785 139.162" stroke="#020046" stroke-miterlimit="10" stroke-linecap="round" stroke-linejoin="round"/>
<path d="M184.627 125.549L183.359 140.048" stroke="#020046" stroke-miterlimit="10" stroke-linecap="round" stroke-linejoin="round"/>
<path d="M192.258 126.342L191.84 141.23" stroke="#020046" stroke-miterlimit="10" stroke-linecap="round" stroke-linejoin="round"/>
<path d="M134.69 200.095L157.984 122.761L198.895 127.034C198.895 127.034 201.705 202.927 190.595 221.54C179.701 239.8 136.858 249.233 128.645 208.598" stroke="#020046" stroke-miterlimit="10" stroke-linecap="round" stroke-linejoin="round"/>
<path d="M209.093 122.256C210.173 126.839 211.492 134.593 207.904 134.211C203.991 133.793 206.592 126.09 212.601 132.136C218.611 138.182 211.701 161.06 204.193 155.685C196.087 149.877 206.845 137.908 214.374 152.01C221.903 166.112 205.814 176.906 203.588 169.556C201.361 162.206 215.793 162.984 212.277 174.528C208.761 186.072 194.495 193.639 194.38 185.042C194.264 176.445 210.627 182.296 207.378 194.864C204.827 204.721 196.015 198.229 201.217 194.965C206.412 191.7 215.974 208.051 209.813 212.187C203.653 216.323 200.518 203.698 212.284 205.247C227.927 207.316 225.218 236.247 215.469 234.518C205.713 232.781 216.593 216.964 233.806 239.31" stroke="#B3FFD1" stroke-miterlimit="10" stroke-linecap="round"/>
<path d="M240.375 249.11H236.398C234.884 249.11 233.652 247.878 233.652 246.365V241.832H243.12V246.365C243.12 247.885 241.888 249.11 240.375 249.11Z" fill="#020046"/>
<path d="M292.972 249.11H288.995C287.482 249.11 286.25 247.878 286.25 246.365V241.832H295.718V246.365C295.718 247.885 294.486 249.11 292.972 249.11Z" fill="#020046"/>
<path d="M285.35 189.077L283.541 176.409C283.433 175.66 282.792 175.105 282.043 175.105H278.008C277.172 175.105 276.487 175.782 276.487 176.625V182.095H266.623H262.762H252.898V176.625C252.898 175.789 252.22 175.105 251.377 175.105H247.342C246.586 175.105 245.945 175.66 245.844 176.409L244.035 189.077H285.35Z" fill="#B3FFD1" stroke="#020046" stroke-miterlimit="10" stroke-linecap="round"/>
<path d="M289.25 187.124H240.11C238.33 187.124 236.839 188.465 236.652 190.23L231.068 241.681C230.844 243.742 232.458 245.536 234.526 245.536H294.826C296.894 245.536 298.508 243.742 298.285 241.681L292.701 190.23C292.521 188.465 291.029 187.124 289.25 187.124Z" fill="#B3FFD1" stroke="#020046" stroke-miterlimit="10" stroke-linecap="round"/>
<path d="M241.219 190.735H288.636" stroke="#020046" stroke-miterlimit="10" stroke-linecap="round"/>
<path d="M297.932 238.337H231.436L231.075 241.681C230.852 243.742 232.466 245.536 234.534 245.536H294.834C296.902 245.536 298.516 243.734 298.293 241.681L297.932 238.337Z" stroke="#020046" stroke-miterlimit="10" stroke-linecap="round"/>
<path d="M264.686 233.113C275.239 233.113 283.795 224.557 283.795 214.003C283.795 203.448 275.239 194.892 264.686 194.892C254.133 194.892 245.578 203.448 245.578 214.003C245.578 224.557 254.133 233.113 264.686 233.113Z" fill="white" stroke="#020046" stroke-miterlimit="10" stroke-linecap="round"/>
<path d="M273.666 216.14C274.846 211.168 271.773 206.181 266.802 205.001C261.831 203.82 256.845 206.893 255.664 211.865C254.484 216.836 257.557 221.824 262.528 223.004C267.499 224.184 272.486 221.111 273.666 216.14Z" fill="#B1B1B1" stroke="#020046" stroke-miterlimit="10" stroke-linecap="round"/>
<path d="M266.964 200.189C266.964 201.45 265.941 202.466 264.687 202.466C263.426 202.466 262.41 201.45 262.41 200.189C262.41 198.928 263.426 197.912 264.687 197.912C265.941 197.912 266.964 198.935 266.964 200.189Z" stroke="#020046" stroke-miterlimit="10" stroke-linecap="round"/>
<path d="M272.663 201.421C272.663 202.682 271.64 203.698 270.386 203.698C269.125 203.698 268.109 202.682 268.109 201.421C268.109 200.16 269.133 199.144 270.386 199.144C271.647 199.144 272.663 200.16 272.663 201.421Z" stroke="#020046" stroke-miterlimit="10" stroke-linecap="round"/>
<path d="M269.925 227.492C269.925 228.753 268.902 229.769 267.648 229.769C266.387 229.769 265.371 228.753 265.371 227.492C265.371 226.231 266.394 225.215 267.648 225.215C268.902 225.215 269.925 226.238 269.925 227.492Z" stroke="#020046" stroke-miterlimit="10" stroke-linecap="round"/>
<path d="M263.995 227.492C263.995 228.753 262.972 229.769 261.718 229.769C260.457 229.769 259.441 228.753 259.441 227.492C259.441 226.231 260.465 225.215 261.718 225.215C262.979 225.215 263.995 226.238 263.995 227.492Z" stroke="#020046" stroke-miterlimit="10" stroke-linecap="round"/>
<path d="M258.808 225.15C258.808 226.411 257.784 227.427 256.531 227.427C255.27 227.427 254.254 226.411 254.254 225.15C254.254 223.889 255.27 222.873 256.531 222.873C257.784 222.873 258.808 223.889 258.808 225.15Z" stroke="#020046" stroke-miterlimit="10" stroke-linecap="round"/>
<path d="M255.038 220.971C255.038 222.232 254.015 223.248 252.761 223.248C251.5 223.248 250.484 222.225 250.484 220.971C250.484 219.71 251.508 218.694 252.761 218.694C254.015 218.694 255.038 219.717 255.038 220.971Z" stroke="#020046" stroke-miterlimit="10" stroke-linecap="round"/>
<path d="M253.229 215.509C253.229 216.77 252.206 217.786 250.953 217.786C249.692 217.786 248.676 216.763 248.676 215.509C248.676 214.248 249.699 213.232 250.953 213.232C252.214 213.232 253.229 214.248 253.229 215.509Z" stroke="#020046" stroke-miterlimit="10" stroke-linecap="round"/>
<path d="M251.582 211.913C252.839 211.913 253.858 210.893 253.858 209.636C253.858 208.378 252.839 207.359 251.582 207.359C250.324 207.359 249.305 208.378 249.305 209.636C249.305 210.893 250.324 211.913 251.582 211.913Z" stroke="#020046" stroke-miterlimit="10" stroke-linecap="round"/>
<path d="M256.71 204.75C256.71 206.011 255.687 207.027 254.433 207.027C253.172 207.027 252.156 206.004 252.156 204.75C252.156 203.489 253.172 202.473 254.433 202.473C255.687 202.473 256.71 203.489 256.71 204.75Z" stroke="#020046" stroke-miterlimit="10" stroke-linecap="round"/>
<path d="M258.98 203.698C260.237 203.698 261.257 202.679 261.257 201.421C261.257 200.163 260.237 199.144 258.98 199.144C257.723 199.144 256.703 200.163 256.703 201.421C256.703 202.679 257.723 203.698 258.98 203.698Z" stroke="#020046" stroke-miterlimit="10" stroke-linecap="round"/>
<path d="M266.964 200.189C266.964 201.45 265.941 202.466 264.687 202.466C263.426 202.466 262.41 201.45 262.41 200.189C262.41 198.928 263.426 197.912 264.687 197.912C265.941 197.912 266.964 198.935 266.964 200.189Z" stroke="#020046" stroke-miterlimit="10" stroke-linecap="round"/>
<path d="M277.693 228.833L274.991 223.226C274.652 222.52 275.3 221.749 276.05 221.958L281.908 223.587C282.534 223.76 282.779 224.516 282.376 225.028L279.227 229.005C278.809 229.524 277.988 229.438 277.693 228.833Z" fill="#B1B1B1" stroke="#020046" stroke-miterlimit="10" stroke-linecap="round"/>
<path d="M163.639 253.34H157.717C156.549 253.34 155.605 252.396 155.605 251.229C155.605 250.061 156.549 249.117 157.717 249.117H163.639C164.807 249.117 165.75 250.061 165.75 251.229C165.75 252.396 164.807 253.34 163.639 253.34Z" fill="white" stroke="#020046" stroke-miterlimit="10" stroke-linecap="round" stroke-linejoin="round"/>
<path d="M163.639 249.11H160.836V253.34H163.639C164.806 253.34 165.75 252.396 165.75 251.229C165.75 250.061 164.806 249.11 163.639 249.11Z" fill="#3458FF" stroke="#020046" stroke-miterlimit="10" stroke-linecap="round" stroke-linejoin="round"/>
<path d="M151.932 261.087H146.01C144.842 261.087 143.898 260.143 143.898 258.975C143.898 257.808 144.842 256.864 146.01 256.864H151.932C153.099 256.864 154.043 257.808 154.043 258.975C154.043 260.143 153.099 261.087 151.932 261.087Z" fill="white" stroke="#020046" stroke-miterlimit="10" stroke-linecap="round" stroke-linejoin="round"/>
<path d="M151.932 256.856H149.129V261.086H151.932C153.099 261.086 154.043 260.142 154.043 258.975C154.043 257.808 153.099 256.856 151.932 256.856Z" fill="#3458FF" stroke="#020046" stroke-miterlimit="10" stroke-linecap="round" stroke-linejoin="round"/>
<path d="M182.21 259.725H176.287C175.12 259.725 174.176 258.781 174.176 257.613C174.176 256.446 175.12 255.502 176.287 255.502H182.21C183.377 255.502 184.321 256.446 184.321 257.613C184.321 258.781 183.377 259.725 182.21 259.725Z" fill="white" stroke="#020046" stroke-miterlimit="10" stroke-linecap="round" stroke-linejoin="round"/>
<path d="M182.209 255.502H179.406V259.725H182.209C183.376 259.725 184.32 258.781 184.32 257.613C184.32 256.446 183.376 255.502 182.209 255.502Z" fill="#3458FF" stroke="#020046" stroke-miterlimit="10" stroke-linecap="round" stroke-linejoin="round"/>
<path d="M126.273 248.606V237.076C126.273 234.46 128.392 232.342 131.007 232.342H158.02V253.34H131.007C128.392 253.34 126.273 251.221 126.273 248.606Z" fill="white" stroke="#020046" stroke-miterlimit="10" stroke-linecap="round" stroke-linejoin="round"/>
<path d="M148.811 232.342H135.719V253.34H148.811V232.342Z" fill="white" stroke="#020046" stroke-miterlimit="10" stroke-linecap="round" stroke-linejoin="round"/>
<path d="M145.836 235.318V250.364" stroke="#020046" stroke-miterlimit="10" stroke-linecap="round" stroke-linejoin="round"/>
<path d="M142.703 235.318V250.364" stroke="#020046" stroke-miterlimit="10" stroke-linecap="round" stroke-linejoin="round"/>
<path d="M139.574 235.318V250.364" stroke="#020046" stroke-miterlimit="10" stroke-linecap="round" stroke-linejoin="round"/>
<path d="M197.606 252.209H186.078C183.462 252.209 181.344 250.09 181.344 247.474V220.459H202.34V247.474C202.34 250.09 200.221 252.209 197.606 252.209Z" fill="white" stroke="#020046" stroke-miterlimit="10" stroke-linecap="round" stroke-linejoin="round"/>
<path d="M202.34 229.668H181.344V242.762H202.34V229.668Z" fill="white" stroke="#020046" stroke-miterlimit="10" stroke-linecap="round" stroke-linejoin="round"/>
<path d="M202.339 225.489H181.343C180.371 225.489 179.578 224.704 179.578 223.723V219.068C179.578 218.096 180.363 217.303 181.343 217.303H202.339C203.312 217.303 204.105 218.088 204.105 219.068V223.723C204.097 224.696 203.312 225.489 202.339 225.489Z" fill="#B3FFD1" stroke="#020046" stroke-miterlimit="10" stroke-linecap="round" stroke-linejoin="round"/>
<path d="M183.23 217.303V225.489" stroke="#020046" stroke-miterlimit="10" stroke-linecap="round" stroke-linejoin="round"/>
<path d="M187.531 217.303V225.489" stroke="#020046" stroke-miterlimit="10" stroke-linecap="round" stroke-linejoin="round"/>
<path d="M191.84 217.303V225.489" stroke="#020046" stroke-miterlimit="10" stroke-linecap="round" stroke-linejoin="round"/>
<path d="M196.145 217.303V225.489" stroke="#020046" stroke-miterlimit="10" stroke-linecap="round" stroke-linejoin="round"/>
<path d="M200.453 217.303V225.489" stroke="#020046" stroke-miterlimit="10" stroke-linecap="round" stroke-linejoin="round"/>
<path d="M184.32 232.645H199.365" stroke="#020046" stroke-miterlimit="10" stroke-linecap="round" stroke-linejoin="round"/>
<path d="M184.32 235.779H199.365" stroke="#020046" stroke-miterlimit="10" stroke-linecap="round" stroke-linejoin="round"/>
<path d="M184.32 238.906H199.365" stroke="#020046" stroke-miterlimit="10" stroke-linecap="round" stroke-linejoin="round"/>
<path d="M195.316 246.451L216.312 246.602C217.285 246.61 218.07 247.402 218.063 248.375L218.027 253.03C218.02 254.003 217.227 254.788 216.255 254.781L195.259 254.63C194.286 254.623 193.501 253.83 193.508 252.857L193.544 248.202C193.544 247.229 194.344 246.444 195.316 246.451Z" fill="#B3FFD1" stroke="#020046" stroke-miterlimit="10" stroke-linecap="round" stroke-linejoin="round"/>
<path d="M214.359 254.767L214.424 246.588" stroke="#020046" stroke-miterlimit="10" stroke-linecap="round" stroke-linejoin="round"/>
<path d="M210.055 254.738L210.112 246.552" stroke="#020046" stroke-miterlimit="10" stroke-linecap="round" stroke-linejoin="round"/>
<path d="M205.754 254.702L205.812 246.523" stroke="#020046" stroke-miterlimit="10" stroke-linecap="round" stroke-linejoin="round"/>
<path d="M201.445 254.673L201.503 246.494" stroke="#020046" stroke-miterlimit="10" stroke-linecap="round" stroke-linejoin="round"/>
<path d="M197.145 254.644L197.202 246.466" stroke="#020046" stroke-miterlimit="10" stroke-linecap="round" stroke-linejoin="round"/>
<path d="M51.4397 160.001H21.7398C18.166 160.001 15.2695 157.104 15.2695 153.53V134.845C15.2695 131.271 18.166 128.374 21.7398 128.374H51.4397C55.0135 128.374 57.9099 131.271 57.9099 134.845V153.53C57.9099 157.104 55.0135 160.001 51.4397 160.001Z" fill="#B1B1B1"/>
<path d="M80.2511 105.964C75.6254 102.123 57.634 118.761 57.634 118.761C57.634 118.761 74.9697 87.8983 68.694 88.6117C62.4183 89.3251 49.5425 114.092 49.5425 114.092C49.5425 114.092 65.5597 68.4134 53.8369 77.5145C47.8349 82.1768 42.3518 96.6896 38.4321 109.732C33.1435 92.3877 26.0896 71.2382 23.6254 73.1045C19.4968 76.2319 27.5883 116.765 27.5883 116.765C27.5883 116.765 11.4054 84.4827 6.28969 88.8928C1.17399 93.3028 21.1468 121.32 21.1468 121.32C21.1468 121.32 -0.980362 104.537 -4.77751 108.666C-7.74605 111.887 9.73378 124.562 17.5298 129.96C18.7691 128.98 20.4191 128.374 22.2348 128.374H33.4677H43.9009H50.9332C52.9722 128.374 54.8023 129.131 56.0777 130.334C66.3235 122.545 83.5367 108.695 80.2511 105.964Z" fill="#B1B1B1"/>
<path d="M37.8711 51.1624L56.3669 130.615" stroke="#B1B1B1" stroke-miterlimit="10" stroke-linecap="round" stroke-linejoin="round"/>
<path d="M43.9319 46.2334C43.9319 49.6923 40.6824 52.4882 36.6691 52.4882C32.6558 52.4882 29.4062 49.6851 29.4062 46.2334C29.4062 42.7746 32.6558 39.9786 36.6691 39.9786C40.6824 39.9786 43.9319 42.7818 43.9319 46.2334Z" fill="#B1B1B1"/>
<path d="M36.5886 49.0798L16.3203 131.213" stroke="#B1B1B1" stroke-miterlimit="10" stroke-linecap="round" stroke-linejoin="round"/>
<path d="M36.2578 46.2334L36.6829 -15.8676" stroke="#B1B1B1" stroke-miterlimit="10" stroke-linecap="round" stroke-linejoin="round"/>
<path d="M41.9991 162.545C41.9991 164.346 40.3058 165.802 38.2163 165.802C36.1268 165.802 34.4336 164.346 34.4336 162.545C34.4336 160.743 36.1268 159.288 38.2163 159.288C40.3058 159.288 41.9991 160.743 41.9991 162.545Z" fill="#B1B1B1"/>
<path d="M29.1797 202.098L38.215 163.229L46.5731 202.855" stroke="#B1B1B1" stroke-miterlimit="10" stroke-linecap="round" stroke-linejoin="round"/>
<path d="M37.8789 202.855L38.2176 163.229" stroke="#B1B1B1" stroke-miterlimit="10" stroke-linecap="round" stroke-linejoin="round"/>
<path d="M16.3203 131.213L38.2169 162.545L56.9289 130.615" stroke="#B1B1B1" stroke-miterlimit="10" stroke-linecap="round" stroke-linejoin="round"/>
</g>
</g>
<defs>
<clipPath id="clip0_711_3290">
<rect width="800" height="283" fill="white"/>
</clipPath>
<clipPath id="clip1_711_3290">
<rect width="840" height="283" fill="white"/>
</clipPath>
</defs>
</svg>
