<svg width="800" height="283" viewBox="0 0 800 283" fill="none" xmlns="http://www.w3.org/2000/svg">
<g clip-path="url(#clip0_711_2806)">
<rect width="800" height="283" fill="#D9D9D9"/>
<g clip-path="url(#clip1_711_2806)">
<rect width="840" height="283" fill="white"/>
<path d="M607.402 -68.2982H67.0117V292H607.402V-68.2982Z" fill="white"/>
<path d="M726.017 77.7853C740.275 94.1035 753.269 114.997 755.16 144.706C757.05 174.414 755.161 217 755.161 217C755.161 217 744.751 217 723.52 217H407C408.14 171.489 435.334 162.804 460.558 155.412C488.101 147.343 508.739 136.42 506.507 105.914C504.268 75.4084 524.297 26.815 584.752 19.3159C615.298 15.5295 683.137 47.027 683.137 47.027C683.137 47.027 708.948 58.2496 726.017 77.7853Z" fill="#F0F0F0"/>
<path d="M344.088 216.381C347.064 207.813 349.816 198.243 352.172 187.571C368.434 113.89 333.1 91.5084 311.938 92.6613C290.776 93.8143 274.096 103.117 248.676 89.0728C218.249 72.2613 209.624 24.1399 149.122 -0.52616C88.6199 -25.1922 66.5 6.95136 50 28.2257C33.5 49.5 -3.5 216.381 -3.5 216.381L344.088 216.373V216.381Z" fill="#F0F0F0"/>
<path d="M476.784 76.4546C482.077 53.4231 467.699 30.4612 444.67 25.1677C421.641 19.8742 398.681 34.2536 393.388 57.2851C388.095 80.3166 402.473 103.279 425.502 108.572C448.532 113.866 471.491 99.4861 476.784 76.4546Z" fill="#F0F0F0"/>
<path d="M304.85 216.381C305.023 212.936 304.922 208.267 303.711 203.799C301.391 195.26 284.697 166.35 277.167 156.42C269.638 146.49 257.468 125.268 246.905 112.874C236.804 101.02 221.781 93.519 220.484 92.8849C220.419 92.8561 220.383 92.8344 220.383 92.8344L187.729 92.6615C187.729 92.6615 155.68 107.21 139.116 128.922C126.146 145.928 115.129 195.649 110.965 216.388H304.85V216.381Z" fill="white"/>
<path d="M302.73 216.381L304.906 213.073C304.891 212.281 304.863 211.452 304.805 210.609L301.008 216.381H302.73Z" fill="#B1B1B1"/>
<path d="M117.824 216.381H119.547L121.247 213.794L125.181 216.381H127.804L122.04 212.59L129.663 201.01L141.241 208.634L136.14 216.388H137.862L142.445 209.427L153.015 216.388H156.178L163.635 205.06L175.214 212.684L172.771 216.395H174.493L176.41 213.477L180.841 216.395H183.464L177.203 212.273L184.826 200.693L196.404 208.317L191.087 216.395H192.809L197.608 209.11L208.682 216.395H211.305L211.19 216.316L218.813 204.736L230.391 212.36L227.733 216.395H229.455L231.587 213.152L236.516 216.395H239.139L232.38 211.949L240.003 200.369L251.582 207.993L246.048 216.402H247.77L252.778 208.786L264.35 216.402H266.972L266.353 215.999L273.976 204.419L285.554 212.043L282.68 216.41H284.402L286.751 212.835L292.176 216.41H294.799L287.543 211.632L295.166 200.052L304.202 205.997C304.072 205.32 303.913 204.642 303.733 203.965L295.959 198.849L299.36 193.682C299.115 193.192 298.87 192.702 298.61 192.197L294.756 198.063L283.177 190.439L290.8 178.859L291.686 179.443C291.153 178.513 290.62 177.584 290.079 176.661L278.81 169.239L282.305 163.928C282.017 163.482 281.729 163.042 281.448 162.61L277.607 168.447L266.028 160.823L272.881 150.403C272.592 149.978 272.304 149.545 272.009 149.106L264.825 160.03L253.246 152.406L260.869 140.826L270.899 147.427C270.251 146.44 269.581 145.424 268.903 144.386L261.662 139.623L263.737 136.467C263.449 136.027 263.168 135.595 262.88 135.155L260.459 138.837L248.88 131.213L254.457 122.739C254.154 122.314 253.859 121.896 253.556 121.485L247.677 130.428L236.098 122.804L243.721 111.224L247.684 113.833C247.425 113.516 247.165 113.206 246.906 112.903C245.782 111.584 244.6 110.331 243.382 109.127L243.31 109.235L231.732 101.611L232.632 100.242C232.236 99.9611 231.84 99.6873 231.451 99.4207L230.528 100.819L218.95 93.1947L219.173 92.856L215.786 92.8344L216.954 93.6055L209.331 105.185L197.752 97.5615L200.915 92.7552L199.193 92.748L196.549 96.7689L190.359 92.6975L187.722 92.6831L195.756 97.9723L188.133 109.552L176.554 101.928L180.099 96.5455C179.249 97.0067 178.341 97.5039 177.39 98.0443L175.351 101.136L173.802 100.112C173.348 100.379 172.894 100.653 172.426 100.934L174.558 102.339L166.935 113.919L159.888 109.278C159.478 109.581 159.067 109.884 158.656 110.194L166.143 115.122L158.519 126.702L147.604 119.518C147.251 119.857 146.897 120.203 146.544 120.549L157.727 127.906L150.104 139.486L138.525 131.862L144.83 122.285C142.783 124.418 140.852 126.63 139.101 128.936C136.587 132.229 134.151 136.762 131.817 142.058L137.732 133.065L149.311 140.689L141.688 152.269L130.578 144.962C130.39 145.409 130.21 145.863 130.023 146.324L140.888 153.48L133.265 165.06L125.21 159.756C125.058 160.232 124.9 160.7 124.749 161.176L132.473 166.263L124.85 177.843L120.642 175.069C120.505 175.559 120.375 176.042 120.245 176.532L124.064 179.047L116.744 190.165C116.405 191.556 116.074 192.932 115.757 194.287L116.852 192.623L128.431 200.247L120.807 211.827L112.961 206.667C112.853 207.179 112.745 207.683 112.637 208.18L120.015 213.037L117.824 216.381ZM142.034 207.424L130.455 199.8L138.078 188.22L149.657 195.844L142.034 207.424ZM248.008 185.568L236.429 177.944L244.052 166.364L255.631 173.988L248.008 185.568ZM256.827 174.781L268.406 182.405L260.783 193.985L249.204 186.361L256.827 174.781ZM168.477 169.866L176.093 158.286L187.672 165.91L180.049 177.49L168.477 169.866ZM179.263 178.686L171.64 190.266L160.061 182.642L167.684 171.062L179.263 178.686ZM209.655 160.333L198.076 152.709L205.699 141.129L217.278 148.753L209.655 160.333ZM218.481 149.545L230.06 157.169L222.437 168.749L210.858 161.125L218.481 149.545ZM208.869 161.536L201.246 173.116L189.668 165.492L197.291 153.912L208.869 161.536ZM188.464 164.7L176.886 157.076L184.509 145.496L196.087 153.12L188.464 164.7ZM188.875 166.696L200.454 174.319L192.831 185.899L181.252 178.276L188.875 166.696ZM201.657 175.112L213.236 182.736L205.613 194.316L194.034 186.692L201.657 175.112ZM202.45 173.909L210.073 162.329L221.651 169.953L214.028 181.533L202.45 173.909ZM222.855 170.738L234.434 178.362L226.81 189.942L215.232 182.318L222.855 170.738ZM223.647 169.535L231.27 157.955L242.849 165.579L235.226 177.159L223.647 169.535ZM243.635 164.375L232.056 156.751L239.679 145.171L251.258 152.795L243.635 164.375ZM230.853 155.959L219.274 148.335L226.897 136.755L238.476 144.379L230.853 155.959ZM226.479 134.766L214.9 127.142L222.523 115.562L234.102 123.186L226.479 134.766ZM225.694 135.969L218.07 147.549L206.492 139.925L214.115 128.345L225.694 135.969ZM205.288 139.133L193.71 131.509L201.333 119.929L212.912 127.553L205.288 139.133ZM204.496 140.336L196.873 151.916L185.294 144.292L192.917 132.712L204.496 140.336ZM184.091 143.507L172.512 135.883L180.135 124.303L191.714 131.927L184.091 143.507ZM183.298 144.71L175.675 156.29L164.096 148.666L171.719 137.086L183.298 144.71ZM174.89 157.494L167.267 169.074L155.688 161.45L163.311 149.87L174.89 157.494ZM166.474 170.277L158.851 181.857L147.272 174.233L154.895 162.653L166.474 170.277ZM158.066 183.06L150.442 194.64L138.864 187.016L146.487 175.436L158.066 183.06ZM154.816 215.84L143.237 208.216L150.86 196.636L162.439 204.26L154.816 215.84ZM163.224 203.057L151.646 195.433L159.269 183.853L170.848 191.477L163.224 203.057ZM176.007 211.466L164.428 203.842L172.051 192.262L183.63 199.886L176.007 211.466ZM184.422 198.683L172.843 191.059L180.467 179.479L192.045 187.103L184.422 198.683ZM197.204 207.099L185.625 199.476L193.249 187.896L204.827 195.519L197.204 207.099ZM209.986 215.509L198.408 207.885L206.031 196.305L217.609 203.929L209.986 215.509ZM218.402 202.725L206.823 195.101L214.446 183.521L226.025 191.145L218.402 202.725ZM231.184 211.135L219.605 203.518L227.228 191.938L238.807 199.562L231.184 211.135ZM239.592 198.351L228.014 190.727L235.637 179.147L247.216 186.771L239.592 198.351ZM252.375 206.768L240.796 199.144L248.419 187.564L259.998 195.188L252.375 206.768ZM265.157 215.177L253.578 207.553L261.201 195.973L272.78 203.597L265.157 215.177ZM273.572 202.394L261.993 194.77L269.617 183.19L281.195 190.814L273.572 202.394ZM293.97 199.23L286.347 210.81L274.768 203.187L282.391 191.607L293.97 199.23ZM278.025 170.414L289.604 178.038L281.981 189.618L270.402 181.994L278.025 170.414ZM265.243 161.997L276.822 169.621L269.199 181.201L257.62 173.577L265.243 161.997ZM264.04 161.205L256.417 172.785L244.838 165.161L252.461 153.581L264.04 161.205ZM248.087 132.388L259.666 140.012L252.043 151.592L240.464 143.968L248.087 132.388ZM246.884 131.595L239.261 143.175L227.682 135.551L235.305 123.971L246.884 131.595ZM230.939 102.779L242.518 110.403L234.895 121.983L223.316 114.359L230.939 102.779ZM218.157 94.3693L229.736 101.993L222.113 113.573L210.534 105.949L218.157 94.3693ZM209.741 107.153L221.32 114.777L213.697 126.357L202.118 118.733L209.741 107.153ZM196.959 98.7361L208.538 106.36L200.915 117.94L189.336 110.316L196.959 98.7361ZM188.544 111.519L200.122 119.143L192.499 130.723L180.92 123.099L188.544 111.519ZM175.762 103.11L187.34 110.734L179.717 122.314L168.138 114.69L175.762 103.11ZM167.353 115.894L178.932 123.517L171.309 135.097L159.73 127.474L167.353 115.894ZM158.937 128.677L170.516 136.301L162.893 147.881L151.314 140.257L158.937 128.677ZM150.529 141.46L162.108 149.084L154.485 160.664L142.906 153.04L150.529 141.46ZM142.113 154.244L153.692 161.868L146.069 173.448L134.49 165.824L142.113 154.244ZM133.705 167.027L145.284 174.651L137.66 186.231L126.082 178.607L133.705 167.027ZM117.673 191.39L125.296 179.81L136.875 187.434L129.252 199.014L117.673 191.39Z" fill="#B1B1B1"/>
<path d="M304.85 216.381C305.023 212.936 304.922 208.267 303.711 203.799C301.391 195.26 284.697 166.35 277.167 156.42C269.638 146.49 257.468 125.268 246.905 112.874C236.804 101.02 221.781 93.519 220.484 92.8849C220.419 92.8561 220.383 92.8344 220.383 92.8344L187.729 92.6615C187.729 92.6615 155.68 107.21 139.116 128.922C126.146 145.928 115.129 195.649 110.965 216.388H304.85V216.381Z" stroke="#020046" stroke-miterlimit="10" stroke-linecap="round" stroke-linejoin="round"/>
<path d="M318.619 77.2335C318.619 77.2335 326.48 68.6368 330.363 68.7449C334.254 68.853 334.204 72.7226 332.179 76.0229C330.155 79.3233 327.172 82.0327 323.259 83.8846C319.347 85.7438 315.233 81.4995 318.619 77.2335Z" fill="white" stroke="#020046" stroke-miterlimit="10" stroke-linecap="round" stroke-linejoin="round"/>
<path d="M285.992 124.029L304.12 131.033L317.709 94.8089L320.664 85.7942L301.887 81.6147L285.992 124.029Z" fill="white" stroke="#020046" stroke-miterlimit="10" stroke-linecap="round" stroke-linejoin="round"/>
<path d="M320.649 96.2357H309.121C306.505 96.2357 304.387 94.1171 304.387 91.5014V64.4862H325.383V91.5014C325.383 94.1171 323.264 96.2357 320.649 96.2357Z" fill="white" stroke="#020046" stroke-miterlimit="10" stroke-linecap="round" stroke-linejoin="round"/>
<path d="M325.383 73.7026H304.387V86.7959H325.383V73.7026Z" fill="white" stroke="#020046" stroke-miterlimit="10" stroke-linecap="round" stroke-linejoin="round"/>
<path d="M325.382 69.5159H304.386C303.414 69.5159 302.621 68.7305 302.621 67.7505V63.0954C302.621 62.1226 303.406 61.33 304.386 61.33H325.382C326.355 61.33 327.148 62.1154 327.148 63.0954V67.7505C327.14 68.7305 326.355 69.5159 325.382 69.5159Z" fill="#B3FFD1" stroke="#020046" stroke-miterlimit="10" stroke-linecap="round" stroke-linejoin="round"/>
<path d="M306.273 61.3372V69.5159" stroke="#020046" stroke-miterlimit="10" stroke-linecap="round" stroke-linejoin="round"/>
<path d="M310.574 61.3372V69.5159" stroke="#020046" stroke-miterlimit="10" stroke-linecap="round" stroke-linejoin="round"/>
<path d="M314.883 61.3372V69.5159" stroke="#020046" stroke-miterlimit="10" stroke-linecap="round" stroke-linejoin="round"/>
<path d="M319.184 61.3372V69.5159" stroke="#020046" stroke-miterlimit="10" stroke-linecap="round" stroke-linejoin="round"/>
<path d="M323.492 61.3372V69.5159" stroke="#020046" stroke-miterlimit="10" stroke-linecap="round" stroke-linejoin="round"/>
<path d="M307.363 76.6715H322.408" stroke="#020046" stroke-miterlimit="10" stroke-linecap="round" stroke-linejoin="round"/>
<path d="M307.363 79.8062H322.408" stroke="#020046" stroke-miterlimit="10" stroke-linecap="round" stroke-linejoin="round"/>
<path d="M307.363 82.9335H322.408" stroke="#020046" stroke-miterlimit="10" stroke-linecap="round" stroke-linejoin="round"/>
<path d="M328.099 83.8776C329.447 82.0472 330.16 79.5035 327.566 78.2209C324.021 76.4626 319.849 80.8727 318.617 82.739C316.139 86.5005 317.299 87.9057 319.554 87.9561L319.54 87.9633C319.54 87.9633 315.757 92.1068 321.132 92.3157C326.06 92.4959 332.401 87.1707 328.099 83.8776Z" fill="white"/>
<path d="M318.617 82.7317C319.849 80.8653 324.021 76.4553 327.566 78.2135C331.017 79.9214 328.625 83.863 326.651 85.3763C322.594 88.4893 313.826 89.9953 318.617 82.7317Z" stroke="#020046" stroke-miterlimit="10" stroke-linecap="round" stroke-linejoin="round"/>
<path d="M319.539 87.9632C319.539 87.9632 315.756 92.1066 321.131 92.3156C326.053 92.503 332.393 87.1778 328.092 83.8774" stroke="#020046" stroke-miterlimit="10" stroke-linecap="round" stroke-linejoin="round"/>
<path d="M280.352 118.358C280.352 118.358 291.498 91.9265 293.609 86.0537C295.72 80.188 304.475 67.5992 309.612 71.7354C312.919 74.3944 305.231 86.7887 305.231 86.7887C305.231 86.7887 307.58 93.9226 307.933 99.4351L295.396 126.508L280.352 118.358Z" fill="white"/>
<path d="M280.352 118.358C280.352 118.358 291.498 91.9265 293.609 86.0537C295.72 80.188 304.475 67.5992 309.612 71.7354C312.919 74.3944 305.231 86.7887 305.231 86.7887C305.231 86.7887 307.58 93.9226 307.933 99.4351" stroke="#020046" stroke-miterlimit="10" stroke-linecap="round" stroke-linejoin="round"/>
<path d="M281.541 106.836L262.217 142.224L265.402 136.027C246.063 118.783 224.793 106.771 224.793 106.771L262.635 207.539C262.635 207.539 286.088 213.275 297.71 190.043C309.332 166.811 314.88 122.256 314.88 122.256L281.541 106.836Z" fill="#3458FF"/>
<path d="M314.889 122.256L281.543 106.836L262.219 142.224" stroke="#020046" stroke-miterlimit="10" stroke-linecap="round" stroke-linejoin="round"/>
<path d="M265.402 136.027C246.063 118.783 224.793 106.771 224.793 106.771" stroke="#020046" stroke-miterlimit="10" stroke-linecap="round" stroke-linejoin="round"/>
<path d="M275.445 118.005L312.855 135.652C314.217 127.654 314.887 122.264 314.887 122.264L281.541 106.836L275.445 118.005Z" fill="#3458FF" stroke="#020046" stroke-miterlimit="10" stroke-linecap="round" stroke-linejoin="round"/>
<path d="M280.316 120.304L285.994 108.896" stroke="#020046" stroke-miterlimit="10" stroke-linecap="round" stroke-linejoin="round"/>
<path d="M292.005 111.851L286.867 123.316" stroke="#020046" stroke-miterlimit="10" stroke-linecap="round" stroke-linejoin="round"/>
<path d="M299.199 115.166L294.242 126.796" stroke="#020046" stroke-miterlimit="10" stroke-linecap="round" stroke-linejoin="round"/>
<path d="M305.871 118.358L301.887 130.435" stroke="#020046" stroke-miterlimit="10" stroke-linecap="round" stroke-linejoin="round"/>
<path d="M311.94 121.103L308.402 133.548" stroke="#020046" stroke-miterlimit="10" stroke-linecap="round" stroke-linejoin="round"/>
<path d="M278.828 128.087L273.836 131.855L277.603 136.848L282.595 133.08L278.828 128.087Z" fill="white"/>
<path d="M286.371 146.299L281.379 150.067L285.146 155.059L290.138 151.292L286.371 146.299Z" fill="white"/>
<path d="M253.824 129.164L248.832 132.931L252.6 137.924L257.592 134.156L253.824 129.164Z" fill="white"/>
<path d="M303.945 138.122L298.953 141.889L302.721 146.882L307.713 143.114L303.945 138.122Z" fill="white"/>
<path d="M262.672 150.812L257.68 154.579L261.447 159.572L266.439 155.804L262.672 150.812Z" fill="white"/>
<path d="M271.387 166.972L266.395 170.74L270.162 175.733L275.154 171.965L271.387 166.972Z" fill="white"/>
<path d="M280.265 183.091L275.273 186.859L279.041 191.851L284.033 188.084L280.265 183.091Z" fill="white"/>
<path d="M259.816 182.232L254.824 186L258.592 190.992L263.584 187.225L259.816 182.232Z" fill="white"/>
<path d="M245.992 147.211L241 150.979L244.767 155.971L249.76 152.203L245.992 147.211Z" fill="white"/>
<path d="M293.324 169.413L288.332 173.181L292.1 178.174L297.092 174.406L293.324 169.413Z" fill="white"/>
<path d="M307.712 156.42L302.719 160.189L306.487 165.182L306.559 165.132C307.244 162.566 307.885 159.987 308.483 157.443L307.712 156.42Z" fill="white"/>
<path d="M298.216 189.02L297.056 187.478L292.062 191.246L294.829 194.914C295.852 193.451 296.818 191.837 297.711 190.043C297.884 189.711 298.05 189.366 298.216 189.02Z" fill="white"/>
<path d="M281.543 205.118L277.774 200.124L272.781 203.893L275.548 207.553C276.924 207.287 278.351 206.919 279.806 206.422L281.543 205.118Z" fill="white"/>
<path d="M128.868 209.658L131.159 216.381H270.522C269.11 200.384 264.167 162.185 253.208 135.119C241.557 106.331 219.668 98.5128 219.668 98.5128L169.426 100.105C147.176 112.687 120.805 159.98 128.205 206.163C128.392 207.359 128.615 208.526 128.868 209.658Z" fill="#3458FF"/>
<path d="M212.219 113.971L207.227 117.739L210.994 122.732L215.986 118.964L212.219 113.971Z" fill="white"/>
<path d="M229.937 125.93L224.945 129.698L228.713 134.69L233.705 130.922L229.937 125.93Z" fill="white"/>
<path d="M200.723 132.809L195.73 136.577L199.498 141.569L204.49 137.801L200.723 132.809Z" fill="white"/>
<path d="M217.445 148.756L212.453 152.524L216.221 157.517L221.213 153.749L217.445 148.756Z" fill="white"/>
<path d="M137.793 175.589L132.801 179.357L136.568 184.349L141.56 180.582L137.793 175.589Z" fill="white"/>
<path d="M147.519 147.984L142.527 151.752L146.295 156.745L151.287 152.977L147.519 147.984Z" fill="white"/>
<path d="M160.953 117.256L155.961 121.024L159.728 126.016L164.72 122.249L160.953 117.256Z" fill="white"/>
<path d="M249.293 144.377L244.301 148.145L248.068 153.138L253.06 149.37L249.293 144.377Z" fill="white"/>
<path d="M236.152 163.311L231.16 167.079L234.928 172.072L239.92 168.304L236.152 163.311Z" fill="white"/>
<path d="M201.68 165.173L196.688 168.941L200.455 173.933L205.447 170.165L201.68 165.173Z" fill="white"/>
<path d="M217.445 182.019L212.453 185.787L216.221 190.779L221.213 187.012L217.445 182.019Z" fill="white"/>
<path d="M236.152 196.171L231.16 199.939L234.928 204.931L239.92 201.164L236.152 196.171Z" fill="white"/>
<path d="M197.562 198.089L192.57 201.857L196.338 206.85L201.33 203.082L197.562 198.089Z" fill="white"/>
<path d="M236.925 110.345C235.297 108.745 233.697 107.333 232.17 106.101L229.273 108.284L233.042 113.278L236.925 110.345Z" fill="white"/>
<path d="M264.68 175.948C264.24 173.707 263.765 171.444 263.267 169.174L258.793 172.554L262.561 177.548L264.68 175.948Z" fill="white"/>
<path d="M127.306 198.726L132.241 195.001L128.473 190.007L126.945 191.16C126.967 193.682 127.089 196.204 127.306 198.726Z" fill="white"/>
<path d="M134.44 161.925L131.45 157.962C130.751 160.47 130.117 163.021 129.562 165.607L134.44 161.925Z" fill="white"/>
<path d="M142.654 136.243L147.647 132.474L144.16 127.855C143.029 129.794 141.926 131.804 140.867 133.872L142.654 136.243Z" fill="white"/>
<path d="M215.815 216.345L218.106 214.615L214.345 209.621L209.352 213.39L211.6 216.366L215.815 216.345Z" fill="white"/>
<path d="M270.442 215.502C268.929 199.021 263.972 161.695 253.207 135.112C241.557 106.324 219.667 98.5055 219.667 98.5055L199.219 99.154" stroke="#020046" stroke-miterlimit="10" stroke-linecap="round" stroke-linejoin="round"/>
<path d="M219.753 43.3294L209.724 43.4519C203.052 43.5312 197.669 49.8148 197.763 57.4099L197.95 72.9603C197.957 73.3999 197.986 73.8322 198.022 74.2574C197.921 74.7186 197.864 75.1942 197.871 75.6842L197.986 85.1528L197.993 85.6788L198.109 95.1475C198.152 98.5847 200.998 101.359 204.428 101.316L208.405 101.265C211.842 101.222 214.616 98.3758 214.573 94.9457L214.472 86.5652L220.272 86.4931C226.944 86.4139 232.326 80.1303 232.233 72.5352L232.045 56.9847C231.959 49.3968 226.425 43.2429 219.753 43.3294Z" fill="white" stroke="#020046" stroke-miterlimit="10" stroke-linecap="round" stroke-linejoin="round"/>
<path d="M198.002 70.7481C198.074 70.2077 197.707 67.4982 198.427 67.5054C200.387 67.527 201.806 66.72 203.291 65.2211C204.465 64.0321 205.171 62.5549 205.424 61.0201C206.439 60.6381 207.405 60.0545 208.219 59.2258C209.905 57.518 210.611 55.2337 210.402 53.0214C210.921 52.7044 211.418 52.3369 211.865 51.8901C212.232 51.5154 212.557 51.1191 212.83 50.6939C215.756 53.0719 219.971 52.9998 222.817 50.4993C223.019 50.7516 223.206 51.0182 223.437 51.256C226.492 54.2753 231.413 54.2536 234.432 51.1983C235.664 49.9517 236.363 48.388 236.586 46.7739C237.559 46.3919 238.474 45.8155 239.252 45.0228C242.271 41.9675 242.249 37.0458 239.194 34.0265C238.784 33.6158 238.33 33.2699 237.854 32.9744C237.847 30.9856 237.076 28.9968 235.548 27.4835C234.043 25.9919 232.083 25.2497 230.116 25.2424C229.734 24.3489 229.179 23.5058 228.444 22.778C225.879 20.2415 222.01 19.8812 219.041 21.625C218.659 20.6018 218.076 19.629 217.247 18.8075C214.192 15.7882 209.271 15.8098 206.252 18.858C205.56 19.5497 205.056 20.3496 204.681 21.1999C204.566 21.063 204.472 20.9189 204.343 20.7892C201.598 18.0725 197.166 18.0941 194.45 20.8396C193.802 21.4953 193.319 22.2448 192.98 23.0446C190.134 21.834 186.726 22.3889 184.413 24.7164C183.03 26.1144 182.316 27.9014 182.208 29.7246C180.609 29.6885 179.002 30.2722 177.784 31.4972C175.904 33.3996 175.572 36.2315 176.732 38.487C175.19 38.7752 173.713 39.5102 172.525 40.7064C169.426 43.8338 169.455 48.8852 172.582 51.9766C173.627 53.0142 174.895 53.6628 176.221 54.0014C174.117 56.6388 174.268 60.4796 176.718 62.908C177.892 64.0682 179.384 64.6735 180.911 64.796C178.505 67.7648 178.663 72.11 181.437 74.8555C183.959 77.356 187.8 77.6802 190.689 75.886C190.408 77.7739 190.977 79.77 192.44 81.2112C193.967 82.7244 196.086 83.2793 198.045 82.8757L198.002 70.7481Z" fill="white" stroke="#020046" stroke-miterlimit="10" stroke-linecap="round" stroke-linejoin="round"/>
<path d="M220 104.515L194.472 104.335C191.374 104.313 188.881 101.784 188.902 98.6856L188.931 94.4557C188.953 91.3571 191.482 88.8639 194.58 88.8927L220.108 89.0729C223.206 89.0945 225.699 91.6238 225.671 94.7223L225.642 98.9522C225.62 102.044 223.091 104.537 220 104.515Z" fill="#3458FF" stroke="#020046" stroke-miterlimit="10"/>
<path d="M191.223 89.9808V103.182" stroke="#020046" stroke-miterlimit="10" stroke-linecap="round" stroke-linejoin="round"/>
<path d="M194.969 88.8999V104.335" stroke="#020046" stroke-miterlimit="10" stroke-linecap="round" stroke-linejoin="round"/>
<path d="M199.184 89.0295V104.371" stroke="#020046" stroke-miterlimit="10" stroke-linecap="round" stroke-linejoin="round"/>
<path d="M203.293 88.9575V104.4" stroke="#020046" stroke-miterlimit="10" stroke-linecap="round" stroke-linejoin="round"/>
<path d="M208.695 88.9935V104.198" stroke="#020046" stroke-miterlimit="10" stroke-linecap="round" stroke-linejoin="round"/>
<path d="M213.625 89.0295V104.371" stroke="#020046" stroke-miterlimit="10" stroke-linecap="round" stroke-linejoin="round"/>
<path d="M218.633 89.0657V104.508" stroke="#020046" stroke-miterlimit="10" stroke-linecap="round" stroke-linejoin="round"/>
<path d="M222.414 89.6781V103.823" stroke="#020046" stroke-miterlimit="10" stroke-linecap="round" stroke-linejoin="round"/>
<path d="M212.039 62.317C212.054 63.5637 213.077 64.5653 214.33 64.5509C215.577 64.5365 216.578 63.5132 216.564 62.2594C216.55 61.0128 215.527 60.0111 214.273 60.0255C213.026 60.04 212.025 61.0632 212.039 62.317Z" fill="#020046"/>
<path d="M226.84 61.8054C226.854 62.8719 227.726 63.7222 228.793 63.715C229.859 63.7006 230.709 62.8286 230.702 61.7622C230.688 60.6957 229.816 59.8454 228.749 59.8526C227.683 59.8598 226.826 60.7389 226.84 61.8054Z" fill="#020046"/>
<path d="M224.794 71.0796C224.794 71.0796 223.699 74.4015 221.299 74.6609C218.9 74.9203 216.983 72.2758 216.832 70.2004L224.794 71.0796Z" fill="white" stroke="#020046" stroke-miterlimit="10" stroke-linecap="round" stroke-linejoin="round"/>
<path d="M221.078 67.6567L224.731 65.3724L221.446 59.9463" stroke="#020046" stroke-miterlimit="10" stroke-linecap="round" stroke-linejoin="round"/>
<path d="M210.109 58.2889L214.238 56.7828" stroke="#020046" stroke-miterlimit="10" stroke-linecap="round" stroke-linejoin="round"/>
<path d="M226.891 57.3522L230.645 57.309" stroke="#020046" stroke-miterlimit="10" stroke-linecap="round" stroke-linejoin="round"/>
<path d="M219.669 61.3659C219.669 66.2443 216.145 70.2004 211.793 70.2004C207.441 70.2004 203.918 66.2443 203.918 61.3659C203.918 56.4874 207.441 52.5314 211.793 52.5314C216.138 52.5314 219.669 56.4874 219.669 61.3659Z" stroke="#3458FF" stroke-miterlimit="10" stroke-linecap="round" stroke-linejoin="round"/>
<path d="M237.64 60.7534C237.64 65.1274 234.766 68.6799 231.221 68.6799C227.676 68.6799 224.801 65.1346 224.801 60.7534C224.801 56.3793 227.676 52.834 231.221 52.834C234.766 52.8268 237.64 56.3793 237.64 60.7534Z" stroke="#3458FF" stroke-miterlimit="10" stroke-linecap="round" stroke-linejoin="round"/>
<path d="M219.438 63.8736C220.295 63.4268 221.368 63.0449 222.874 63.0449C223.753 63.0449 224.438 63.153 225.144 63.3548" stroke="#3458FF" stroke-miterlimit="10" stroke-linecap="round" stroke-linejoin="round"/>
<path d="M203.912 62.2882L198.465 65.8912" stroke="#3458FF" stroke-miterlimit="10" stroke-linecap="round" stroke-linejoin="round"/>
<path d="M185.266 68.3341C185.317 72.7081 188.941 76.2102 193.351 76.1598C197.76 76.1094 201.291 72.5136 201.24 68.1396C201.19 63.7655 197.566 60.2635 193.156 60.3139C188.746 60.3715 185.209 63.9601 185.266 68.3341Z" fill="white"/>
<path d="M197.579 69.2348C197.579 69.2348 197.867 63.852 192.348 64.5149" stroke="#020046" stroke-miterlimit="10" stroke-linecap="round" stroke-linejoin="round"/>
<path d="M201.24 68.1395C201.211 65.9128 200.268 63.9168 198.762 62.4972" stroke="#020046" stroke-miterlimit="10" stroke-linecap="round" stroke-linejoin="round"/>
<path d="M198.762 62.4972C197.306 61.1209 195.325 60.285 193.156 60.3138C188.746 60.3643 185.216 63.96 185.266 68.3341C185.317 72.7081 188.941 76.2102 193.35 76.1597C194.712 76.1453 195.988 75.7922 197.104 75.1797C197.515 74.9563 198.574 74.2357 198.898 73.8971" stroke="#020046" stroke-miterlimit="10" stroke-linecap="round" stroke-linejoin="round"/>
<path d="M124.229 216.381C130.426 197.66 140.326 168.252 145.578 155.202C153.59 135.292 169.319 120.7 173.794 118.365C178.268 116.03 201.073 90.9248 201.073 90.9248L201.75 85.0736C201.75 85.0736 166.358 83.2721 132.811 124.577C107.873 155.281 96.7414 194.554 92.375 216.388H124.229V216.381Z" fill="white"/>
<path d="M201.74 85.0663C201.74 85.0663 201.026 85.0303 199.715 85.0879L201.595 86.3201L201.74 85.0663Z" fill="#B1B1B1"/>
<path d="M201.063 90.9175L201.423 87.819L195.184 97.2948C198.62 93.6054 201.063 90.9175 201.063 90.9175Z" fill="#B1B1B1"/>
<path d="M98.5031 216.381H100.225L106.458 206.905L118.036 214.529L116.819 216.381H118.541L119.24 215.321L120.846 216.381H123.469L120.032 214.118L127.655 202.538L128.621 203.172C128.779 202.704 128.938 202.235 129.096 201.76L128.448 201.334L130.069 198.87C130.667 197.09 131.28 195.281 131.892 193.473L127.237 200.542L115.659 192.918L123.282 181.338L133.693 188.191C133.852 187.722 134.018 187.254 134.176 186.786L124.074 180.142L131.697 168.562L138.874 173.282C139.04 172.813 139.205 172.345 139.371 171.884L132.49 167.358L140.113 155.778L144.271 158.517C144.451 158.048 144.631 157.587 144.804 157.14L140.906 154.575L148.522 142.988L150.82 144.501C151.065 144.083 151.31 143.672 151.555 143.262L149.307 141.784L156.93 130.204L159.546 131.927C159.855 131.545 160.165 131.177 160.468 130.81L157.715 129.001L165.339 117.421L170.404 120.75C170.822 120.404 171.218 120.087 171.593 119.806L166.138 116.218L173.761 104.638L182.595 110.453C182.934 110.107 183.28 109.761 183.633 109.408L174.554 103.434L182.177 91.8543L193.381 99.2332C193.72 98.8729 194.051 98.5126 194.383 98.1667L182.97 90.6581L184.922 87.6892C184.223 87.891 183.503 88.1144 182.768 88.345L181.766 89.8654L180.57 89.08C180.016 89.2745 179.454 89.4763 178.877 89.6925L180.967 91.0688L173.344 102.649L164.323 96.7111C163.869 96.9777 163.415 97.2587 162.954 97.5398L172.551 103.859L164.928 115.439L153.349 107.815L157.953 100.811C156.858 101.575 155.763 102.368 154.653 103.211L152.146 107.023L150.885 106.194C150.503 106.511 150.114 106.828 149.732 107.16L151.353 108.226L143.73 119.806L139.429 116.974C139.097 117.327 138.766 117.688 138.434 118.048L142.938 121.01L135.314 132.59L129.507 128.77C129.219 129.152 128.931 129.541 128.642 129.931L134.522 133.8L126.899 145.38L120.882 141.417C120.63 141.828 120.378 142.238 120.126 142.649L126.106 146.584L118.483 158.164L113.375 154.798C113.151 155.231 112.935 155.663 112.719 156.095L117.691 159.367L110.089 170.933L106.89 168.828C106.703 169.282 106.508 169.729 106.321 170.183L109.296 172.143L101.673 183.723L101.299 183.478C101.133 183.946 100.974 184.422 100.816 184.883L100.881 184.927L100.715 185.179C100.124 186.93 99.5622 188.659 99.029 190.36L102.084 185.719L113.663 193.343L106.04 204.923L96.5721 198.69C96.4352 199.18 96.3055 199.67 96.1758 200.153L105.247 206.126L98.5031 216.381ZM152.564 109.004L164.142 116.628L156.519 128.208L144.941 120.584L152.564 109.004ZM144.155 121.795L155.734 129.419L148.111 140.999L136.532 133.375L144.155 121.795ZM135.74 134.578L147.318 142.202L139.695 153.782L128.116 146.158L135.74 134.578ZM127.331 147.362L138.91 154.986L131.287 166.566L119.708 158.942L127.331 147.362ZM118.915 160.145L130.494 167.769L122.871 179.349L111.292 171.725L118.915 160.145ZM102.884 184.509L110.507 172.929L122.086 180.552L114.463 192.132L102.884 184.509ZM114.873 194.121L126.452 201.745L118.829 213.325L107.25 205.701L114.873 194.121Z" fill="#B1B1B1"/>
<path d="M95.6444 216.381L92.7551 214.478C92.6471 214.997 92.5462 215.501 92.4453 215.999L93.0289 216.381H95.6444Z" fill="#B1B1B1"/>
<path d="M124.229 216.381C130.426 197.66 140.326 168.252 145.578 155.202C153.59 135.292 169.319 120.7 173.794 118.365C178.268 116.03 201.073 90.9248 201.073 90.9248L201.75 85.0736C201.75 85.0736 166.358 83.2721 132.811 124.577C107.873 155.281 96.7414 194.554 92.375 216.388H124.229V216.381Z" stroke="#020046" stroke-miterlimit="10" stroke-linecap="round" stroke-linejoin="round"/>
<path fill-rule="evenodd" clip-rule="evenodd" d="M466.628 62.9596C466.72 62.8764 467.406 62.8158 468.41 63.0272C467.038 63.1484 466.536 63.0427 466.628 62.9596Z" fill="#F0F0F0"/>
<path d="M808.688 168.384C826.19 168.384 840.377 154.195 840.377 136.692C840.377 119.189 826.19 105 808.688 105C791.187 105 777 119.189 777 136.692C777 154.195 791.187 168.384 808.688 168.384Z" fill="#F0F0F0"/>
<path d="M688.174 76.0907C684.65 76.0907 681.516 77.7625 679.506 80.3422C678.288 79.881 676.977 79.6144 675.601 79.6144C672.495 79.6144 669.699 80.9043 667.704 82.9724C665.693 80.7602 662.804 79.3622 659.576 79.3622C657.098 79.3622 654.814 80.1981 652.976 81.5816C651.074 78.3029 647.536 76.0907 643.473 76.0907C641.261 76.0907 639.214 76.7464 637.485 77.8706C637.348 77.9282 637.211 77.9787 637.074 78.0435C634.351 79.3406 632.304 81.6249 631.303 84.464C629.948 88.2904 630.77 92.5707 633.436 95.6405C633.522 95.7414 633.645 95.7918 633.76 95.7918C633.861 95.7918 633.962 95.7558 634.048 95.6837C634.228 95.5252 634.25 95.2514 634.091 95.0712C631.627 92.2393 630.878 88.2904 632.124 84.7523C632.571 83.484 633.248 82.3455 634.106 81.3655C633.09 83.03 632.492 84.9756 632.492 87.0726C632.492 93.14 637.406 98.0545 643.473 98.0545C645.951 98.0545 648.235 97.2186 650.073 95.835C651.975 99.1138 655.512 101.326 659.576 101.326C662.682 101.326 665.477 100.036 667.473 97.968C669.483 100.18 672.373 101.578 675.601 101.578C679.124 101.578 682.258 99.9064 684.268 97.3267C685.486 97.7879 686.797 98.0545 688.174 98.0545C694.24 98.0545 699.154 93.14 699.154 87.0726C699.154 81.0052 694.24 76.0907 688.174 76.0907Z" fill="#020046"/>
<path d="M645.224 73.9217C645.224 73.9217 639.914 68.6974 639.914 58.1911C639.914 47.6776 649.987 39.4484 655.729 41.7255C655.729 41.7255 662.286 38.0432 672.496 38.2594C682.706 38.4756 692.959 47.1588 691.158 59.6035C689.356 72.0482 687.49 76.0979 687.49 76.0979L645.224 73.9217Z" fill="#020046"/>
<path d="M709.239 123.102C694.173 110.593 681.744 106.276 681.744 106.276L664.148 228.655H709.231V123.102H709.239Z" fill="white" stroke="#020046" stroke-miterlimit="10" stroke-linecap="round"/>
<path d="M611.496 141.341V230.219H717.658V155.299C717.658 155.299 699.81 113.115 684.679 111.349C677.071 110.463 666.436 102.89 651.932 105.628C637.795 108.294 620.106 121.805 611.496 141.341Z" fill="white"/>
<path d="M717.656 230.219V177.435" stroke="#020046" stroke-miterlimit="10" stroke-linecap="round"/>
<path d="M707.554 161.409H688.41V166.843H707.554V161.409Z" stroke="#020046" stroke-miterlimit="10" stroke-linecap="round"/>
<path d="M668.811 108.95H665.057C660.438 108.95 656.691 105.203 656.691 100.584V92.1023C656.691 87.4833 660.438 83.7362 665.057 83.7362H668.811C673.429 83.7362 677.176 87.4833 677.176 92.1023V100.584C677.176 105.203 673.429 108.95 668.811 108.95Z" fill="white" stroke="#020046" stroke-miterlimit="10"/>
<path d="M674.495 104.626L666.152 107.257L658.413 104.396C654.018 104.922 647.944 106.507 643.988 108.128L666.108 182.249L686.881 108.835C683.12 107.177 678.681 105.282 674.495 104.626Z" fill="#3458FF"/>
<path d="M682.434 106.003L679.299 100.137L666.582 107.019L654.73 99.856L649.391 106.276L663.506 116.732L666.582 107.256L669.659 116.732L682.434 106.003Z" fill="#3458FF"/>
<path d="M649.598 106.428L663.504 116.732L665.91 109.317L666.58 107.256L669.657 116.732L682.605 105.959" stroke="#020046" stroke-miterlimit="10" stroke-linecap="round" stroke-linejoin="round"/>
<path d="M666.582 107.256V180.88" stroke="#020046" stroke-miterlimit="10" stroke-linecap="round" stroke-linejoin="round"/>
<path d="M666.65 191.509L666.434 176.297L644.4 109.317L637.793 131.209L649.494 131.663L641.648 138.703L666.65 191.509Z" fill="white"/>
<path d="M644.335 109.534L637.793 131.454H649.725L641.648 138.703L666.65 190.471" stroke="#020046" stroke-miterlimit="10" stroke-linecap="round" stroke-linejoin="round"/>
<path d="M666.65 191.509L666.434 176.297L686.846 109.317L693.453 131.209L681.752 131.663L689.598 138.703L666.65 191.509Z" fill="white"/>
<path d="M686.909 109.534L693.452 131.454H681.52L689.597 138.703L666.648 190.471" stroke="#020046" stroke-miterlimit="10" stroke-linecap="round" stroke-linejoin="round"/>
<path d="M666.672 174.43L666.586 211.224" stroke="#020046" stroke-miterlimit="10" stroke-linecap="round" stroke-linejoin="round"/>
<path d="M655.654 205.142C655.654 205.142 670.281 204.933 674.51 203.881C678.733 202.829 690.275 200.869 693.273 201.467C696.861 202.181 701.292 205.971 698.403 207.174C695.506 208.378 679.064 210.424 679.064 210.424L654.206 209.848L653.176 206.865L655.654 205.142Z" fill="white"/>
<path d="M655.654 205.142C655.654 205.142 670.281 204.933 674.51 203.881C678.733 202.829 690.275 200.869 693.273 201.467C696.861 202.181 701.292 205.971 698.403 207.174C695.506 208.378 679.064 210.424 679.064 210.424L654.206 209.848L653.176 206.865L655.654 205.142Z" stroke="#020046" stroke-miterlimit="10" stroke-linecap="round" stroke-linejoin="round"/>
<path d="M707.935 223.719L706.919 224.49C706.169 225.06 705.096 224.908 704.534 224.159L675.533 185.751C674.963 185.002 675.115 183.928 675.864 183.366L676.88 182.595C677.629 182.026 678.703 182.177 679.265 182.926L708.266 221.334C708.835 222.084 708.684 223.15 707.935 223.719Z" fill="#020046"/>
<path d="M704.117 223.546C704.117 223.546 709.932 228.972 710.861 228.648C711.784 228.317 707.785 220.686 707.785 220.686L704.117 223.546Z" fill="#020046"/>
<path d="M653.169 206.857C653.695 206.49 666.246 206.605 666.246 206.605C666.246 206.605 678.027 203.096 688.381 204.559C699.253 206.093 699.657 206.072 700.918 207.023C701.321 207.333 702.395 207.672 703.223 208.471C704.96 210.143 706.127 212.471 701.299 211.246C701.299 211.246 705.507 211.556 706.732 213.213C707.957 214.87 707.251 218.682 704.736 218.387C704.736 218.387 706.912 220.066 706.141 222.631C705.601 224.433 702.69 225.542 699.556 224.649C699.556 224.649 704.282 227.221 700.334 230.14C699.714 230.601 695.809 230.262 690.708 230.255C679.273 230.241 661.822 229.909 661.822 229.909L651.23 228.057L653.169 206.857Z" fill="white"/>
<path d="M683.234 204.018C683.234 204.018 691.42 204.796 695.966 205.618C701.694 206.641 704.828 208.58 704.655 211.909" stroke="#020046" stroke-miterlimit="10" stroke-linecap="round" stroke-linejoin="round"/>
<path d="M686.883 209.358C686.883 209.358 704.125 210.532 706.359 212.802C708.592 215.065 706.798 217.746 704.672 218.61" stroke="#020046" stroke-miterlimit="10" stroke-linecap="round" stroke-linejoin="round"/>
<path d="M685.578 215.598C685.578 215.598 703.029 216.751 705.659 219.619C707.662 221.802 705.14 225.168 702.719 224.944" stroke="#020046" stroke-miterlimit="10" stroke-linecap="round" stroke-linejoin="round"/>
<path d="M686.696 223.222C686.696 223.222 701.077 223.517 703.361 225.276C705.652 227.034 703.685 229.736 699.326 229.909L654.164 230.241" stroke="#020046" stroke-miterlimit="10" stroke-linecap="round" stroke-linejoin="round"/>
<path d="M607.251 181.636L617.857 183.87L625.761 165.553L634.825 117.993L643.983 108.114C643.983 108.114 614.852 113.778 584.345 159.947C574.64 174.632 569.445 186.587 566.707 195.515C560.799 214.755 567.954 221.918 577.767 225.975C592.141 231.912 661.816 229.873 661.816 229.873L663.92 193.57L607.251 181.636Z" fill="white"/>
<path d="M650.164 230.111C657.225 230.01 661.822 229.88 661.822 229.88L663.926 193.577L652.556 191.184L650.164 230.111Z" fill="white" stroke="#020046" stroke-miterlimit="10"/>
<path d="M649.395 106.276C649.395 106.276 614.226 112.149 584.354 159.961C554.92 207.066 563.401 220.044 577.775 225.989C592.15 231.927 661.824 229.888 661.824 229.888L663.928 193.584L607.252 181.644" stroke="#020046" stroke-miterlimit="10" stroke-linecap="round"/>
<path d="M617.859 183.878L625.771 165.56" stroke="#020046" stroke-miterlimit="10" stroke-linecap="round"/>
<path d="M692.995 61.0591C692.995 61.0591 701.908 68.4956 706.087 73.1363C710.259 77.7769 723.552 107.775 723.552 107.775L702.909 118.181L695.74 102.803C695.74 102.803 681.755 94.2353 684.738 78.1444L692.995 61.0591Z" fill="white" stroke="#020046" stroke-miterlimit="10" stroke-linecap="round"/>
<path d="M702.801 93.2553L691.82 97.7374C689.673 98.6166 687.23 97.5861 686.351 95.4387L674.607 66.6725C673.728 64.5251 674.758 62.0823 676.905 61.2032L687.886 56.7211C690.033 55.842 692.476 56.8724 693.355 59.0198L705.099 87.786C705.971 89.9334 704.941 92.3762 702.801 93.2553Z" fill="#020046"/>
<path d="M694.953 89.2921L690.162 91.2521C688.785 91.8141 687.215 91.1512 686.653 89.7821L677.329 66.9608C676.767 65.5844 677.43 64.0135 678.799 63.4515L683.59 61.4914C684.967 60.9294 686.537 61.5923 687.099 62.9615L696.423 85.7828C696.985 87.1591 696.329 88.73 694.953 89.2921Z" fill="white"/>
<path d="M689.012 59.8197L701.657 91.2953" stroke="white" stroke-width="0.75" stroke-miterlimit="10" stroke-linecap="round" stroke-linejoin="round"/>
<path d="M730.375 101.103L695.336 119.168L718.018 185.549L718.083 207.369C738.056 211.441 756.976 215.238 769.024 195.544C782.519 173.465 730.375 101.103 730.375 101.103Z" fill="white"/>
<path d="M717.658 207.283C737.782 211.383 756.89 215.382 769.016 195.544C782.519 173.465 730.375 101.095 730.375 101.095L695.336 119.161L723.487 201.345" stroke="#020046" stroke-miterlimit="10" stroke-linecap="round"/>
<path d="M699.066 130.063L736.915 110.903" stroke="#020046" stroke-miterlimit="10" stroke-linecap="round"/>
<path d="M702.41 122.483C702.41 123.405 701.66 124.154 700.738 124.154C699.816 124.154 699.066 123.405 699.066 122.483C699.066 121.56 699.816 120.811 700.738 120.811C701.66 120.811 702.41 121.56 702.41 122.483Z" stroke="#020046" stroke-miterlimit="10" stroke-linecap="round"/>
<path d="M683.949 78.8938C683.863 87.2599 676.953 94.0407 668.581 93.9542L663.638 93.9038C655.273 93.8173 648.492 86.9068 648.579 78.5335L648.745 62.1183C648.831 53.7522 655.741 46.9714 664.113 47.0578L669.056 47.1083C677.421 47.1947 684.201 54.1053 684.115 62.4786L683.949 78.8938Z" fill="white" stroke="#020046" stroke-miterlimit="10"/>
<path d="M685.634 49.8466C682.543 44.4853 667.001 38.4179 656.438 45.2419L657.022 46.467C655.977 45.7247 654.788 45.4005 653.462 45.84C647.936 47.6848 643.714 54.8331 647.179 63.9342C647.179 63.9342 657.93 62.947 661.345 57.2255C661.921 58.4937 662.808 59.9133 664.184 61.2464C664.256 61.3184 664.349 61.3545 664.443 61.3545C664.544 61.3545 664.638 61.3184 664.71 61.2392C664.854 61.0879 664.854 60.8573 664.703 60.7131C663.204 59.2503 662.318 57.6722 661.792 56.3391C661.835 56.2382 661.878 56.1446 661.921 56.0437C663.103 58.1983 665.135 60.4681 668.644 61.8445C668.687 61.8589 668.737 61.8733 668.781 61.8733C668.932 61.8733 669.069 61.7796 669.127 61.6355C669.199 61.4409 669.105 61.2248 668.918 61.1527C666.266 60.115 664.522 58.5369 663.355 56.9084C666.475 59.0414 673.089 62.2985 684.639 62.5867C684.625 62.5795 688.717 55.2078 685.634 49.8466Z" fill="#020046"/>
<path d="M649.825 72.1347C648.866 70.5998 647.18 69.5621 645.228 69.4973C642.137 69.4036 639.557 71.8104 639.464 74.8801C639.37 77.9427 641.798 80.508 644.889 80.6017C646.712 80.6593 648.362 79.8378 649.421 78.5336" fill="white"/>
<path d="M649.825 72.1347C648.866 70.5998 647.18 69.5621 645.228 69.4973C642.137 69.4036 639.557 71.8104 639.464 74.8801C639.37 77.9427 641.798 80.508 644.889 80.6017C646.712 80.6593 648.362 79.8378 649.421 78.5336" stroke="#020046" stroke-miterlimit="10" stroke-linecap="round" stroke-linejoin="round"/>
<path d="M647.95 76.134C648.008 75.8962 648.044 75.6512 648.051 75.399C648.109 73.5615 646.646 72.0194 644.794 71.9618C644.34 71.9473 643.908 72.0266 643.512 72.1707" stroke="#020046" stroke-miterlimit="10" stroke-linecap="round" stroke-linejoin="round"/>
<path d="M676.455 70.0522C676.505 71.1835 677.456 72.0626 678.587 72.0122C679.719 71.9617 680.598 71.0105 680.547 69.8792C680.497 68.7479 679.546 67.8687 678.414 67.9192C677.283 67.9696 676.411 68.9208 676.455 70.0522Z" fill="#020046"/>
<path d="M654.776 70.0522C654.826 71.1835 655.777 72.0626 656.908 72.0122C658.039 71.9617 658.918 71.0105 658.868 69.8792C658.818 68.7479 657.867 67.8687 656.735 67.9192C655.604 67.9696 654.725 68.9208 654.776 70.0522Z" fill="#020046"/>
<path d="M658.867 65.5051C658.867 65.5051 655.964 64.8566 653.773 66.4563" stroke="#020046" stroke-miterlimit="10" stroke-linecap="round" stroke-linejoin="round"/>
<path d="M676.484 65.5051C676.484 65.5051 679.388 64.8566 681.578 66.4563" stroke="#020046" stroke-miterlimit="10" stroke-linecap="round" stroke-linejoin="round"/>
<path d="M667.18 66.8887L668.96 74.9738H665.984" stroke="#020046" stroke-miterlimit="10" stroke-linecap="round" stroke-linejoin="round"/>
<path d="M671.277 80.8251C671.277 82.7419 669.382 84.2911 667.054 84.2911C664.72 84.2911 662.832 82.7419 662.832 80.8251" stroke="#020046" stroke-miterlimit="10" stroke-linecap="round" stroke-linejoin="round"/>
<path d="M326.383 216.381H598.848" stroke="#020046" stroke-miterlimit="10" stroke-linecap="round"/>
<path d="M650.4 236.358L629.98 267.971H717.163L737.583 236.358H650.4Z" fill="white" stroke="#020046" stroke-miterlimit="10" stroke-linecap="round"/>
<path d="M646.076 234.917L625.656 266.53H712.839L733.259 234.917H646.076Z" fill="white" stroke="#020046" stroke-miterlimit="10" stroke-linecap="round"/>
<path d="M650.4 232.755L629.98 264.368H717.163L737.583 232.755H650.4Z" fill="white" stroke="#020046" stroke-miterlimit="10" stroke-linecap="round"/>
<path d="M714.381 259.201H640.203" stroke="#020046" stroke-miterlimit="10" stroke-linecap="round"/>
<path d="M717.27 254.035H643.266" stroke="#020046" stroke-miterlimit="10" stroke-linecap="round"/>
<path d="M721.815 248.558H646.074" stroke="#020046" stroke-miterlimit="10" stroke-linecap="round"/>
<path d="M724.553 243.939H665.859" stroke="#020046" stroke-miterlimit="10" stroke-linecap="round"/>
<path d="M728.147 238.78H681.5" stroke="#020046" stroke-miterlimit="10" stroke-linecap="round"/>
<path d="M608.377 221.521C601.013 221.327 594.874 227.798 594.658 235.969C594.442 244.141 600.235 250.922 607.599 251.116C614.962 251.311 621.101 244.84 621.317 236.668C621.534 228.497 615.741 221.716 608.377 221.521ZM607.743 245.669C603.088 245.546 599.428 241.259 599.565 236.099C599.702 230.932 603.585 226.847 608.233 226.969C612.887 227.092 616.548 231.379 616.411 236.539C616.274 241.698 612.39 245.791 607.743 245.669Z" fill="white" stroke="#020046" stroke-miterlimit="10" stroke-linecap="round" stroke-linejoin="round"/>
<path d="M572.973 217.875L572.108 251.059C571.993 255.505 575.466 259.201 579.868 259.317L600.662 259.872C605.065 259.987 608.725 256.478 608.84 252.031L609.719 218.336C609.734 217.76 609.28 217.277 608.704 217.27L574.01 216.859C573.456 216.859 572.995 217.306 572.973 217.875Z" fill="white" stroke="#020046" stroke-miterlimit="10" stroke-linecap="round" stroke-linejoin="round"/>
<path d="M591.289 221.197C601.349 221.197 609.504 219.661 609.504 217.767C609.504 215.873 601.349 214.337 591.289 214.337C581.229 214.337 573.074 215.873 573.074 217.767C573.074 219.661 581.229 221.197 591.289 221.197Z" fill="white" stroke="#020046" stroke-miterlimit="10" stroke-linecap="round" stroke-linejoin="round"/>
<path d="M591.29 221.197C600.419 221.197 607.819 220.307 607.819 219.208C607.819 218.11 600.419 217.219 591.29 217.219C582.162 217.219 574.762 218.11 574.762 219.208C574.762 220.307 582.162 221.197 591.29 221.197Z" fill="#020046"/>
<path d="M601.448 230.313C598.898 227.92 594.2 227.056 590.972 231.689C587.989 226.89 583.255 227.51 580.582 229.758C577.606 232.266 577.527 237.627 580.899 242.181C582.895 244.876 586.231 246.8 588.457 247.866C589.25 248.241 590.749 248.688 590.749 248.688C591.217 248.529 592.024 248.241 592.997 247.823C595.266 246.843 598.451 245.15 600.476 242.7C604.078 238.333 604.287 232.972 601.448 230.313Z" fill="#B3FFD1"/>
<path d="M590.757 209.991C593.986 209.883 596.522 207.348 596.42 204.329C596.319 201.311 593.619 198.951 590.39 199.059C587.161 199.168 584.625 201.703 584.726 204.721C584.827 207.74 587.527 210.1 590.757 209.991Z" stroke="#B1B1B1" stroke-width="0.75" stroke-miterlimit="10" stroke-linecap="round" stroke-linejoin="round"/>
<path d="M589.292 192.943C599.005 186.191 606.419 170.532 593.673 155.969C579.731 140.029 560.666 158.541 555.644 131.562C550.622 104.583 521.412 106.103 505.784 122.31C490.149 138.516 496.006 167.325 518.429 174.776C540.859 182.227 559.852 170.741 562.993 184.144C566.135 197.504 583.528 196.949 589.292 192.943Z" stroke="#B1B1B1" stroke-width="0.75" stroke-miterlimit="10" stroke-linecap="round" stroke-linejoin="round"/>
<path d="M548.242 52.3586V101.302H611.655V52.3586L548.242 52.3586Z" fill="white" stroke="#B1B1B1" stroke-miterlimit="10" stroke-linecap="round" stroke-linejoin="round"/>
<path d="M551.492 55.4644V98.1958H608.406V55.4644H551.492Z" stroke="#B1B1B1" stroke-miterlimit="10" stroke-linecap="round" stroke-linejoin="round"/>
<path d="M548.242 101.304L551.492 98.1985" stroke="#B1B1B1" stroke-miterlimit="10" stroke-linecap="round" stroke-linejoin="round"/>
<path d="M611.656 101.304L608.406 98.1985" stroke="#B1B1B1" stroke-miterlimit="10" stroke-linecap="round" stroke-linejoin="round"/>
<path d="M608.406 55.4671L611.656 52.3613" stroke="#B1B1B1" stroke-miterlimit="10" stroke-linecap="round" stroke-linejoin="round"/>
<path d="M548.242 52.3613L551.492 55.4671" stroke="#B1B1B1" stroke-miterlimit="10" stroke-linecap="round" stroke-linejoin="round"/>
<path d="M600.842 60.9221H559.059V64.835H600.842V60.9221Z" fill="#B1B1B1"/>
<path d="M602.945 89.4937C602.945 91.3673 601.424 92.8805 599.558 92.8805C597.685 92.8805 596.172 91.3601 596.172 89.4937C596.172 87.6202 597.692 86.1069 599.558 86.1069C601.424 86.1069 602.945 87.6202 602.945 89.4937Z" fill="#B1B1B1"/>
<path d="M555.125 69.843H604.783" stroke="#B1B1B1" stroke-miterlimit="10" stroke-linecap="round" stroke-linejoin="round"/>
<path d="M555.125 73.5901H604.783" stroke="#B1B1B1" stroke-miterlimit="10" stroke-linecap="round" stroke-linejoin="round"/>
<path d="M555.125 77.3372H604.783" stroke="#B1B1B1" stroke-miterlimit="10" stroke-linecap="round" stroke-linejoin="round"/>
<path d="M555.125 81.0844H604.783" stroke="#B1B1B1" stroke-miterlimit="10" stroke-linecap="round" stroke-linejoin="round"/>
<path d="M555.125 84.8314H593.154" stroke="#B1B1B1" stroke-miterlimit="10" stroke-linecap="round" stroke-linejoin="round"/>
<path d="M555.125 88.5785H575.545" stroke="#B1B1B1" stroke-miterlimit="10" stroke-linecap="round" stroke-linejoin="round"/>
<path d="M506.277 -12.4576V36.4854L569.69 36.4854V-12.4576L506.277 -12.4576Z" fill="white" stroke="#B1B1B1" stroke-miterlimit="10" stroke-linecap="round" stroke-linejoin="round"/>
<path d="M509.527 -9.35175V33.3796H566.441V-9.35175H509.527Z" stroke="#B1B1B1" stroke-miterlimit="10" stroke-linecap="round" stroke-linejoin="round"/>
<path d="M506.273 36.4868L509.523 33.381" stroke="#B1B1B1" stroke-miterlimit="10" stroke-linecap="round" stroke-linejoin="round"/>
<path d="M569.687 36.4868L566.438 33.381" stroke="#B1B1B1" stroke-miterlimit="10" stroke-linecap="round" stroke-linejoin="round"/>
<path d="M558.873 -3.88831H517.09V0.0245333H558.873V-3.88831Z" fill="#B1B1B1"/>
<path d="M557.582 28.0701C559.452 28.0701 560.968 26.5538 560.968 24.6833C560.968 22.8128 559.452 21.2965 557.582 21.2965C555.711 21.2965 554.195 22.8128 554.195 24.6833C554.195 26.5538 555.711 28.0701 557.582 28.0701Z" fill="#B1B1B1"/>
<path d="M513.156 5.03271H562.807" stroke="#B1B1B1" stroke-miterlimit="10" stroke-linecap="round" stroke-linejoin="round"/>
<path d="M513.156 8.77979H562.807" stroke="#B1B1B1" stroke-miterlimit="10" stroke-linecap="round" stroke-linejoin="round"/>
<path d="M513.156 12.5269H562.807" stroke="#B1B1B1" stroke-miterlimit="10" stroke-linecap="round" stroke-linejoin="round"/>
<path d="M513.156 16.274H562.807" stroke="#B1B1B1" stroke-miterlimit="10" stroke-linecap="round" stroke-linejoin="round"/>
<path d="M513.156 20.0211H551.185" stroke="#B1B1B1" stroke-miterlimit="10" stroke-linecap="round" stroke-linejoin="round"/>
<path d="M513.156 23.7682H533.576" stroke="#B1B1B1" stroke-miterlimit="10" stroke-linecap="round" stroke-linejoin="round"/>
<path d="M401.992 17.2655L409.687 2.11133L417.39 15.8819" stroke="#B1B1B1" stroke-miterlimit="10" stroke-linecap="round" stroke-linejoin="round"/>
<path d="M411.804 2.11135C411.804 3.27871 410.86 4.2227 409.693 4.2227C408.526 4.2227 407.582 3.27871 407.582 2.11135C407.582 0.943981 408.526 0 409.693 0C410.853 0 411.804 0.943981 411.804 2.11135Z" fill="#B1B1B1"/>
<path d="M436.383 14.7002H383V60.595H436.383V14.7002Z" fill="white" stroke="#B1B1B1" stroke-miterlimit="10" stroke-linecap="round" stroke-linejoin="round"/>
<path d="M428.896 21.1423H390.492V54.1601H428.896V21.1423Z" stroke="#B1B1B1" stroke-miterlimit="10" stroke-linecap="round" stroke-linejoin="round"/>
<path d="M383 14.7002L390.493 21.1423" stroke="#B1B1B1" stroke-miterlimit="10" stroke-linecap="round" stroke-linejoin="round"/>
<path d="M436.384 14.7002L428.891 21.1423" stroke="#B1B1B1" stroke-miterlimit="10" stroke-linecap="round" stroke-linejoin="round"/>
<path d="M436.384 60.595L428.891 54.16" stroke="#B1B1B1" stroke-miterlimit="10" stroke-linecap="round" stroke-linejoin="round"/>
<path d="M383 60.595L390.493 54.16" stroke="#B1B1B1" stroke-miterlimit="10" stroke-linecap="round" stroke-linejoin="round"/>
<path d="M404.789 32.0233C404.789 32.0233 401.014 25.9775 399.212 26.3018C397.411 26.626 396.655 36.7432 397.613 36.21C398.571 35.6839 404.789 32.0233 404.789 32.0233Z" fill="white" stroke="#B1B1B1" stroke-width="0.75" stroke-miterlimit="10"/>
<path d="M414.891 31.3748C414.891 31.3748 418.882 25.4731 420.669 25.855C422.456 26.2442 422.838 36.383 421.901 35.8209C420.972 35.2588 414.891 31.3748 414.891 31.3748Z" fill="#B1B1B1"/>
<path d="M423.069 38.5663C422.968 44.2014 416.88 48.6691 409.473 48.5322C402.066 48.3953 396.143 43.7186 396.251 38.0763C396.352 32.4413 402.441 27.9736 409.848 28.1105C417.255 28.2402 423.177 32.9241 423.069 38.5663Z" fill="white"/>
<path d="M396.251 38.0692C396.244 38.5592 396.28 39.042 396.359 39.5176C397.188 39.9355 398.167 40.1949 399.234 40.2093C402.217 40.267 404.674 38.4583 404.717 36.1668C404.76 33.8825 402.375 31.9873 399.385 31.9297C399.292 31.9297 399.198 31.9369 399.104 31.9369C397.353 33.6303 396.294 35.7488 396.251 38.0692Z" fill="#B1B1B1"/>
<path d="M423.069 38.5663C422.968 44.2014 416.88 48.6691 409.473 48.5322C402.066 48.3953 396.143 43.7186 396.251 38.0763C396.352 32.4413 402.441 27.9736 409.848 28.1105C417.255 28.2402 423.177 32.9241 423.069 38.5663Z" stroke="#B1B1B1" stroke-width="0.75" stroke-miterlimit="10"/>
<path d="M414.22 37.363C414.22 37.5359 414.076 37.68 413.896 37.6728C413.723 37.6728 413.579 37.5215 413.586 37.3486C413.586 37.1756 413.738 37.0315 413.91 37.0387C414.083 37.0387 414.227 37.1828 414.22 37.363Z" fill="#B1B1B1"/>
<path d="M414.255 38.5663C414.255 38.7393 414.104 38.8834 413.931 38.8762C413.758 38.8762 413.614 38.7249 413.621 38.5519C413.621 38.379 413.773 38.2349 413.946 38.2421C414.118 38.2493 414.255 38.3934 414.255 38.5663Z" fill="#B1B1B1"/>
<path d="M415.209 37.8818C415.209 38.0547 415.057 38.1988 414.884 38.1916C414.711 38.1916 414.567 38.0403 414.574 37.8674C414.574 37.6944 414.726 37.5503 414.899 37.5575C415.072 37.5575 415.216 37.7016 415.209 37.8818Z" fill="#B1B1B1"/>
<path d="M405.688 37.4926C405.688 37.6656 405.824 37.8097 405.997 37.8169C406.17 37.8241 406.314 37.68 406.322 37.507C406.322 37.3341 406.185 37.19 406.012 37.1828C405.832 37.1756 405.688 37.3125 405.688 37.4926Z" fill="#B1B1B1"/>
<path d="M405.609 38.696C405.609 38.8689 405.746 39.013 405.919 39.0202C406.092 39.0202 406.236 38.8833 406.243 38.7104C406.243 38.5374 406.107 38.3933 405.934 38.3861C405.761 38.3789 405.609 38.523 405.609 38.696Z" fill="#B1B1B1"/>
<path d="M404.68 37.9754C404.68 38.1484 404.817 38.2925 404.99 38.2997C405.162 38.2997 405.307 38.1628 405.314 37.9898C405.314 37.8169 405.177 37.6728 405.004 37.6656C404.831 37.6583 404.68 37.7953 404.68 37.9754Z" fill="#B1B1B1"/>
<path d="M408.593 39.604C408.363 40.6488 408.492 42.9691 410.027 42.998C411.562 43.0268 411.771 40.7137 411.583 39.6616C411.54 39.4022 411.137 39.5031 411.187 39.7625C411.324 40.5191 411.245 42.6088 410.034 42.5872C408.824 42.5656 408.824 40.4759 408.99 39.7193C409.04 39.467 408.644 39.3518 408.593 39.604Z" fill="#B1B1B1"/>
<path d="M411.382 36.7505C411.375 37.2333 410.813 37.6152 410.136 37.608C409.451 37.5935 408.911 37.19 408.918 36.7072C408.925 36.2244 409.487 35.8425 410.165 35.8497C410.849 35.8569 411.397 36.2604 411.382 36.7505Z" fill="#B1B1B1"/>
<path d="M409.942 37.2045C409.928 37.853 409.921 38.4943 409.906 39.1429C409.899 39.4095 410.31 39.4167 410.317 39.1501C410.331 38.5015 410.339 37.8602 410.353 37.2117C410.353 36.945 409.942 36.9378 409.942 37.2045Z" fill="#B1B1B1"/>
<path d="M402.621 37.5792C402.621 38.1556 402.152 38.624 401.576 38.624C401 38.624 400.531 38.1556 400.531 37.5792C400.531 37.0027 401 36.5343 401.576 36.5343C402.16 36.5343 402.621 37.0027 402.621 37.5792Z" fill="#B1B1B1"/>
<path d="M419.675 37.6728C419.675 38.2493 419.207 38.7177 418.631 38.7177C418.054 38.7177 417.586 38.2493 417.586 37.6728C417.586 37.0963 418.054 36.6279 418.631 36.6279C419.207 36.6279 419.675 37.0963 419.675 37.6728Z" fill="#B1B1B1"/>
<path d="M80.0469 216.381H326.876" stroke="#020046" stroke-miterlimit="10" stroke-linecap="round"/>
<path d="M164.391 131.033C164.391 131.033 167.129 104.602 168.397 95.3277C169.665 86.0536 174.276 75.0861 178.311 75.1149C182.346 75.1437 179.529 82.8902 180.228 86.5292C180.934 90.1682 183.175 93.3388 183.175 93.3388L176.431 132.482L164.391 131.033Z" fill="white" stroke="#020046" stroke-miterlimit="10" stroke-linecap="round" stroke-linejoin="round"/>
<path d="M203.297 105.178C200.674 103.406 199.478 104.969 197.626 106.504C197.144 106.562 195.573 107.225 194.182 104.393C192.799 101.561 187.546 86.3347 186.941 82.1481C186.329 77.9614 187.914 77.529 187.935 77.4642C190.565 77.5867 192.626 78.4586 193.815 75.3024C195.025 72.1102 196.913 60.4005 191.574 58.9232C186.242 57.446 178.835 62.4398 176.89 68.9828C175.37 74.1134 177.963 85.8663 180.053 93.375C180.053 93.375 180.456 94.9242 180.781 95.8898C181.076 96.8698 181.638 98.3615 181.638 98.3615C184.261 105.704 188.915 116.802 193.123 120.109C198.484 124.332 207.411 124.144 210.92 119.857C214.422 115.562 206.129 107.088 203.297 105.178Z" fill="#B3FFD1" stroke="#020046" stroke-miterlimit="10" stroke-linecap="round" stroke-linejoin="round"/>
<path d="M191.573 58.9159C190.269 58.5556 188.835 58.5844 187.387 58.9231C191.753 66.1651 189.671 74.0917 188.41 77.4857C190.809 77.673 192.69 78.2567 193.807 75.2951C195.017 72.1028 196.912 60.3931 191.573 58.9159Z" stroke="#020046" stroke-miterlimit="10" stroke-linecap="round" stroke-linejoin="round"/>
<path d="M210.919 119.85C210.062 120.902 208.873 121.701 207.497 122.256C206.884 113.818 200.616 108.543 197.633 106.497C199.485 104.962 200.688 103.398 203.303 105.171C206.128 107.088 214.421 115.562 210.919 119.85Z" stroke="#020046" stroke-miterlimit="10" stroke-linecap="round" stroke-linejoin="round"/>
<path d="M195.278 91.422C195.79 85.8806 193.534 84.0575 193.534 84.0575L193.325 84.3169C193.325 83.4738 193.232 82.8325 193.117 82.4289C192.554 80.541 190.775 79.352 186.97 84.1223C183.166 88.8927 174.217 96.7256 174.217 96.7256L169.426 131.783L187.741 133.231C187.741 133.231 189.146 123.878 190.897 119.496C192.648 115.115 196.229 108.846 197.151 99.5431C197.951 91.3715 195.278 91.422 195.278 91.422Z" fill="white"/>
<path d="M174.211 96.74C174.211 96.74 183.16 88.9071 186.964 84.1367C190.769 79.3664 192.541 80.5554 193.11 82.4433C193.672 84.3313 193.723 91.6454 185.271 100.004" stroke="#020046" stroke-miterlimit="10" stroke-linecap="round" stroke-linejoin="round"/>
<path d="M193.527 84.0575C193.527 84.0575 198.917 88.3811 191.164 104.09" stroke="#020046" stroke-miterlimit="10" stroke-linecap="round" stroke-linejoin="round"/>
<path d="M195.277 91.422C195.277 91.422 197.951 91.3716 197.144 99.5575C196.221 108.868 192.648 115.13 190.889 119.511C189.139 123.892 187.734 133.245 187.734 133.245L169.418 131.797" stroke="#020046" stroke-miterlimit="10" stroke-linecap="round" stroke-linejoin="round"/>
<path d="M128.867 209.657C137.6 249.074 179.794 239.649 190.594 221.547C201.705 202.934 198.895 127.041 198.895 127.041L157.983 122.768L134.689 200.102L128.867 209.657Z" fill="#3458FF"/>
<path d="M167.453 163.921L162.461 167.689L166.228 172.681L171.22 168.913L167.453 163.921Z" fill="white"/>
<path d="M188.992 150.494L184 154.262L187.767 159.254L192.76 155.487L188.992 150.494Z" fill="white"/>
<path d="M170.762 137.612L165.77 141.38L169.537 146.373L174.529 142.605L170.762 137.612Z" fill="white"/>
<path d="M159.273 187.822L154.281 191.59L158.049 196.583L163.041 192.815L159.273 187.822Z" fill="white"/>
<path d="M181.777 182.749L176.785 186.517L180.553 191.509L185.545 187.741L181.777 182.749Z" fill="white"/>
<path d="M189.734 202.26L184.742 206.028L188.51 211.02L193.502 207.253L189.734 202.26Z" fill="white"/>
<path d="M169.25 207.191L164.258 210.959L168.025 215.951L173.017 212.184L169.25 207.191Z" fill="white"/>
<path d="M140.422 202.96L135.43 206.728L139.197 211.721L144.189 207.953L140.422 202.96Z" fill="white"/>
<path d="M149.586 220.291L144.594 224.059L148.361 229.052L153.353 225.284L149.586 220.291Z" fill="white"/>
<path d="M199.212 146.447C199.205 143.708 199.183 141.172 199.162 138.895L195.566 141.612L199.212 146.447Z" fill="white"/>
<path d="M151.016 152.37L156.002 148.601L152.24 143.615L151.549 144.134L149.625 150.525L151.016 152.37Z" fill="white"/>
<path d="M197.556 170.731L192.562 174.5L196.331 179.493L198.377 177.951C198.492 176.042 198.586 174.125 198.673 172.215L197.556 170.731Z" fill="white"/>
<path d="M143.327 180.704L148.32 176.942L144.552 171.949L142.765 173.296L141.324 178.059L143.327 180.704Z" fill="white"/>
<path d="M181.192 225.129L176.199 228.897L178.75 232.277C180.63 231.254 182.388 230.101 183.995 228.84L181.192 225.129Z" fill="white"/>
<path d="M163.589 236.975L160.231 232.529L155.238 236.298L155.721 236.939C158.329 237.249 160.974 237.249 163.589 236.975Z" fill="white"/>
<path d="M134.935 224.228L137.175 222.535L133.407 217.541L131.887 218.687C132.6 220.113 133.76 222.326 134.935 224.228Z" fill="white"/>
<path d="M199.193 142.073C199.121 133.036 198.897 127.034 198.897 127.034L157.986 122.761L153.742 136.856L199.193 142.073Z" fill="#3458FF" stroke="#020046" stroke-miterlimit="10" stroke-linecap="round" stroke-linejoin="round"/>
<path d="M161.985 123.15L159.168 137.483" stroke="#020046" stroke-miterlimit="10" stroke-linecap="round" stroke-linejoin="round"/>
<path d="M167.474 123.755L165.824 138.246" stroke="#020046" stroke-miterlimit="10" stroke-linecap="round" stroke-linejoin="round"/>
<path d="M175.262 124.569L173.785 139.162" stroke="#020046" stroke-miterlimit="10" stroke-linecap="round" stroke-linejoin="round"/>
<path d="M184.631 125.549L183.363 140.048" stroke="#020046" stroke-miterlimit="10" stroke-linecap="round" stroke-linejoin="round"/>
<path d="M192.262 126.342L191.844 141.23" stroke="#020046" stroke-miterlimit="10" stroke-linecap="round" stroke-linejoin="round"/>
<path d="M134.69 200.095L157.984 122.761L198.895 127.034C198.895 127.034 201.705 202.927 190.595 221.54C179.701 239.8 136.858 249.233 128.645 208.598" stroke="#020046" stroke-miterlimit="10" stroke-linecap="round" stroke-linejoin="round"/>
<path d="M209.093 122.256C210.173 126.839 211.492 134.593 207.904 134.211C203.991 133.793 206.592 126.09 212.601 132.136C218.611 138.182 211.701 161.06 204.193 155.685C196.087 149.877 206.845 137.908 214.374 152.01C221.903 166.112 205.814 176.906 203.588 169.556C201.361 162.206 215.793 162.984 212.277 174.528C208.761 186.072 194.495 193.639 194.38 185.042C194.264 176.445 210.627 182.296 207.378 194.864C204.827 204.721 196.015 198.229 201.217 194.965C206.412 191.7 215.974 208.051 209.813 212.187C203.653 216.323 200.518 203.698 212.284 205.247C227.927 207.316 225.218 236.247 215.469 234.518C205.713 232.781 216.593 216.964 233.806 239.31" stroke="#B3FFD1" stroke-miterlimit="10" stroke-linecap="round"/>
<path d="M240.375 249.11H236.398C234.884 249.11 233.652 247.878 233.652 246.365V241.832H243.12V246.365C243.12 247.885 241.888 249.11 240.375 249.11Z" fill="#020046"/>
<path d="M292.972 249.11H288.995C287.482 249.11 286.25 247.878 286.25 246.365V241.832H295.718V246.365C295.718 247.885 294.486 249.11 292.972 249.11Z" fill="#020046"/>
<path d="M285.35 189.077L283.541 176.409C283.433 175.66 282.792 175.105 282.043 175.105H278.008C277.172 175.105 276.487 175.782 276.487 176.625V182.095H266.623H262.762H252.898V176.625C252.898 175.789 252.22 175.105 251.377 175.105H247.342C246.586 175.105 245.945 175.66 245.844 176.409L244.035 189.077H285.35Z" fill="#B3FFD1" stroke="#020046" stroke-miterlimit="10" stroke-linecap="round"/>
<path d="M289.25 187.124H240.11C238.33 187.124 236.839 188.465 236.652 190.23L231.068 241.681C230.844 243.742 232.458 245.536 234.526 245.536H294.826C296.894 245.536 298.508 243.742 298.285 241.681L292.701 190.23C292.521 188.465 291.029 187.124 289.25 187.124Z" fill="#B3FFD1" stroke="#020046" stroke-miterlimit="10" stroke-linecap="round"/>
<path d="M241.219 190.735H288.636" stroke="#020046" stroke-miterlimit="10" stroke-linecap="round"/>
<path d="M297.932 238.337H231.436L231.075 241.681C230.852 243.742 232.466 245.536 234.534 245.536H294.834C296.902 245.536 298.516 243.734 298.293 241.681L297.932 238.337Z" stroke="#020046" stroke-miterlimit="10" stroke-linecap="round"/>
<path d="M264.686 233.113C275.239 233.113 283.795 224.557 283.795 214.003C283.795 203.448 275.239 194.892 264.686 194.892C254.133 194.892 245.578 203.448 245.578 214.003C245.578 224.557 254.133 233.113 264.686 233.113Z" fill="white" stroke="#020046" stroke-miterlimit="10" stroke-linecap="round"/>
<path d="M273.666 216.14C274.846 211.168 271.773 206.181 266.802 205.001C261.831 203.82 256.845 206.893 255.664 211.865C254.484 216.836 257.557 221.824 262.528 223.004C267.499 224.184 272.486 221.111 273.666 216.14Z" fill="#B1B1B1" stroke="#020046" stroke-miterlimit="10" stroke-linecap="round"/>
<path d="M266.964 200.189C266.964 201.45 265.941 202.466 264.687 202.466C263.426 202.466 262.41 201.45 262.41 200.189C262.41 198.928 263.426 197.912 264.687 197.912C265.941 197.912 266.964 198.935 266.964 200.189Z" stroke="#020046" stroke-miterlimit="10" stroke-linecap="round"/>
<path d="M272.663 201.421C272.663 202.682 271.64 203.698 270.386 203.698C269.125 203.698 268.109 202.682 268.109 201.421C268.109 200.16 269.133 199.144 270.386 199.144C271.647 199.144 272.663 200.16 272.663 201.421Z" stroke="#020046" stroke-miterlimit="10" stroke-linecap="round"/>
<path d="M269.925 227.492C269.925 228.753 268.902 229.769 267.648 229.769C266.387 229.769 265.371 228.753 265.371 227.492C265.371 226.231 266.394 225.215 267.648 225.215C268.902 225.215 269.925 226.238 269.925 227.492Z" stroke="#020046" stroke-miterlimit="10" stroke-linecap="round"/>
<path d="M263.995 227.492C263.995 228.753 262.972 229.769 261.718 229.769C260.457 229.769 259.441 228.753 259.441 227.492C259.441 226.231 260.465 225.215 261.718 225.215C262.979 225.215 263.995 226.238 263.995 227.492Z" stroke="#020046" stroke-miterlimit="10" stroke-linecap="round"/>
<path d="M258.808 225.15C258.808 226.411 257.784 227.427 256.531 227.427C255.27 227.427 254.254 226.411 254.254 225.15C254.254 223.889 255.27 222.873 256.531 222.873C257.784 222.873 258.808 223.889 258.808 225.15Z" stroke="#020046" stroke-miterlimit="10" stroke-linecap="round"/>
<path d="M255.038 220.971C255.038 222.232 254.015 223.248 252.761 223.248C251.5 223.248 250.484 222.225 250.484 220.971C250.484 219.71 251.508 218.694 252.761 218.694C254.015 218.694 255.038 219.717 255.038 220.971Z" stroke="#020046" stroke-miterlimit="10" stroke-linecap="round"/>
<path d="M253.229 215.509C253.229 216.77 252.206 217.786 250.953 217.786C249.692 217.786 248.676 216.763 248.676 215.509C248.676 214.248 249.699 213.232 250.953 213.232C252.214 213.232 253.229 214.248 253.229 215.509Z" stroke="#020046" stroke-miterlimit="10" stroke-linecap="round"/>
<path d="M251.578 211.913C252.835 211.913 253.854 210.893 253.854 209.636C253.854 208.378 252.835 207.359 251.578 207.359C250.32 207.359 249.301 208.378 249.301 209.636C249.301 210.893 250.32 211.913 251.578 211.913Z" stroke="#020046" stroke-miterlimit="10" stroke-linecap="round"/>
<path d="M256.71 204.75C256.71 206.011 255.687 207.027 254.433 207.027C253.172 207.027 252.156 206.004 252.156 204.75C252.156 203.489 253.172 202.473 254.433 202.473C255.687 202.473 256.71 203.489 256.71 204.75Z" stroke="#020046" stroke-miterlimit="10" stroke-linecap="round"/>
<path d="M258.98 203.698C260.237 203.698 261.257 202.679 261.257 201.421C261.257 200.163 260.237 199.144 258.98 199.144C257.723 199.144 256.703 200.163 256.703 201.421C256.703 202.679 257.723 203.698 258.98 203.698Z" stroke="#020046" stroke-miterlimit="10" stroke-linecap="round"/>
<path d="M266.964 200.189C266.964 201.45 265.941 202.466 264.687 202.466C263.426 202.466 262.41 201.45 262.41 200.189C262.41 198.928 263.426 197.912 264.687 197.912C265.941 197.912 266.964 198.935 266.964 200.189Z" stroke="#020046" stroke-miterlimit="10" stroke-linecap="round"/>
<path d="M277.693 228.833L274.991 223.226C274.652 222.52 275.3 221.749 276.05 221.958L281.908 223.587C282.534 223.76 282.779 224.516 282.376 225.028L279.227 229.005C278.809 229.524 277.988 229.438 277.693 228.833Z" fill="#B1B1B1" stroke="#020046" stroke-miterlimit="10" stroke-linecap="round"/>
<path d="M163.639 253.34H157.717C156.549 253.34 155.605 252.396 155.605 251.229C155.605 250.061 156.549 249.117 157.717 249.117H163.639C164.807 249.117 165.75 250.061 165.75 251.229C165.75 252.396 164.807 253.34 163.639 253.34Z" fill="white" stroke="#020046" stroke-miterlimit="10" stroke-linecap="round" stroke-linejoin="round"/>
<path d="M163.639 249.11H160.836V253.34H163.639C164.806 253.34 165.75 252.396 165.75 251.229C165.75 250.061 164.806 249.11 163.639 249.11Z" fill="#3458FF" stroke="#020046" stroke-miterlimit="10" stroke-linecap="round" stroke-linejoin="round"/>
<path d="M151.932 261.086H146.01C144.842 261.086 143.898 260.142 143.898 258.975C143.898 257.808 144.842 256.864 146.01 256.864H151.932C153.099 256.864 154.043 257.808 154.043 258.975C154.043 260.142 153.099 261.086 151.932 261.086Z" fill="white" stroke="#020046" stroke-miterlimit="10" stroke-linecap="round" stroke-linejoin="round"/>
<path d="M151.932 256.856H149.129V261.086H151.932C153.099 261.086 154.043 260.142 154.043 258.975C154.043 257.808 153.099 256.856 151.932 256.856Z" fill="#3458FF" stroke="#020046" stroke-miterlimit="10" stroke-linecap="round" stroke-linejoin="round"/>
<path d="M182.206 259.725H176.283C175.116 259.725 174.172 258.781 174.172 257.613C174.172 256.446 175.116 255.502 176.283 255.502H182.206C183.373 255.502 184.317 256.446 184.317 257.613C184.317 258.781 183.373 259.725 182.206 259.725Z" fill="white" stroke="#020046" stroke-miterlimit="10" stroke-linecap="round" stroke-linejoin="round"/>
<path d="M182.205 255.502H179.402V259.725H182.205C183.372 259.725 184.316 258.781 184.316 257.613C184.316 256.446 183.372 255.502 182.205 255.502Z" fill="#3458FF" stroke="#020046" stroke-miterlimit="10" stroke-linecap="round" stroke-linejoin="round"/>
<path d="M126.273 248.606V237.076C126.273 234.46 128.392 232.342 131.007 232.342H158.02V253.34H131.007C128.392 253.34 126.273 251.221 126.273 248.606Z" fill="white" stroke="#020046" stroke-miterlimit="10" stroke-linecap="round" stroke-linejoin="round"/>
<path d="M148.811 232.342H135.719V253.34H148.811V232.342Z" fill="white" stroke="#020046" stroke-miterlimit="10" stroke-linecap="round" stroke-linejoin="round"/>
<path d="M145.836 235.318V250.364" stroke="#020046" stroke-miterlimit="10" stroke-linecap="round" stroke-linejoin="round"/>
<path d="M142.703 235.318V250.364" stroke="#020046" stroke-miterlimit="10" stroke-linecap="round" stroke-linejoin="round"/>
<path d="M139.574 235.318V250.364" stroke="#020046" stroke-miterlimit="10" stroke-linecap="round" stroke-linejoin="round"/>
<path d="M197.606 252.209H186.078C183.462 252.209 181.344 250.09 181.344 247.474V220.459H202.34V247.474C202.34 250.09 200.221 252.209 197.606 252.209Z" fill="white" stroke="#020046" stroke-miterlimit="10" stroke-linecap="round" stroke-linejoin="round"/>
<path d="M202.34 229.668H181.344V242.762H202.34V229.668Z" fill="white" stroke="#020046" stroke-miterlimit="10" stroke-linecap="round" stroke-linejoin="round"/>
<path d="M202.339 225.489H181.343C180.371 225.489 179.578 224.704 179.578 223.723V219.068C179.578 218.096 180.363 217.303 181.343 217.303H202.339C203.312 217.303 204.105 218.088 204.105 219.068V223.723C204.097 224.696 203.312 225.489 202.339 225.489Z" fill="#B3FFD1" stroke="#020046" stroke-miterlimit="10" stroke-linecap="round" stroke-linejoin="round"/>
<path d="M183.23 217.303V225.489" stroke="#020046" stroke-miterlimit="10" stroke-linecap="round" stroke-linejoin="round"/>
<path d="M187.531 217.303V225.489" stroke="#020046" stroke-miterlimit="10" stroke-linecap="round" stroke-linejoin="round"/>
<path d="M191.84 217.303V225.489" stroke="#020046" stroke-miterlimit="10" stroke-linecap="round" stroke-linejoin="round"/>
<path d="M196.141 217.303V225.489" stroke="#020046" stroke-miterlimit="10" stroke-linecap="round" stroke-linejoin="round"/>
<path d="M200.449 217.303V225.489" stroke="#020046" stroke-miterlimit="10" stroke-linecap="round" stroke-linejoin="round"/>
<path d="M184.32 232.645H199.365" stroke="#020046" stroke-miterlimit="10" stroke-linecap="round" stroke-linejoin="round"/>
<path d="M184.32 235.779H199.365" stroke="#020046" stroke-miterlimit="10" stroke-linecap="round" stroke-linejoin="round"/>
<path d="M184.32 238.906H199.365" stroke="#020046" stroke-miterlimit="10" stroke-linecap="round" stroke-linejoin="round"/>
<path d="M195.312 246.451L216.308 246.602C217.281 246.61 218.067 247.402 218.059 248.375L218.023 253.03C218.016 254.003 217.224 254.788 216.251 254.781L195.255 254.63C194.282 254.623 193.497 253.83 193.504 252.857L193.54 248.202C193.54 247.229 194.34 246.444 195.312 246.451Z" fill="#B3FFD1" stroke="#020046" stroke-miterlimit="10" stroke-linecap="round" stroke-linejoin="round"/>
<path d="M214.359 254.767L214.424 246.588" stroke="#020046" stroke-miterlimit="10" stroke-linecap="round" stroke-linejoin="round"/>
<path d="M210.055 254.738L210.112 246.552" stroke="#020046" stroke-miterlimit="10" stroke-linecap="round" stroke-linejoin="round"/>
<path d="M205.754 254.702L205.812 246.523" stroke="#020046" stroke-miterlimit="10" stroke-linecap="round" stroke-linejoin="round"/>
<path d="M201.445 254.673L201.503 246.494" stroke="#020046" stroke-miterlimit="10" stroke-linecap="round" stroke-linejoin="round"/>
<path d="M197.145 254.644L197.202 246.466" stroke="#020046" stroke-miterlimit="10" stroke-linecap="round" stroke-linejoin="round"/>
<mask id="mask0_711_2806" style="mask-type:luminance" maskUnits="userSpaceOnUse" x="0" y="0" width="85" height="216">
<path d="M84.69 0H0V215.134H84.69V0Z" fill="white"/>
</mask>
<g mask="url(#mask0_711_2806)">
<path d="M51.4358 160.001H21.7359C18.1621 160.001 15.2656 157.104 15.2656 153.53V134.845C15.2656 131.271 18.1621 128.374 21.7359 128.374H51.4358C55.0095 128.374 57.906 131.271 57.906 134.845V153.53C57.906 157.104 55.0095 160.001 51.4358 160.001Z" fill="#B1B1B1"/>
<path d="M80.2511 105.964C75.6254 102.123 57.634 118.761 57.634 118.761C57.634 118.761 74.9697 87.8983 68.694 88.6117C62.4183 89.3251 49.5425 114.092 49.5425 114.092C49.5425 114.092 65.5597 68.4134 53.8369 77.5145C47.8349 82.1768 42.3518 96.6896 38.4321 109.732C33.1435 92.3877 26.0896 71.2382 23.6254 73.1045C19.4968 76.2319 27.5883 116.765 27.5883 116.765C27.5883 116.765 11.4054 84.4827 6.28969 88.8928C1.17399 93.3028 21.1468 121.32 21.1468 121.32C21.1468 121.32 -0.980362 104.537 -4.77751 108.666C-7.74605 111.887 9.73378 124.562 17.5298 129.96C18.7691 128.98 20.4191 128.374 22.2348 128.374H33.4677H43.9009H50.9332C52.9722 128.374 54.8023 129.131 56.0777 130.334C66.3235 122.545 83.5367 108.695 80.2511 105.964Z" fill="#B1B1B1"/>
<path d="M37.8711 51.1624L56.3669 130.615" stroke="#B1B1B1" stroke-miterlimit="10" stroke-linecap="round" stroke-linejoin="round"/>
<path d="M43.9319 46.2334C43.9319 49.6923 40.6824 52.4882 36.6691 52.4882C32.6558 52.4882 29.4062 49.6851 29.4062 46.2334C29.4062 42.7746 32.6558 39.9786 36.6691 39.9786C40.6824 39.9786 43.9319 42.7818 43.9319 46.2334Z" fill="#B1B1B1"/>
<path d="M36.5886 49.0798L16.3203 131.213" stroke="#B1B1B1" stroke-miterlimit="10" stroke-linecap="round" stroke-linejoin="round"/>
<path d="M36.2578 46.2334L36.6829 -15.8676" stroke="#B1B1B1" stroke-miterlimit="10" stroke-linecap="round" stroke-linejoin="round"/>
<path d="M41.9991 162.545C41.9991 164.346 40.3058 165.802 38.2163 165.802C36.1268 165.802 34.4336 164.346 34.4336 162.545C34.4336 160.743 36.1268 159.288 38.2163 159.288C40.3058 159.288 41.9991 160.743 41.9991 162.545Z" fill="#B1B1B1"/>
<path d="M29.1797 202.098L38.215 163.229L46.5731 202.855" stroke="#B1B1B1" stroke-miterlimit="10" stroke-linecap="round" stroke-linejoin="round"/>
<path d="M37.8789 202.855L38.2176 163.229" stroke="#B1B1B1" stroke-miterlimit="10" stroke-linecap="round" stroke-linejoin="round"/>
<path d="M16.3203 131.213L38.2169 162.545L56.9289 130.615" stroke="#B1B1B1" stroke-miterlimit="10" stroke-linecap="round" stroke-linejoin="round"/>
</g>
</g>
</g>
<defs>
<clipPath id="clip0_711_2806">
<rect width="800" height="283" rx="10" fill="white"/>
</clipPath>
<clipPath id="clip1_711_2806">
<rect width="840" height="283" fill="white"/>
</clipPath>
</defs>
</svg>
