<svg width="276" height="231" viewBox="0 0 276 231" fill="none" xmlns="http://www.w3.org/2000/svg">
<path d="M192.174 38.0907C188.65 38.0907 185.516 39.7625 183.506 42.3422C182.288 41.881 180.977 41.6144 179.601 41.6144C176.495 41.6144 173.699 42.9043 171.704 44.9724C169.693 42.7602 166.804 41.3622 163.576 41.3622C161.098 41.3622 158.814 42.1981 156.976 43.5816C155.074 40.3029 151.536 38.0907 147.473 38.0907C145.261 38.0907 143.214 38.7464 141.485 39.8706C141.348 39.9282 141.211 39.9787 141.074 40.0435C138.351 41.3406 136.304 43.6249 135.303 46.464C133.948 50.2904 134.77 54.5707 137.436 57.6405C137.522 57.7414 137.645 57.7918 137.76 57.7918C137.861 57.7918 137.962 57.7558 138.048 57.6837C138.228 57.5252 138.25 57.2514 138.091 57.0712C135.627 54.2393 134.878 50.2904 136.124 46.7523C136.571 45.484 137.248 44.3455 138.106 43.3655C137.09 45.03 136.492 46.9756 136.492 49.0726C136.492 55.14 141.406 60.0545 147.473 60.0545C149.951 60.0545 152.235 59.2186 154.073 57.835C155.975 61.1138 159.512 63.326 163.576 63.326C166.682 63.326 169.477 62.0361 171.473 59.968C173.483 62.1802 176.373 63.5782 179.601 63.5782C183.124 63.5782 186.258 61.9064 188.268 59.3267C189.486 59.7879 190.797 60.0545 192.174 60.0545C198.24 60.0545 203.154 55.14 203.154 49.0726C203.154 43.0052 198.24 38.0907 192.174 38.0907Z" fill="#020046"/>
<path d="M149.224 35.9217C149.224 35.9217 143.914 30.6974 143.914 20.1911C143.914 9.67759 153.987 1.44839 159.729 3.72547C159.729 3.72547 166.286 0.0432245 176.496 0.259403C186.706 0.475582 196.959 9.15877 195.158 21.6035C193.356 34.0482 191.49 38.0979 191.49 38.0979L149.224 35.9217Z" fill="#020046"/>
<path d="M213.239 85.1024C198.173 72.5929 185.744 68.2765 185.744 68.2765L168.148 190.655H213.231V85.1024H213.239Z" fill="white" stroke="#020046" stroke-miterlimit="10" stroke-linecap="round"/>
<path d="M115.496 103.341V192.219H221.658V117.299C221.658 117.299 203.81 75.1149 188.679 73.3495C181.071 72.4631 170.436 64.8897 155.932 67.6279C141.795 70.2941 124.106 83.8053 115.496 103.341Z" fill="white"/>
<path d="M221.656 192.219V139.435" stroke="#020046" stroke-miterlimit="10" stroke-linecap="round"/>
<path d="M211.554 123.409H192.41V128.843H211.554V123.409Z" stroke="#020046" stroke-miterlimit="10" stroke-linecap="round"/>
<path d="M172.811 70.9499H169.057C164.438 70.9499 160.691 67.2028 160.691 62.5837V54.1023C160.691 49.4833 164.438 45.7362 169.057 45.7362H172.811C177.429 45.7362 181.176 49.4833 181.176 54.1023V62.5837C181.176 67.2028 177.429 70.9499 172.811 70.9499Z" fill="white" stroke="#020046" stroke-miterlimit="10"/>
<path d="M178.495 66.6263L170.152 69.2565L162.413 66.3958C158.018 66.9218 151.944 68.5071 147.988 70.1284L170.108 144.249L190.881 70.8346C187.12 69.1773 182.681 67.2821 178.495 66.6263Z" fill="#3458FF"/>
<path d="M186.434 68.0026L183.299 62.137L170.582 69.0187L158.73 61.856L153.391 68.2765L167.506 78.7323L170.582 69.2565L173.659 78.7323L186.434 68.0026Z" fill="#3458FF"/>
<path d="M153.598 68.4277L167.504 78.7323L169.91 71.3173L170.58 69.2564L173.657 78.7323L186.605 67.9594" stroke="#020046" stroke-miterlimit="10" stroke-linecap="round" stroke-linejoin="round"/>
<path d="M170.582 69.2565V142.88" stroke="#020046" stroke-miterlimit="10" stroke-linecap="round" stroke-linejoin="round"/>
<path d="M170.65 153.509L170.434 138.297L148.4 71.3174L141.793 93.2091L153.494 93.6631L145.648 100.703L170.65 153.509Z" fill="white"/>
<path d="M148.335 71.5336L141.793 93.4541H153.725L145.648 100.703L170.65 152.471" stroke="#020046" stroke-miterlimit="10" stroke-linecap="round" stroke-linejoin="round"/>
<path d="M170.65 153.509L170.434 138.297L190.846 71.3174L197.453 93.2091L185.752 93.6631L193.598 100.703L170.65 153.509Z" fill="white"/>
<path d="M190.909 71.5336L197.452 93.4541H185.52L193.597 100.703L170.648 152.471" stroke="#020046" stroke-miterlimit="10" stroke-linecap="round" stroke-linejoin="round"/>
<path d="M170.672 136.43L170.586 173.224" stroke="#020046" stroke-miterlimit="10" stroke-linecap="round" stroke-linejoin="round"/>
<path d="M159.654 167.142C159.654 167.142 174.281 166.933 178.51 165.881C182.733 164.829 194.275 162.869 197.273 163.467C200.861 164.181 205.292 167.971 202.403 169.174C199.506 170.378 183.064 172.424 183.064 172.424L158.206 171.848L157.176 168.865L159.654 167.142Z" fill="white"/>
<path d="M159.654 167.142C159.654 167.142 174.281 166.933 178.51 165.881C182.733 164.829 194.275 162.869 197.273 163.467C200.861 164.181 205.292 167.971 202.403 169.174C199.506 170.378 183.064 172.424 183.064 172.424L158.206 171.848L157.176 168.865L159.654 167.142Z" stroke="#020046" stroke-miterlimit="10" stroke-linecap="round" stroke-linejoin="round"/>
<path d="M211.935 185.719L210.919 186.49C210.169 187.06 209.096 186.908 208.534 186.159L179.533 147.751C178.963 147.002 179.115 145.928 179.864 145.366L180.88 144.595C181.629 144.026 182.703 144.177 183.265 144.926L212.266 183.334C212.835 184.084 212.684 185.15 211.935 185.719Z" fill="#020046"/>
<path d="M208.117 185.546C208.117 185.546 213.932 190.972 214.861 190.648C215.784 190.317 211.785 182.686 211.785 182.686L208.117 185.546Z" fill="#020046"/>
<path d="M157.169 168.857C157.695 168.49 170.246 168.605 170.246 168.605C170.246 168.605 182.027 165.096 192.381 166.559C203.253 168.093 203.657 168.072 204.918 169.023C205.321 169.333 206.395 169.672 207.223 170.471C208.96 172.143 210.127 174.471 205.299 173.246C205.299 173.246 209.507 173.556 210.732 175.213C211.957 176.87 211.251 180.682 208.736 180.387C208.736 180.387 210.912 182.066 210.141 184.631C209.601 186.433 206.69 187.542 203.556 186.649C203.556 186.649 208.282 189.221 204.334 192.14C203.714 192.601 199.809 192.262 194.708 192.255C183.273 192.241 165.822 191.909 165.822 191.909L155.23 190.057L157.169 168.857Z" fill="white"/>
<path d="M187.234 166.018C187.234 166.018 195.42 166.796 199.966 167.618C205.694 168.641 208.828 170.58 208.655 173.909" stroke="#020046" stroke-miterlimit="10" stroke-linecap="round" stroke-linejoin="round"/>
<path d="M190.883 171.358C190.883 171.358 208.125 172.532 210.359 174.802C212.592 177.065 210.798 179.746 208.672 180.61" stroke="#020046" stroke-miterlimit="10" stroke-linecap="round" stroke-linejoin="round"/>
<path d="M189.578 177.598C189.578 177.598 207.029 178.751 209.659 181.619C211.662 183.802 209.14 187.168 206.719 186.944" stroke="#020046" stroke-miterlimit="10" stroke-linecap="round" stroke-linejoin="round"/>
<path d="M190.696 185.222C190.696 185.222 205.077 185.517 207.361 187.276C209.652 189.034 207.685 191.736 203.326 191.909L158.164 192.241" stroke="#020046" stroke-miterlimit="10" stroke-linecap="round" stroke-linejoin="round"/>
<path d="M111.251 143.636L121.857 145.87L129.761 127.553L138.825 79.9934L147.983 70.114C147.983 70.114 118.852 75.7779 88.3454 121.947C78.6399 136.632 73.445 148.587 70.707 157.515C64.7987 176.755 71.9535 183.918 81.767 187.975C96.1414 193.912 165.816 191.873 165.816 191.873L167.92 155.57L111.251 143.636Z" fill="white"/>
<path d="M154.164 192.111C161.225 192.01 165.822 191.88 165.822 191.88L167.926 155.577L156.556 153.184L154.164 192.111Z" fill="white" stroke="#020046" stroke-miterlimit="10"/>
<path d="M153.395 68.2765C153.395 68.2765 118.226 74.1494 88.3536 121.961C58.9204 169.066 67.4009 182.044 81.7753 187.989C96.1497 193.927 165.824 191.888 165.824 191.888L167.928 155.584L111.252 143.644" stroke="#020046" stroke-miterlimit="10" stroke-linecap="round"/>
<path d="M121.859 145.878L129.771 127.56" stroke="#020046" stroke-miterlimit="10" stroke-linecap="round"/>
<path d="M196.995 23.0591C196.995 23.0591 205.908 30.4956 210.087 35.1363C214.259 39.7769 227.552 69.7754 227.552 69.7754L206.909 80.1808L199.74 64.8032C199.74 64.8032 185.755 56.2353 188.738 40.1444L196.995 23.0591Z" fill="white" stroke="#020046" stroke-miterlimit="10" stroke-linecap="round"/>
<path d="M206.801 55.2553L195.82 59.7374C193.673 60.6166 191.23 59.5861 190.351 57.4387L178.607 28.6725C177.728 26.5251 178.758 24.0823 180.905 23.2032L191.886 18.7211C194.033 17.842 196.476 18.8724 197.355 21.0198L209.099 49.786C209.971 51.9334 208.941 54.3762 206.801 55.2553Z" fill="#020046"/>
<path d="M198.953 51.2921L194.162 53.2521C192.785 53.8141 191.215 53.1512 190.653 51.7821L181.329 28.9608C180.767 27.5844 181.43 26.0135 182.799 25.4515L187.59 23.4914C188.967 22.9294 190.537 23.5923 191.099 24.9615L200.423 47.7828C200.985 49.1591 200.329 50.73 198.953 51.2921Z" fill="white"/>
<path d="M193.012 21.8197L205.657 53.2953" stroke="white" stroke-width="0.75" stroke-miterlimit="10" stroke-linecap="round" stroke-linejoin="round"/>
<path d="M234.375 63.1028L199.336 81.1681L222.018 147.549L222.083 169.369C242.056 173.441 260.976 177.238 273.024 157.544C286.519 135.465 234.375 63.1028 234.375 63.1028Z" fill="white"/>
<path d="M221.658 169.283C241.782 173.383 260.89 177.382 273.016 157.544C286.519 135.465 234.375 63.0955 234.375 63.0955L199.336 81.1608L227.487 163.345" stroke="#020046" stroke-miterlimit="10" stroke-linecap="round"/>
<path d="M203.066 92.0635L240.915 72.9028" stroke="#020046" stroke-miterlimit="10" stroke-linecap="round"/>
<path d="M206.41 84.4827C206.41 85.4051 205.66 86.1545 204.738 86.1545C203.816 86.1545 203.066 85.4051 203.066 84.4827C203.066 83.5603 203.816 82.8109 204.738 82.8109C205.66 82.8109 206.41 83.5603 206.41 84.4827Z" stroke="#020046" stroke-miterlimit="10" stroke-linecap="round"/>
<path d="M187.949 40.8938C187.863 49.2599 180.953 56.0407 172.581 55.9542L167.638 55.9038C159.273 55.8173 152.492 48.9068 152.579 40.5335L152.745 24.1183C152.831 15.7522 159.741 8.97135 168.113 9.05782L173.056 9.10827C181.421 9.19474 188.201 16.1053 188.115 24.4786L187.949 40.8938Z" fill="white" stroke="#020046" stroke-miterlimit="10"/>
<path d="M189.634 11.8466C186.543 6.48531 171.001 0.417893 160.438 7.24194L161.022 8.46695C159.977 7.72474 158.788 7.40046 157.462 7.84003C151.936 9.68475 147.714 16.8331 151.179 25.9342C151.179 25.9342 161.93 24.947 165.345 19.2255C165.921 20.4937 166.808 21.9133 168.184 23.2464C168.256 23.3184 168.349 23.3545 168.443 23.3545C168.544 23.3545 168.638 23.3184 168.71 23.2392C168.854 23.0879 168.854 22.8573 168.703 22.7131C167.204 21.2503 166.318 19.6722 165.792 18.3391C165.835 18.2382 165.878 18.1446 165.921 18.0437C167.103 20.1983 169.135 22.4681 172.644 23.8445C172.687 23.8589 172.737 23.8733 172.781 23.8733C172.932 23.8733 173.069 23.7796 173.127 23.6355C173.199 23.4409 173.105 23.2248 172.918 23.1527C170.266 22.115 168.522 20.5369 167.355 18.9084C170.475 21.0414 177.089 24.2985 188.639 24.5867C188.625 24.5795 192.717 17.2078 189.634 11.8466Z" fill="#020046"/>
<path d="M153.825 34.1347C152.866 32.5998 151.18 31.5621 149.228 31.4973C146.137 31.4036 143.557 33.8104 143.464 36.8801C143.37 39.9427 145.798 42.508 148.889 42.6017C150.712 42.6593 152.362 41.8378 153.421 40.5336" fill="white"/>
<path d="M153.825 34.1347C152.866 32.5998 151.18 31.5621 149.228 31.4973C146.137 31.4036 143.557 33.8104 143.464 36.8801C143.37 39.9427 145.798 42.508 148.889 42.6017C150.712 42.6593 152.362 41.8378 153.421 40.5336" stroke="#020046" stroke-miterlimit="10" stroke-linecap="round" stroke-linejoin="round"/>
<path d="M151.95 38.134C152.008 37.8962 152.044 37.6512 152.051 37.399C152.109 35.5615 150.646 34.0194 148.794 33.9618C148.34 33.9473 147.908 34.0266 147.512 34.1707" stroke="#020046" stroke-miterlimit="10" stroke-linecap="round" stroke-linejoin="round"/>
<path d="M180.455 32.0522C180.505 33.1835 181.456 34.0626 182.587 34.0122C183.719 33.9617 184.598 33.0105 184.547 31.8792C184.497 30.7479 183.546 29.8687 182.414 29.9192C181.283 29.9696 180.411 30.9208 180.455 32.0522Z" fill="#020046"/>
<path d="M158.776 32.0522C158.826 33.1835 159.777 34.0626 160.908 34.0122C162.039 33.9617 162.918 33.0105 162.868 31.8792C162.818 30.7479 161.867 29.8687 160.735 29.9192C159.604 29.9696 158.725 30.9208 158.776 32.0522Z" fill="#020046"/>
<path d="M162.867 27.5051C162.867 27.5051 159.964 26.8566 157.773 28.4563" stroke="#020046" stroke-miterlimit="10" stroke-linecap="round" stroke-linejoin="round"/>
<path d="M180.484 27.5051C180.484 27.5051 183.388 26.8566 185.578 28.4563" stroke="#020046" stroke-miterlimit="10" stroke-linecap="round" stroke-linejoin="round"/>
<path d="M171.18 28.8887L172.96 36.9738H169.984" stroke="#020046" stroke-miterlimit="10" stroke-linecap="round" stroke-linejoin="round"/>
<path d="M175.277 42.8251C175.277 44.7419 173.382 46.2911 171.054 46.2911C168.72 46.2911 166.832 44.7419 166.832 42.8251" stroke="#020046" stroke-miterlimit="10" stroke-linecap="round" stroke-linejoin="round"/>
<path d="M154.4 198.358L133.98 229.971H221.163L241.583 198.358H154.4Z" fill="white" stroke="#020046" stroke-miterlimit="10" stroke-linecap="round"/>
<path d="M150.076 196.917L129.656 228.53H216.839L237.259 196.917H150.076Z" fill="white" stroke="#020046" stroke-miterlimit="10" stroke-linecap="round"/>
<path d="M154.4 194.755L133.98 226.368H221.163L241.583 194.755H154.4Z" fill="white" stroke="#020046" stroke-miterlimit="10" stroke-linecap="round"/>
<path d="M218.381 221.201H144.203" stroke="#020046" stroke-miterlimit="10" stroke-linecap="round"/>
<path d="M221.27 216.035H147.266" stroke="#020046" stroke-miterlimit="10" stroke-linecap="round"/>
<path d="M225.815 210.558H150.074" stroke="#020046" stroke-miterlimit="10" stroke-linecap="round"/>
<path d="M228.553 205.939H169.859" stroke="#020046" stroke-miterlimit="10" stroke-linecap="round"/>
<path d="M232.147 200.78H185.5" stroke="#020046" stroke-miterlimit="10" stroke-linecap="round"/>
<path d="M112.377 183.521C105.013 183.327 98.8744 189.798 98.6582 197.969C98.442 206.141 104.235 212.922 111.599 213.116C118.962 213.311 125.101 206.84 125.317 198.668C125.534 190.497 119.741 183.716 112.377 183.521ZM111.743 207.669C107.088 207.546 103.428 203.259 103.565 198.099C103.702 192.932 107.585 188.847 112.233 188.969C116.887 189.092 120.548 193.379 120.411 198.539C120.274 203.698 116.39 207.791 111.743 207.669Z" fill="white" stroke="#020046" stroke-miterlimit="10" stroke-linecap="round" stroke-linejoin="round"/>
<path d="M76.9729 179.875L76.1083 213.059C75.993 217.505 79.4659 221.201 83.8683 221.317L104.662 221.872C109.065 221.987 112.725 218.478 112.84 214.031L113.719 180.336C113.734 179.76 113.28 179.277 112.704 179.27L78.0104 178.859C77.4556 178.859 76.9945 179.306 76.9729 179.875Z" fill="white" stroke="#020046" stroke-miterlimit="10" stroke-linecap="round" stroke-linejoin="round"/>
<path d="M95.289 183.197C105.349 183.197 113.504 181.661 113.504 179.767C113.504 177.873 105.349 176.337 95.289 176.337C85.2292 176.337 77.0742 177.873 77.0742 179.767C77.0742 181.661 85.2292 183.197 95.289 183.197Z" fill="white" stroke="#020046" stroke-miterlimit="10" stroke-linecap="round" stroke-linejoin="round"/>
<path d="M95.2905 183.197C104.419 183.197 111.819 182.307 111.819 181.208C111.819 180.11 104.419 179.219 95.2905 179.219C86.1619 179.219 78.7617 180.11 78.7617 181.208C78.7617 182.307 86.1619 183.197 95.2905 183.197Z" fill="#020046"/>
<path d="M105.448 192.313C102.898 189.92 98.1999 189.056 94.972 193.689C91.9891 188.89 87.2552 189.51 84.5821 191.758C81.6064 194.266 81.5271 199.627 84.8991 204.181C86.895 206.876 90.231 208.8 92.4574 209.866C93.25 210.241 94.7487 210.688 94.7487 210.688C95.217 210.529 96.024 210.241 96.9967 209.823C99.2663 208.843 102.451 207.15 104.476 204.7C108.078 200.333 108.287 194.972 105.448 192.313Z" fill="#B3FFD1"/>
<path d="M94.7565 171.991C97.9858 171.883 100.522 169.348 100.42 166.329C100.319 163.311 97.6194 160.951 94.3901 161.059C91.1608 161.168 88.625 163.703 88.7262 166.721C88.8274 169.74 91.5272 172.1 94.7565 171.991Z" stroke="#B1B1B1" stroke-width="0.75" stroke-miterlimit="10" stroke-linecap="round" stroke-linejoin="round"/>
<path d="M93.2922 154.943C103.005 148.191 110.419 132.532 97.673 117.969C83.7309 102.029 64.6659 120.541 59.6439 93.5621C54.6218 66.583 25.412 68.1035 9.78386 84.3097C-5.85145 100.516 0.00637867 129.325 22.429 136.776C44.8588 144.227 63.8517 132.741 66.9932 146.144C70.1347 159.504 87.528 158.949 93.2922 154.943Z" stroke="#B1B1B1" stroke-width="0.75" stroke-miterlimit="10" stroke-linecap="round" stroke-linejoin="round"/>
</svg>
