<svg width="357" height="217" viewBox="0 0 357 217" fill="none" xmlns="http://www.w3.org/2000/svg">
<path d="M344.088 216.381C347.064 207.813 349.816 198.243 352.172 187.571C368.434 113.89 333.1 91.5084 311.938 92.6613C290.776 93.8143 274.096 103.117 248.676 89.0728C218.249 72.2613 209.624 24.1399 149.122 -0.52616C88.6199 -25.1922 66.5 6.95136 50 28.2257C33.5 49.5 -3.5 216.381 -3.5 216.381L344.088 216.373V216.381Z" fill="#F0F0F0"/>
<mask id="mask0_720_241" style="mask-type:luminance" maskUnits="userSpaceOnUse" x="0" y="0" width="85" height="216">
<path d="M84.69 0H0V215.134H84.69V0Z" fill="white"/>
</mask>
<g mask="url(#mask0_720_241)">
<path d="M51.4358 160.001H21.7359C18.1621 160.001 15.2656 157.104 15.2656 153.53V134.845C15.2656 131.271 18.1621 128.374 21.7359 128.374H51.4358C55.0095 128.374 57.906 131.271 57.906 134.845V153.53C57.906 157.104 55.0095 160.001 51.4358 160.001Z" fill="#B1B1B1"/>
<path d="M80.2511 105.964C75.6254 102.123 57.634 118.761 57.634 118.761C57.634 118.761 74.9697 87.8983 68.694 88.6117C62.4183 89.3251 49.5425 114.092 49.5425 114.092C49.5425 114.092 65.5597 68.4134 53.8368 77.5145C47.8349 82.1768 42.3518 96.6896 38.4321 109.732C33.1435 92.3877 26.0896 71.2382 23.6254 73.1045C19.4968 76.2319 27.5883 116.765 27.5883 116.765C27.5883 116.765 11.4054 84.4827 6.28969 88.8928C1.17399 93.3028 21.1468 121.32 21.1468 121.32C21.1468 121.32 -0.980362 104.537 -4.77751 108.666C-7.74605 111.887 9.73378 124.562 17.5298 129.96C18.7691 128.98 20.4191 128.374 22.2348 128.374H33.4677H43.9009H50.9332C52.9722 128.374 54.8023 129.131 56.0777 130.334C66.3235 122.545 83.5367 108.695 80.2511 105.964Z" fill="#B1B1B1"/>
<path d="M37.8711 51.1624L56.3669 130.615" stroke="#B1B1B1" stroke-miterlimit="10" stroke-linecap="round" stroke-linejoin="round"/>
<path d="M43.9319 46.2334C43.9319 49.6923 40.6824 52.4882 36.6691 52.4882C32.6558 52.4882 29.4062 49.6851 29.4062 46.2334C29.4062 42.7746 32.6558 39.9786 36.6691 39.9786C40.6824 39.9786 43.9319 42.7818 43.9319 46.2334Z" fill="#B1B1B1"/>
<path d="M36.5886 49.0798L16.3203 131.213" stroke="#B1B1B1" stroke-miterlimit="10" stroke-linecap="round" stroke-linejoin="round"/>
<path d="M36.2578 46.2334L36.6829 -15.8676" stroke="#B1B1B1" stroke-miterlimit="10" stroke-linecap="round" stroke-linejoin="round"/>
<path d="M41.9991 162.545C41.9991 164.346 40.3058 165.802 38.2163 165.802C36.1268 165.802 34.4336 164.346 34.4336 162.545C34.4336 160.743 36.1268 159.288 38.2163 159.288C40.3058 159.288 41.9991 160.743 41.9991 162.545Z" fill="#B1B1B1"/>
<path d="M29.1797 202.098L38.215 163.229L46.5731 202.855" stroke="#B1B1B1" stroke-miterlimit="10" stroke-linecap="round" stroke-linejoin="round"/>
<path d="M37.8789 202.855L38.2176 163.229" stroke="#B1B1B1" stroke-miterlimit="10" stroke-linecap="round" stroke-linejoin="round"/>
<path d="M16.3203 131.213L38.2169 162.545L56.9289 130.615" stroke="#B1B1B1" stroke-miterlimit="10" stroke-linecap="round" stroke-linejoin="round"/>
</g>
</svg>
