<svg width="244" height="234" viewBox="0 0 244 234" fill="none" xmlns="http://www.w3.org/2000/svg">
<g id="gr">
<g id="Group">
<g id="Group_2">
<path id="Vector" d="M213.85 200.381C214.023 196.936 213.922 192.267 212.711 187.799C210.391 179.26 193.697 150.35 186.167 140.42C178.638 130.49 166.468 109.268 155.905 96.8742C145.804 85.0204 130.781 77.519 129.484 76.8849C129.419 76.8561 129.383 76.8344 129.383 76.8344L96.7291 76.6615C96.7291 76.6615 64.6804 91.2103 48.1156 112.922C35.1462 129.928 24.1295 179.649 19.9648 200.388H213.85V200.381Z" fill="white"/>
<g id="Group_3">
<path id="Vector_2" d="M211.73 200.381L213.906 197.073C213.891 196.281 213.863 195.452 213.805 194.609L210.008 200.381H211.73Z" fill="#B1B1B1"/>
<path id="Vector_3" d="M26.8245 200.381H28.5465L30.2469 197.794L34.181 200.381H36.8037L31.0395 196.59L38.6626 185.01L50.2414 192.634L45.1401 200.388H46.8621L51.4447 193.427L62.0147 200.388H65.1778L72.6352 189.06L84.2139 196.684L81.7714 200.395H83.4934L85.41 197.477L89.8412 200.395H92.4639L86.2026 196.273L93.8257 184.693L105.404 192.317L100.087 200.395H101.809L106.608 193.11L117.682 200.395H120.305L120.19 200.316L127.813 188.736L139.391 196.36L136.733 200.395H138.455L140.587 197.152L145.516 200.395H148.139L141.38 195.949L149.003 184.369L160.582 191.993L155.048 200.402H156.77L161.778 192.786L173.35 200.402H175.972L175.353 199.999L182.976 188.419L194.554 196.043L191.68 200.41H193.402L195.751 196.835L201.176 200.41H203.799L196.543 195.632L204.166 184.052L213.202 189.997C213.072 189.32 212.913 188.642 212.733 187.965L204.959 182.849L208.36 177.682C208.115 177.192 207.87 176.702 207.61 176.197L203.756 182.063L192.177 174.439L199.8 162.859L200.686 163.443C200.153 162.513 199.62 161.584 199.079 160.661L187.81 153.239L191.305 147.928C191.017 147.482 190.729 147.042 190.448 146.61L186.607 152.447L175.028 144.823L181.881 134.403C181.592 133.978 181.304 133.545 181.009 133.106L173.825 144.03L162.246 136.406L169.869 124.826L179.899 131.427C179.251 130.44 178.581 129.424 177.903 128.386L170.662 123.623L172.737 120.467C172.449 120.027 172.168 119.595 171.88 119.155L169.459 122.837L157.88 115.213L163.457 106.739C163.154 106.314 162.859 105.896 162.556 105.485L156.677 114.428L145.098 106.804L152.721 95.2241L156.684 97.8326C156.425 97.5156 156.165 97.2057 155.906 96.903C154.782 95.5843 153.6 94.3305 152.382 93.1271L152.31 93.2352L140.732 85.6113L141.632 84.2422C141.236 83.9611 140.84 83.6873 140.451 83.4207L139.528 84.8186L127.95 77.1947L128.173 76.856L124.786 76.8344L125.954 77.6055L118.331 89.1855L106.752 81.5615L109.915 76.7552L108.193 76.748L105.549 80.7689L99.3593 76.6975L96.7222 76.6831L104.756 81.9723L97.1329 93.5523L85.5541 85.9283L89.0991 80.5455C88.2489 81.0067 87.341 81.5039 86.3899 82.0443L84.3508 85.1357L82.8017 84.1125C82.3478 84.3791 81.8939 84.6529 81.4255 84.9339L83.5583 86.3391L75.9352 97.9191L68.8885 93.2784C68.4778 93.5811 68.0671 93.8837 67.6564 94.1936L75.1426 99.1225L67.5195 110.702L56.6036 103.518C56.2505 103.857 55.8975 104.203 55.5444 104.549L66.7269 111.906L59.1038 123.486L47.525 115.862L53.8296 106.285C51.7833 108.418 49.8523 110.63 48.1014 112.936C45.5868 116.229 43.1515 120.762 40.817 126.058L46.7325 117.065L58.3112 124.689L50.6881 136.269L39.5777 128.962C39.3903 129.409 39.2102 129.863 39.0229 130.324L49.8883 137.48L42.2652 149.06L34.2098 143.756C34.0585 144.232 33.9 144.7 33.7487 145.176L41.4727 150.263L33.8495 161.843L29.6417 159.069C29.5048 159.559 29.3751 160.042 29.2454 160.532L33.0642 163.047L25.7437 174.165C25.405 175.556 25.0736 176.932 24.7566 178.287L25.8518 176.623L37.4305 184.247L29.8074 195.827L21.961 190.667C21.8529 191.179 21.7448 191.683 21.6367 192.18L29.0148 197.037L26.8245 200.381ZM51.034 191.424L39.4552 183.8L47.0783 172.22L58.6571 179.844L51.034 191.424ZM157.008 169.568L145.429 161.944L153.052 150.364L164.631 157.988L157.008 169.568ZM165.827 158.781L177.406 166.405L169.783 177.985L158.204 170.361L165.827 158.781ZM77.4771 153.866L85.093 142.286L96.6717 149.91L89.0486 161.49L77.4771 153.866ZM88.2633 162.686L80.6402 174.266L69.0614 166.642L76.6845 155.062L88.2633 162.686ZM118.655 144.333L107.076 136.709L114.699 125.129L126.278 132.753L118.655 144.333ZM127.481 133.545L139.06 141.169L131.437 152.749L119.858 145.125L127.481 133.545ZM117.869 145.536L110.246 157.116L98.6676 149.492L106.291 137.912L117.869 145.536ZM97.4643 148.7L85.8856 141.076L93.5087 129.496L105.087 137.12L97.4643 148.7ZM97.875 150.696L109.454 158.319L101.831 169.899L90.2519 162.276L97.875 150.696ZM110.657 159.112L122.236 166.736L114.613 178.316L103.034 170.692L110.657 159.112ZM111.45 157.909L119.073 146.329L130.651 153.953L123.028 165.533L111.45 157.909ZM131.855 154.738L143.434 162.362L135.81 173.942L124.232 166.318L131.855 154.738ZM132.647 153.535L140.27 141.955L151.849 149.579L144.226 161.159L132.647 153.535ZM152.635 148.375L141.056 140.751L148.679 129.171L160.258 136.795L152.635 148.375ZM139.853 139.959L128.274 132.335L135.897 120.755L147.476 128.379L139.853 139.959ZM135.479 118.766L123.9 111.142L131.523 99.562L143.102 107.186L135.479 118.766ZM134.694 119.969L127.071 131.549L115.492 123.925L123.115 112.345L134.694 119.969ZM114.288 123.133L102.71 115.509L110.333 103.929L121.912 111.553L114.288 123.133ZM113.496 124.336L105.873 135.916L94.294 128.292L101.917 116.712L113.496 124.336ZM93.0908 127.507L81.512 119.883L89.1351 108.303L100.714 115.927L93.0908 127.507ZM92.2982 128.71L84.6751 140.29L73.0963 132.666L80.7194 121.086L92.2982 128.71ZM83.8897 141.494L76.2666 153.074L64.6878 145.45L72.3109 133.87L83.8897 141.494ZM75.474 154.277L67.8509 165.857L56.2721 158.233L63.8953 146.653L75.474 154.277ZM67.0655 167.06L59.4424 178.64L47.8637 171.016L55.4868 159.436L67.0655 167.06ZM63.816 199.84L52.2372 192.216L59.8603 180.636L71.4391 188.26L63.816 199.84ZM72.2245 187.057L60.6457 179.433L68.2688 167.853L79.8476 175.477L72.2245 187.057ZM85.0065 195.466L73.4277 187.842L81.0509 176.262L92.6296 183.886L85.0065 195.466ZM93.4222 182.683L81.8434 175.059L89.4665 163.479L101.045 171.103L93.4222 182.683ZM106.204 191.099L94.6255 183.476L102.249 171.896L113.827 179.519L106.204 191.099ZM118.986 199.509L107.408 191.885L115.031 180.305L126.609 187.929L118.986 199.509ZM127.402 186.725L115.823 179.101L123.446 167.521L135.025 175.145L127.402 186.725ZM140.184 195.135L128.605 187.518L136.228 175.938L147.807 183.562L140.184 195.135ZM148.592 182.351L137.014 174.727L144.637 163.147L156.216 170.771L148.592 182.351ZM161.374 190.768L149.796 183.144L157.419 171.564L168.998 179.188L161.374 190.768ZM174.157 199.177L162.578 191.553L170.201 179.973L181.78 187.597L174.157 199.177ZM182.572 186.394L170.993 178.77L178.617 167.19L190.195 174.814L182.572 186.394ZM202.97 183.23L195.347 194.81L183.768 187.187L191.391 175.607L202.97 183.23ZM187.025 154.414L198.604 162.038L190.981 173.618L179.402 165.994L187.025 154.414ZM174.243 145.997L185.822 153.621L178.199 165.201L166.62 157.577L174.243 145.997ZM173.04 145.205L165.417 156.785L153.838 149.161L161.461 137.581L173.04 145.205ZM157.087 116.388L168.666 124.012L161.043 135.592L149.464 127.968L157.087 116.388ZM155.884 115.595L148.261 127.175L136.682 119.551L144.305 107.971L155.884 115.595ZM139.939 86.7787L151.518 94.4026L143.895 105.983L132.316 98.3586L139.939 86.7787ZM127.157 78.3693L138.736 85.9932L131.113 97.5732L119.534 89.9493L127.157 78.3693ZM118.741 91.1527L130.32 98.7766L122.697 110.357L111.118 102.733L118.741 91.1527ZM105.959 82.7361L117.538 90.36L109.915 101.94L98.3362 94.3161L105.959 82.7361ZM97.5436 95.5195L109.122 103.143L101.499 114.723L89.9205 107.099L97.5436 95.5195ZM84.7615 87.1101L96.3403 94.734L88.7172 106.314L77.1384 98.6901L84.7615 87.1101ZM76.3531 99.8935L87.9318 107.517L80.3087 119.097L68.7299 111.473L76.3531 99.8935ZM67.9374 112.677L79.5161 120.301L71.893 131.881L60.3143 124.257L67.9374 112.677ZM59.5289 125.46L71.1077 133.084L63.4846 144.664L51.9058 137.04L59.5289 125.46ZM51.1132 138.244L62.692 145.868L55.0689 157.448L43.4901 149.824L51.1132 138.244ZM42.7047 151.027L54.2835 158.651L46.6604 170.231L35.0816 162.607L42.7047 151.027ZM26.6732 175.39L34.2963 163.81L45.875 171.434L38.2519 183.014L26.6732 175.39Z" fill="#B1B1B1"/>
</g>
<path id="Vector_4" d="M213.85 200.381C214.023 196.936 213.922 192.267 212.711 187.799C210.391 179.26 193.697 150.35 186.167 140.42C178.638 130.49 166.468 109.268 155.905 96.8742C145.804 85.0204 130.781 77.519 129.484 76.8849C129.419 76.8561 129.383 76.8344 129.383 76.8344L96.7291 76.6615C96.7291 76.6615 64.6804 91.2103 48.1156 112.922C35.1462 129.928 24.1295 179.649 19.9648 200.388H213.85V200.381Z" stroke="#020046" stroke-miterlimit="10" stroke-linecap="round" stroke-linejoin="round"/>
</g>
<g id="Group_4">
<g id="Group_5">
<path id="Vector_5" d="M227.619 61.2335C227.619 61.2335 235.48 52.6368 239.363 52.7449C243.254 52.853 243.204 56.7226 241.179 60.0229C239.155 63.3233 236.172 66.0327 232.259 67.8846C228.347 69.7438 224.233 65.4995 227.619 61.2335Z" fill="white" stroke="#020046" stroke-miterlimit="10" stroke-linecap="round" stroke-linejoin="round"/>
<path id="Vector_6" d="M194.992 108.029L213.12 115.033L226.709 78.8089L229.664 69.7942L210.887 65.6147L194.992 108.029Z" fill="white" stroke="#020046" stroke-miterlimit="10" stroke-linecap="round" stroke-linejoin="round"/>
<g id="Group_6">
<path id="Vector_7" d="M229.649 80.2357H218.121C215.505 80.2357 213.387 78.1171 213.387 75.5014V48.4862H234.383V75.5014C234.383 78.1171 232.264 80.2357 229.649 80.2357Z" fill="white" stroke="#020046" stroke-miterlimit="10" stroke-linecap="round" stroke-linejoin="round"/>
<path id="Vector_8" d="M234.383 57.7026H213.387V70.7959H234.383V57.7026Z" fill="white" stroke="#020046" stroke-miterlimit="10" stroke-linecap="round" stroke-linejoin="round"/>
<g id="Group_7">
<path id="Vector_9" d="M234.382 53.5159H213.386C212.414 53.5159 211.621 52.7305 211.621 51.7505V47.0954C211.621 46.1226 212.406 45.33 213.386 45.33H234.382C235.355 45.33 236.148 46.1154 236.148 47.0954V51.7505C236.14 52.7305 235.355 53.5159 234.382 53.5159Z" fill="#B3FFD1" stroke="#020046" stroke-miterlimit="10" stroke-linecap="round" stroke-linejoin="round"/>
<g id="Group_8">
<path id="Vector_10" d="M215.273 45.3372V53.5159" stroke="#020046" stroke-miterlimit="10" stroke-linecap="round" stroke-linejoin="round"/>
<path id="Vector_11" d="M219.574 45.3372V53.5159" stroke="#020046" stroke-miterlimit="10" stroke-linecap="round" stroke-linejoin="round"/>
<path id="Vector_12" d="M223.883 45.3372V53.5159" stroke="#020046" stroke-miterlimit="10" stroke-linecap="round" stroke-linejoin="round"/>
<path id="Vector_13" d="M228.184 45.3372V53.5159" stroke="#020046" stroke-miterlimit="10" stroke-linecap="round" stroke-linejoin="round"/>
<path id="Vector_14" d="M232.492 45.3372V53.5159" stroke="#020046" stroke-miterlimit="10" stroke-linecap="round" stroke-linejoin="round"/>
</g>
</g>
<g id="Group_9">
<path id="Vector_15" d="M216.363 60.6715H231.408" stroke="#020046" stroke-miterlimit="10" stroke-linecap="round" stroke-linejoin="round"/>
<path id="Vector_16" d="M216.363 63.8062H231.408" stroke="#020046" stroke-miterlimit="10" stroke-linecap="round" stroke-linejoin="round"/>
<path id="Vector_17" d="M216.363 66.9335H231.408" stroke="#020046" stroke-miterlimit="10" stroke-linecap="round" stroke-linejoin="round"/>
</g>
</g>
<g id="Group_10">
<path id="Vector_18" d="M237.099 67.8776C238.447 66.0472 239.16 63.5035 236.566 62.2209C233.021 60.4626 228.849 64.8727 227.617 66.739C225.139 70.5005 226.299 71.9057 228.554 71.9561L228.54 71.9633C228.54 71.9633 224.757 76.1068 230.132 76.3157C235.06 76.4959 241.401 71.1707 237.099 67.8776Z" fill="white"/>
<g id="Group_11">
<path id="Vector_19" d="M227.617 66.7317C228.849 64.8653 233.021 60.4553 236.566 62.2135C240.017 63.9214 237.625 67.863 235.651 69.3763C231.594 72.4893 222.826 73.9953 227.617 66.7317Z" stroke="#020046" stroke-miterlimit="10" stroke-linecap="round" stroke-linejoin="round"/>
<path id="Vector_20" d="M228.539 71.9632C228.539 71.9632 224.756 76.1066 230.131 76.3156C235.053 76.503 241.393 71.1778 237.092 67.8774" stroke="#020046" stroke-miterlimit="10" stroke-linecap="round" stroke-linejoin="round"/>
</g>
</g>
<g id="Group_12">
<path id="Vector_21" d="M189.352 102.358C189.352 102.358 200.498 75.9265 202.609 70.0537C204.72 64.188 213.475 51.5992 218.612 55.7354C221.919 58.3944 214.231 70.7887 214.231 70.7887C214.231 70.7887 216.58 77.9226 216.933 83.4351L204.396 110.508L189.352 102.358Z" fill="white"/>
<path id="Vector_22" d="M189.352 102.358C189.352 102.358 200.498 75.9265 202.609 70.0537C204.72 64.188 213.475 51.5992 218.612 55.7354C221.919 58.3944 214.231 70.7887 214.231 70.7887C214.231 70.7887 216.58 77.9226 216.933 83.4351" stroke="#020046" stroke-miterlimit="10" stroke-linecap="round" stroke-linejoin="round"/>
</g>
</g>
<g id="Group_13">
<path id="Vector_23" d="M190.541 90.8356L171.217 126.224L174.402 120.027C155.063 102.783 133.793 90.7708 133.793 90.7708L171.635 191.539C171.635 191.539 195.088 197.275 206.71 174.043C218.332 150.811 223.88 106.256 223.88 106.256L190.541 90.8356Z" fill="#3458FF"/>
<path id="Vector_24" d="M223.889 106.256L190.543 90.8356L171.219 126.224" stroke="#020046" stroke-miterlimit="10" stroke-linecap="round" stroke-linejoin="round"/>
<path id="Vector_25" d="M174.402 120.027C155.063 102.783 133.793 90.7708 133.793 90.7708" stroke="#020046" stroke-miterlimit="10" stroke-linecap="round" stroke-linejoin="round"/>
<g id="Group_14">
<path id="Vector_26" d="M184.445 102.005L221.855 119.652C223.217 111.654 223.887 106.264 223.887 106.264L190.541 90.8356L184.445 102.005Z" fill="#3458FF" stroke="#020046" stroke-miterlimit="10" stroke-linecap="round" stroke-linejoin="round"/>
<path id="Vector_27" d="M189.316 104.304L194.994 92.8965" stroke="#020046" stroke-miterlimit="10" stroke-linecap="round" stroke-linejoin="round"/>
<path id="Vector_28" d="M201.005 95.851L195.867 107.316" stroke="#020046" stroke-miterlimit="10" stroke-linecap="round" stroke-linejoin="round"/>
<path id="Vector_29" d="M208.199 99.1656L203.242 110.796" stroke="#020046" stroke-miterlimit="10" stroke-linecap="round" stroke-linejoin="round"/>
<path id="Vector_30" d="M214.871 102.358L210.887 114.435" stroke="#020046" stroke-miterlimit="10" stroke-linecap="round" stroke-linejoin="round"/>
<path id="Vector_31" d="M220.94 105.103L217.402 117.548" stroke="#020046" stroke-miterlimit="10" stroke-linecap="round" stroke-linejoin="round"/>
</g>
<g id="Group_15">
<path id="Vector_32" d="M187.828 112.087L182.836 115.855L186.603 120.848L191.595 117.08L187.828 112.087Z" fill="white"/>
<path id="Vector_33" d="M195.371 130.299L190.379 134.067L194.146 139.059L199.138 135.292L195.371 130.299Z" fill="white"/>
<path id="Vector_34" d="M162.824 113.164L157.832 116.931L161.6 121.924L166.592 118.156L162.824 113.164Z" fill="white"/>
<path id="Vector_35" d="M212.945 122.122L207.953 125.889L211.721 130.882L216.713 127.114L212.945 122.122Z" fill="white"/>
<path id="Vector_36" d="M171.672 134.812L166.68 138.579L170.447 143.572L175.439 139.804L171.672 134.812Z" fill="white"/>
<path id="Vector_37" d="M180.387 150.972L175.395 154.74L179.162 159.733L184.154 155.965L180.387 150.972Z" fill="white"/>
<path id="Vector_38" d="M189.265 167.091L184.273 170.859L188.041 175.851L193.033 172.084L189.265 167.091Z" fill="white"/>
<path id="Vector_39" d="M168.816 166.232L163.824 170L167.592 174.992L172.584 171.225L168.816 166.232Z" fill="white"/>
<path id="Vector_40" d="M154.992 131.211L150 134.979L153.767 139.971L158.76 136.203L154.992 131.211Z" fill="white"/>
<path id="Vector_41" d="M202.324 153.413L197.332 157.181L201.1 162.174L206.092 158.406L202.324 153.413Z" fill="white"/>
<path id="Vector_42" d="M216.712 140.42L211.719 144.189L215.487 149.182L215.559 149.132C216.244 146.566 216.885 143.987 217.483 141.443L216.712 140.42Z" fill="white"/>
<path id="Vector_43" d="M207.216 173.02L206.056 171.478L201.062 175.246L203.829 178.914C204.852 177.451 205.818 175.837 206.711 174.043C206.884 173.711 207.05 173.366 207.216 173.02Z" fill="white"/>
<path id="Vector_44" d="M190.543 189.118L186.774 184.124L181.781 187.893L184.548 191.553C185.924 191.287 187.351 190.919 188.806 190.422L190.543 189.118Z" fill="white"/>
</g>
</g>
</g>
<g id="Group_16">
<path id="Vector_45" d="M37.8676 193.658L40.1589 200.381H179.522C178.11 184.384 173.167 146.185 162.208 119.119C150.557 90.3313 128.668 82.5128 128.668 82.5128L78.4257 84.1053C56.176 96.687 29.805 143.98 37.2047 190.163C37.3921 191.359 37.6154 192.526 37.8676 193.658Z" fill="#3458FF"/>
<g id="Group_17">
<path id="Vector_46" d="M121.219 97.9714L116.227 101.739L119.994 106.732L124.986 102.964L121.219 97.9714Z" fill="white"/>
<path id="Vector_47" d="M138.937 109.93L133.945 113.698L137.713 118.69L142.705 114.922L138.937 109.93Z" fill="white"/>
<path id="Vector_48" d="M109.723 116.809L104.73 120.577L108.498 125.569L113.49 121.801L109.723 116.809Z" fill="white"/>
<path id="Vector_49" d="M126.445 132.756L121.453 136.524L125.221 141.517L130.213 137.749L126.445 132.756Z" fill="white"/>
<path id="Vector_50" d="M46.7928 159.589L41.8008 163.357L45.5683 168.349L50.5603 164.582L46.7928 159.589Z" fill="white"/>
<path id="Vector_51" d="M56.5194 131.984L51.5273 135.752L55.2948 140.745L60.2869 136.977L56.5194 131.984Z" fill="white"/>
<path id="Vector_52" d="M69.953 101.256L64.9609 105.024L68.7284 110.016L73.7204 106.249L69.953 101.256Z" fill="white"/>
<path id="Vector_53" d="M158.293 128.377L153.301 132.145L157.068 137.138L162.06 133.37L158.293 128.377Z" fill="white"/>
<path id="Vector_54" d="M145.152 147.311L140.16 151.079L143.928 156.072L148.92 152.304L145.152 147.311Z" fill="white"/>
<path id="Vector_55" d="M110.68 149.173L105.688 152.941L109.455 157.933L114.447 154.165L110.68 149.173Z" fill="white"/>
<path id="Vector_56" d="M126.445 166.019L121.453 169.787L125.221 174.779L130.213 171.012L126.445 166.019Z" fill="white"/>
<path id="Vector_57" d="M145.152 180.171L140.16 183.939L143.928 188.931L148.92 185.164L145.152 180.171Z" fill="white"/>
<path id="Vector_58" d="M106.562 182.089L101.57 185.857L105.338 190.85L110.33 187.082L106.562 182.089Z" fill="white"/>
<path id="Vector_59" d="M145.925 94.3449C144.297 92.7452 142.697 91.3328 141.17 90.1006L138.273 92.284L142.042 97.2777L145.925 94.3449Z" fill="white"/>
<path id="Vector_60" d="M173.68 159.948C173.24 157.707 172.765 155.444 172.267 153.174L167.793 156.554L171.561 161.548L173.68 159.948Z" fill="white"/>
<path id="Vector_61" d="M36.3056 182.726L41.2411 179.001L37.4728 174.007L35.9453 175.16C35.9669 177.682 36.0894 180.204 36.3056 182.726Z" fill="white"/>
<path id="Vector_62" d="M43.4404 145.925L40.4503 141.962C39.7514 144.47 39.1173 147.021 38.5625 149.607L43.4404 145.925Z" fill="white"/>
<path id="Vector_63" d="M51.6541 120.243L56.6473 116.474L53.16 111.855C52.0287 113.794 50.9264 115.804 49.8672 117.872L51.6541 120.243Z" fill="white"/>
<path id="Vector_64" d="M124.815 200.345L127.106 198.615L123.345 193.621L118.352 197.39L120.6 200.366L124.815 200.345Z" fill="white"/>
</g>
<path id="Vector_65" d="M179.442 199.502C177.929 183.021 172.972 145.695 162.207 119.112C150.557 90.324 128.667 82.5055 128.667 82.5055L108.219 83.154" stroke="#020046" stroke-miterlimit="10" stroke-linecap="round" stroke-linejoin="round"/>
</g>
<g id="Group_18">
<g id="Group_19">
<path id="Vector_66" d="M128.753 27.3294L118.724 27.4519C112.052 27.5312 106.669 33.8148 106.763 41.4099L106.95 56.9603C106.957 57.3999 106.986 57.8322 107.022 58.2574C106.921 58.7186 106.864 59.1942 106.871 59.6842L106.986 69.1528L106.993 69.6788L107.109 79.1475C107.152 82.5847 109.998 85.359 113.428 85.3158L117.405 85.2654C120.842 85.2221 123.616 82.3758 123.573 78.9457L123.472 70.5652L129.272 70.4931C135.944 70.4139 141.326 64.1303 141.233 56.5352L141.045 40.9847C140.959 33.3968 135.425 27.2429 128.753 27.3294Z" fill="white" stroke="#020046" stroke-miterlimit="10" stroke-linecap="round" stroke-linejoin="round"/>
</g>
<path id="Vector_67" d="M107.002 54.7481C107.074 54.2077 106.707 51.4982 107.427 51.5054C109.387 51.527 110.806 50.72 112.291 49.2211C113.465 48.0321 114.171 46.5549 114.424 45.0201C115.439 44.6381 116.405 44.0545 117.219 43.2258C118.905 41.518 119.611 39.2337 119.402 37.0214C119.921 36.7044 120.418 36.3369 120.865 35.8901C121.232 35.5154 121.557 35.1191 121.83 34.6939C124.756 37.0719 128.971 36.9998 131.817 34.4993C132.019 34.7515 132.206 35.0182 132.437 35.256C135.492 38.2753 140.413 38.2537 143.432 35.1983C144.664 33.9517 145.363 32.388 145.586 30.7739C146.559 30.3919 147.474 29.8155 148.252 29.0228C151.271 25.9675 151.249 21.0458 148.194 18.0265C147.784 17.6158 147.33 17.2699 146.854 16.9744C146.847 14.9856 146.076 12.9968 144.548 11.4835C143.043 9.99187 141.083 9.24965 139.116 9.24244C138.734 8.34891 138.179 7.5058 137.444 6.778C134.879 4.2415 131.01 3.8812 128.041 5.62505C127.659 4.6018 127.076 3.62899 126.247 2.80751C123.192 -0.211786 118.271 -0.190163 115.252 2.85796C114.56 3.54973 114.056 4.34959 113.681 5.1999C113.566 5.06298 113.472 4.91886 113.343 4.78915C110.598 2.0725 106.166 2.09413 103.45 4.8396C102.802 5.49534 102.319 6.24476 101.98 7.04462C99.1341 5.83402 95.726 6.38888 93.4131 8.7164C92.0297 10.1144 91.3164 11.9014 91.2083 13.7246C89.6088 13.6885 88.002 14.2722 86.7843 15.4972C84.9038 17.3996 84.5723 20.2315 85.7324 22.487C84.1905 22.7752 82.7134 23.5102 81.5245 24.7064C78.4263 27.8338 78.4551 32.8852 81.5822 35.9766C82.6269 37.0142 83.895 37.6628 85.2208 38.0014C83.1169 40.6388 83.2682 44.4796 85.718 46.908C86.8924 48.0682 88.3839 48.6735 89.9114 48.796C87.5049 51.7648 87.6634 56.11 90.4374 58.8555C92.9592 61.356 96.7996 61.6802 99.6889 59.886C99.4078 61.7739 99.9771 63.77 101.44 65.2112C102.967 66.7244 105.086 67.2793 107.045 66.8757L107.002 54.7481Z" fill="white" stroke="#020046" stroke-miterlimit="10" stroke-linecap="round" stroke-linejoin="round"/>
<g id="Group_20">
<path id="Vector_68" d="M129 88.5152L103.472 88.3351C100.374 88.3135 97.8809 85.7842 97.9025 82.6856L97.9313 78.4557C97.9529 75.3571 100.482 72.8639 103.58 72.8927L129.108 73.0729C132.206 73.0945 134.699 75.6238 134.671 78.7223L134.642 82.9522C134.62 86.0436 132.091 88.5368 129 88.5152Z" fill="#3458FF" stroke="#020046" stroke-miterlimit="10"/>
</g>
<g id="Group_21">
<path id="Vector_69" d="M100.223 73.9808V87.1822" stroke="#020046" stroke-miterlimit="10" stroke-linecap="round" stroke-linejoin="round"/>
<path id="Vector_70" d="M103.969 72.8999V88.3351" stroke="#020046" stroke-miterlimit="10" stroke-linecap="round" stroke-linejoin="round"/>
<path id="Vector_71" d="M108.184 73.0295V88.371" stroke="#020046" stroke-miterlimit="10" stroke-linecap="round" stroke-linejoin="round"/>
<path id="Vector_72" d="M112.293 72.9575V88.3999" stroke="#020046" stroke-miterlimit="10" stroke-linecap="round" stroke-linejoin="round"/>
<path id="Vector_73" d="M117.695 72.9935V88.1981" stroke="#020046" stroke-miterlimit="10" stroke-linecap="round" stroke-linejoin="round"/>
<path id="Vector_74" d="M122.625 73.0295V88.371" stroke="#020046" stroke-miterlimit="10" stroke-linecap="round" stroke-linejoin="round"/>
<path id="Vector_75" d="M127.633 73.0657V88.5081" stroke="#020046" stroke-miterlimit="10" stroke-linecap="round" stroke-linejoin="round"/>
<path id="Vector_76" d="M131.414 73.6781V87.8234" stroke="#020046" stroke-miterlimit="10" stroke-linecap="round" stroke-linejoin="round"/>
</g>
</g>
<g id="Group_22">
<path id="Vector_77" d="M121.039 46.317C121.054 47.5637 122.077 48.5653 123.33 48.5509C124.577 48.5365 125.578 47.5132 125.564 46.2594C125.55 45.0128 124.527 44.0111 123.273 44.0255C122.026 44.04 121.025 45.0632 121.039 46.317Z" fill="#020046"/>
<path id="Vector_78" d="M135.84 45.8054C135.854 46.8719 136.726 47.7222 137.793 47.715C138.859 47.7006 139.709 46.8286 139.702 45.7622C139.688 44.6957 138.816 43.8454 137.749 43.8526C136.683 43.8598 135.826 44.7389 135.84 45.8054Z" fill="#020046"/>
<path id="Vector_79" d="M133.794 55.0796C133.794 55.0796 132.699 58.4015 130.299 58.6609C127.9 58.9203 125.983 56.2758 125.832 54.2004L133.794 55.0796Z" fill="white" stroke="#020046" stroke-miterlimit="10" stroke-linecap="round" stroke-linejoin="round"/>
<path id="Vector_80" d="M130.078 51.6567L133.731 49.3724L130.446 43.9463" stroke="#020046" stroke-miterlimit="10" stroke-linecap="round" stroke-linejoin="round"/>
<path id="Vector_81" d="M119.109 42.2889L123.238 40.7828" stroke="#020046" stroke-miterlimit="10" stroke-linecap="round" stroke-linejoin="round"/>
<path id="Vector_82" d="M135.891 41.3522L139.645 41.309" stroke="#020046" stroke-miterlimit="10" stroke-linecap="round" stroke-linejoin="round"/>
<g id="Group_23">
<path id="Vector_83" d="M128.669 45.3659C128.669 50.2443 125.145 54.2004 120.793 54.2004C116.441 54.2004 112.918 50.2443 112.918 45.3659C112.918 40.4874 116.441 36.5314 120.793 36.5314C125.138 36.5314 128.669 40.4874 128.669 45.3659Z" stroke="#3458FF" stroke-miterlimit="10" stroke-linecap="round" stroke-linejoin="round"/>
<path id="Vector_84" d="M146.64 44.7534C146.64 49.1274 143.766 52.6799 140.221 52.6799C136.676 52.6799 133.801 49.1346 133.801 44.7534C133.801 40.3793 136.676 36.834 140.221 36.834C143.766 36.8268 146.64 40.3793 146.64 44.7534Z" stroke="#3458FF" stroke-miterlimit="10" stroke-linecap="round" stroke-linejoin="round"/>
<path id="Vector_85" d="M128.438 47.8736C129.295 47.4268 130.368 47.0449 131.874 47.0449C132.753 47.0449 133.438 47.153 134.144 47.3548" stroke="#3458FF" stroke-miterlimit="10" stroke-linecap="round" stroke-linejoin="round"/>
<path id="Vector_86" d="M112.912 46.2882L107.465 49.8912" stroke="#3458FF" stroke-miterlimit="10" stroke-linecap="round" stroke-linejoin="round"/>
</g>
<g id="Group_24">
<path id="Vector_87" d="M94.2663 52.3341C94.3168 56.7081 97.941 60.2102 102.351 60.1598C106.76 60.1094 110.291 56.5136 110.24 52.1396C110.19 47.7655 106.566 44.2635 102.156 44.3139C97.7464 44.3715 94.2087 47.9601 94.2663 52.3341Z" fill="white"/>
<path id="Vector_88" d="M106.579 53.2348C106.579 53.2348 106.867 47.852 101.348 48.5149" stroke="#020046" stroke-miterlimit="10" stroke-linecap="round" stroke-linejoin="round"/>
<g id="Group_25">
<path id="Vector_89" d="M110.24 52.1395C110.211 49.9128 109.268 47.9168 107.762 46.4972" stroke="#020046" stroke-miterlimit="10" stroke-linecap="round" stroke-linejoin="round"/>
<path id="Vector_90" d="M107.762 46.4972C106.306 45.1209 104.325 44.285 102.156 44.3138C97.7463 44.3643 94.2157 47.96 94.2662 52.3341C94.3166 56.7081 97.9408 60.2102 102.35 60.1597C103.712 60.1453 104.988 59.7922 106.104 59.1797C106.515 58.9563 107.574 58.2357 107.898 57.8971" stroke="#020046" stroke-miterlimit="10" stroke-linecap="round" stroke-linejoin="round"/>
</g>
</g>
</g>
<g id="Group_26">
<path id="Vector_91" d="M33.2292 200.381C39.4257 181.66 49.3257 152.252 54.5782 139.202C62.5904 119.292 78.3194 104.7 82.7938 102.365C87.2683 100.03 110.073 74.9248 110.073 74.9248L110.75 69.0736C110.75 69.0736 75.3581 67.2721 41.8106 108.577C16.8734 139.281 5.74136 178.554 1.375 200.388H33.2292V200.381Z" fill="white"/>
<g id="Group_27">
<path id="Vector_92" d="M110.74 69.0663C110.74 69.0663 110.026 69.0303 108.715 69.0879L110.595 70.3201L110.74 69.0663Z" fill="#B1B1B1"/>
<path id="Vector_93" d="M110.063 74.9175L110.423 71.819L104.184 81.2948C107.62 77.6054 110.063 74.9175 110.063 74.9175Z" fill="#B1B1B1"/>
<g id="Group_28">
<path id="Vector_94" d="M7.50307 200.381H9.22511L15.4576 190.905L27.0364 198.529L25.8187 200.381H27.5407L28.2396 199.321L29.8464 200.381H32.4691L29.0322 198.118L36.6553 186.538L37.6208 187.172C37.7793 186.704 37.9379 186.235 38.0964 185.76L37.4479 185.334L39.0691 182.87C39.6671 181.09 40.2796 179.281 40.892 177.473L36.2374 184.542L24.6587 176.918L32.2818 165.338L42.6933 172.191C42.8518 171.722 43.0175 171.254 43.176 170.786L33.0743 164.142L40.6975 152.562L47.8738 157.282C48.0396 156.813 48.2053 156.345 48.371 155.884L41.49 151.358L49.1131 139.778L53.2705 142.517C53.4507 142.048 53.6308 141.587 53.8037 141.14L49.9057 138.575L57.5216 126.988L59.8201 128.501C60.065 128.083 60.31 127.672 60.555 127.262L58.307 125.784L65.9301 114.204L68.5456 115.927C68.8554 115.545 69.1652 115.177 69.4678 114.81L66.7155 113.001L74.3386 101.421L79.4038 104.75C79.8217 104.404 80.218 104.087 80.5927 103.806L75.1383 100.218L82.7615 88.6376L91.595 94.4529C91.9337 94.107 92.2795 93.7611 92.6326 93.408L83.554 87.4342L91.1771 75.8543L102.381 83.2332C102.72 82.8729 103.051 82.5126 103.383 82.1667L91.9697 74.6581L93.9223 71.6892C93.2234 71.891 92.5029 72.1144 91.768 72.345L90.7664 73.8654L89.5704 73.08C89.0156 73.2745 88.4536 73.4763 87.8771 73.6925L89.9667 75.0688L82.3436 86.6488L73.3226 80.7111C72.8687 80.9777 72.4148 81.2587 71.9536 81.5398L81.551 87.8594L73.9279 99.4394L62.3491 91.8155L66.9532 84.8113C65.858 85.5751 64.7628 86.3678 63.6532 87.2109L61.1458 91.0228L59.8849 90.1941C59.503 90.5112 59.114 90.8283 58.7321 91.1597L60.3533 92.2262L52.7301 103.806L48.4286 100.974C48.0972 101.327 47.7658 101.688 47.4343 102.048L51.9376 105.01L44.3145 116.59L38.5071 112.77C38.2189 113.152 37.9307 113.541 37.6424 113.931L43.5219 117.8L35.8988 129.38L29.8824 125.417C29.6303 125.828 29.3781 126.238 29.1259 126.649L35.1062 130.584L27.4831 142.164L22.3746 138.798C22.1513 139.231 21.9351 139.663 21.7189 140.095L26.6905 143.367L19.089 154.933L15.8899 152.828C15.7026 153.282 15.508 153.729 15.3207 154.183L18.2965 156.143L10.6734 167.723L10.2987 167.478C10.133 167.946 9.97445 168.422 9.81594 168.883L9.88079 168.927L9.71506 169.179C9.12424 170.93 8.56223 172.659 8.02905 174.36L11.0841 169.719L22.6628 177.343L15.0397 188.923L5.57207 182.69C5.43517 183.18 5.30547 183.67 5.17578 184.153L14.2471 190.126L7.50307 200.381ZM61.5637 93.0045L73.1425 100.628L65.5194 112.208L53.9406 104.584L61.5637 93.0045ZM53.1553 105.795L64.734 113.419L57.1109 124.999L45.5321 117.375L53.1553 105.795ZM44.7396 118.578L56.3183 126.202L48.6952 137.782L37.1165 130.158L44.7396 118.578ZM36.3311 131.362L47.9099 138.986L40.2868 150.566L28.708 142.942L36.3311 131.362ZM27.9154 144.145L39.4942 151.769L31.8711 163.349L20.2923 155.725L27.9154 144.145ZM11.8838 168.509L19.5069 156.929L31.0857 164.552L23.4626 176.132L11.8838 168.509ZM23.8733 178.121L35.4521 185.745L27.829 197.325L16.2502 189.701L23.8733 178.121Z" fill="#B1B1B1"/>
<path id="Vector_95" d="M4.64442 200.381L1.75514 198.478C1.64706 198.997 1.54619 199.501 1.44531 199.999L2.02894 200.381H4.64442Z" fill="#B1B1B1"/>
</g>
</g>
<path id="Vector_96" d="M33.2292 200.381C39.4257 181.66 49.3257 152.252 54.5782 139.202C62.5904 119.292 78.3194 104.7 82.7938 102.365C87.2683 100.03 110.073 74.9248 110.073 74.9248L110.75 69.0736C110.75 69.0736 75.3581 67.2721 41.8106 108.577C16.8734 139.281 5.74136 178.554 1.375 200.388H33.2292V200.381Z" stroke="#020046" stroke-miterlimit="10" stroke-linecap="round" stroke-linejoin="round"/>
</g>
</g>
<g id="Group_29">
<g id="Group_30">
<path id="Vector_97" d="M73.3906 115.033C73.3906 115.033 76.1286 88.6017 77.3967 79.3277C78.6648 70.0536 83.2762 59.0861 87.3111 59.1149C91.346 59.1437 88.5288 66.8902 89.2277 70.5292C89.9338 74.1682 92.1746 77.3388 92.1746 77.3388L85.4305 116.482L73.3906 115.033Z" fill="white" stroke="#020046" stroke-miterlimit="10" stroke-linecap="round" stroke-linejoin="round"/>
<g id="Group_31">
<path id="Vector_98" d="M112.297 89.1783C109.674 87.4057 108.478 88.9693 106.626 90.5042C106.144 90.5619 104.573 91.2248 103.182 88.3929C101.799 85.5609 96.5464 70.3347 95.9411 66.1481C95.3287 61.9614 96.9138 61.529 96.9354 61.4642C99.5653 61.5867 101.626 62.4586 102.815 59.3024C104.025 56.1102 105.913 44.4005 100.574 42.9232C95.2422 41.446 87.8353 46.4398 85.8899 52.9828C84.3696 58.1134 86.9634 69.8663 89.0529 77.375C89.0529 77.375 89.4564 78.9242 89.7807 79.8898C90.0761 80.8698 90.6381 82.3615 90.6381 82.3615C93.2608 89.7044 97.9153 100.802 102.123 104.109C107.484 108.332 116.411 108.144 119.92 103.857C123.422 99.5621 115.129 91.0879 112.297 89.1783Z" fill="#B3FFD1" stroke="#020046" stroke-miterlimit="10" stroke-linecap="round" stroke-linejoin="round"/>
<path id="Vector_99" d="M100.573 42.9159C99.2688 42.5556 97.835 42.5844 96.3867 42.9231C100.753 50.1651 98.6708 58.0917 97.4099 61.4857C99.8092 61.673 101.69 62.2567 102.807 59.2951C104.017 56.1028 105.912 44.3931 100.573 42.9159Z" stroke="#020046" stroke-miterlimit="10" stroke-linecap="round" stroke-linejoin="round"/>
<path id="Vector_100" d="M119.919 103.85C119.062 104.902 117.873 105.701 116.497 106.256C115.884 97.8182 109.616 92.5434 106.633 90.4969C108.485 88.962 109.688 87.3983 112.303 89.171C115.128 91.0878 123.421 99.562 119.919 103.85Z" stroke="#020046" stroke-miterlimit="10" stroke-linecap="round" stroke-linejoin="round"/>
</g>
<g id="Group_32">
<path id="Vector_101" d="M104.278 75.422C104.79 69.8806 102.534 68.0575 102.534 68.0575L102.325 68.3169C102.325 67.4738 102.232 66.8325 102.117 66.4289C101.554 64.541 99.7748 63.352 95.9705 68.1223C92.1661 72.8927 83.2172 80.7256 83.2172 80.7256L78.4258 115.783L96.7414 117.231C96.7414 117.231 98.1464 107.878 99.8973 103.496C101.648 99.1152 105.229 92.846 106.151 83.5431C106.951 75.3715 104.278 75.422 104.278 75.422Z" fill="white"/>
<g id="Group_33">
<path id="Vector_102" d="M83.2109 80.74C83.2109 80.74 92.1598 72.9071 95.9642 68.1367C99.7685 63.3664 101.541 64.5554 102.11 66.4433C102.672 68.3313 102.723 75.6454 94.2709 84.0043" stroke="#020046" stroke-miterlimit="10" stroke-linecap="round" stroke-linejoin="round"/>
<path id="Vector_103" d="M102.527 68.0575C102.527 68.0575 107.917 72.3811 100.164 88.0901" stroke="#020046" stroke-miterlimit="10" stroke-linecap="round" stroke-linejoin="round"/>
<path id="Vector_104" d="M104.277 75.422C104.277 75.422 106.951 75.3716 106.144 83.5575C105.221 92.8676 101.648 99.1296 99.8895 103.511C98.1386 107.892 96.7336 117.245 96.7336 117.245L78.418 115.797" stroke="#020046" stroke-miterlimit="10" stroke-linecap="round" stroke-linejoin="round"/>
</g>
</g>
</g>
<g id="Group_34">
<path id="Vector_105" d="M37.8672 193.657C46.5999 233.074 88.7936 223.649 99.5942 205.547C110.705 186.934 107.895 111.041 107.895 111.041L66.9834 106.768L43.689 184.102L37.8672 193.657Z" fill="#3458FF"/>
<g id="Group_35">
<path id="Vector_106" d="M76.453 147.921L71.4609 151.689L75.2284 156.681L80.2204 152.913L76.453 147.921Z" fill="white"/>
<path id="Vector_107" d="M97.992 134.494L93 138.262L96.7675 143.254L101.76 139.487L97.992 134.494Z" fill="white"/>
<path id="Vector_108" d="M79.7616 121.612L74.7695 125.38L78.537 130.373L83.529 126.605L79.7616 121.612Z" fill="white"/>
<path id="Vector_109" d="M68.2733 171.822L63.2812 175.59L67.0487 180.583L72.0408 176.815L68.2733 171.822Z" fill="white"/>
<path id="Vector_110" d="M90.7772 166.749L85.7852 170.517L89.5526 175.509L94.5447 171.741L90.7772 166.749Z" fill="white"/>
<path id="Vector_111" d="M98.7342 186.26L93.7422 190.028L97.5097 195.02L102.502 191.253L98.7342 186.26Z" fill="white"/>
<path id="Vector_112" d="M78.2499 191.191L73.2578 194.959L77.0253 199.951L82.0173 196.184L78.2499 191.191Z" fill="white"/>
<path id="Vector_113" d="M49.4217 186.96L44.4297 190.728L48.1972 195.721L53.1892 191.953L49.4217 186.96Z" fill="white"/>
<path id="Vector_114" d="M58.5858 204.291L53.5938 208.059L57.3612 213.052L62.3533 209.284L58.5858 204.291Z" fill="white"/>
<path id="Vector_115" d="M108.212 130.447C108.205 127.708 108.183 125.172 108.162 122.895L104.566 125.612L108.212 130.447Z" fill="white"/>
<path id="Vector_116" d="M60.0156 136.37L65.0016 132.601L61.2405 127.615L60.5488 128.134L58.625 134.525L60.0156 136.37Z" fill="white"/>
<path id="Vector_117" d="M106.556 154.731L101.562 158.5L105.331 163.493L107.377 161.951C107.492 160.042 107.586 158.125 107.673 156.215L106.556 154.731Z" fill="white"/>
<path id="Vector_118" d="M52.3273 164.704L57.3205 160.942L53.5521 155.949L51.7653 157.296L50.3242 162.059L52.3273 164.704Z" fill="white"/>
<path id="Vector_119" d="M90.1924 209.129L85.1992 212.897L87.7499 216.277C89.6304 215.254 91.3885 214.101 92.9953 212.84L90.1924 209.129Z" fill="white"/>
<path id="Vector_120" d="M72.5891 220.975L69.2315 216.529L64.2383 220.298L64.721 220.939C67.3293 221.249 69.9736 221.249 72.5891 220.975Z" fill="white"/>
<path id="Vector_121" d="M43.9345 208.228L46.1753 206.535L42.407 201.541L40.8867 202.687C41.6 204.113 42.7601 206.326 43.9345 208.228Z" fill="white"/>
</g>
<g id="Group_36">
<path id="Vector_122" d="M108.193 126.073C108.121 117.036 107.897 111.034 107.897 111.034L66.9861 106.761L62.7422 120.856L108.193 126.073Z" fill="#3458FF" stroke="#020046" stroke-miterlimit="10" stroke-linecap="round" stroke-linejoin="round"/>
<path id="Vector_123" d="M70.9852 107.15L68.168 121.483" stroke="#020046" stroke-miterlimit="10" stroke-linecap="round" stroke-linejoin="round"/>
<path id="Vector_124" d="M76.4742 107.755L74.8242 122.246" stroke="#020046" stroke-miterlimit="10" stroke-linecap="round" stroke-linejoin="round"/>
<path id="Vector_125" d="M84.2622 108.569L82.7852 123.162" stroke="#020046" stroke-miterlimit="10" stroke-linecap="round" stroke-linejoin="round"/>
<path id="Vector_126" d="M93.6314 109.549L92.3633 124.048" stroke="#020046" stroke-miterlimit="10" stroke-linecap="round" stroke-linejoin="round"/>
<path id="Vector_127" d="M101.262 110.342L100.844 125.23" stroke="#020046" stroke-miterlimit="10" stroke-linecap="round" stroke-linejoin="round"/>
</g>
<path id="Vector_128" d="M43.6897 184.095L66.9841 106.761L107.895 111.034C107.895 111.034 110.705 186.927 99.5949 205.54C88.7006 223.8 45.8585 233.233 37.6445 192.598" stroke="#020046" stroke-miterlimit="10" stroke-linecap="round" stroke-linejoin="round"/>
</g>
<g id="Group_37">
<path id="Vector_129" d="M118.093 106.256C119.173 110.839 120.492 118.593 116.904 118.211C112.991 117.793 115.592 110.09 121.601 116.136C127.611 122.182 120.701 145.06 113.193 139.685C105.087 133.877 115.845 121.908 123.374 136.01C130.903 150.112 114.814 160.906 112.588 153.556C110.361 146.206 124.793 146.984 121.277 158.528C117.761 170.072 103.495 177.639 103.38 169.042C103.264 160.445 119.627 166.296 116.378 178.864C113.827 188.721 105.015 182.229 110.217 178.965C115.412 175.7 124.974 192.051 118.813 196.187C112.653 200.323 109.518 187.698 121.284 189.247C136.927 191.316 134.218 220.247 124.469 218.518C114.713 216.781 125.593 200.964 142.806 223.31" stroke="#B3FFD1" stroke-miterlimit="10" stroke-linecap="round"/>
<g id="Group_38">
<g id="Group_39">
<path id="Vector_130" d="M149.375 233.11H145.398C143.884 233.11 142.652 231.878 142.652 230.365V225.832H152.12V230.365C152.12 231.885 150.888 233.11 149.375 233.11Z" fill="#020046"/>
<path id="Vector_131" d="M201.972 233.11H197.995C196.482 233.11 195.25 231.878 195.25 230.365V225.832H204.718V230.365C204.718 231.885 203.486 233.11 201.972 233.11Z" fill="#020046"/>
</g>
<path id="Vector_132" d="M194.35 173.077L192.541 160.409C192.433 159.66 191.792 159.105 191.043 159.105H187.008C186.172 159.105 185.487 159.782 185.487 160.625V166.095H175.623H171.762H161.898V160.625C161.898 159.789 161.22 159.105 160.377 159.105H156.342C155.586 159.105 154.945 159.66 154.844 160.409L153.035 173.077H194.35Z" fill="#B3FFD1" stroke="#020046" stroke-miterlimit="10" stroke-linecap="round"/>
<g id="Group_40">
<path id="Vector_133" d="M198.25 171.124H149.11C147.33 171.124 145.839 172.465 145.652 174.23L140.068 225.681C139.844 227.742 141.458 229.536 143.526 229.536H203.826C205.894 229.536 207.508 227.742 207.285 225.681L201.701 174.23C201.521 172.465 200.029 171.124 198.25 171.124Z" fill="#B3FFD1" stroke="#020046" stroke-miterlimit="10" stroke-linecap="round"/>
<path id="Vector_134" d="M150.219 174.735H197.636" stroke="#020046" stroke-miterlimit="10" stroke-linecap="round"/>
<path id="Vector_135" d="M206.932 222.337H140.436L140.075 225.681C139.852 227.742 141.466 229.536 143.534 229.536H203.834C205.902 229.536 207.516 227.734 207.293 225.681L206.932 222.337Z" stroke="#020046" stroke-miterlimit="10" stroke-linecap="round"/>
</g>
<g id="Group_41">
<path id="Vector_136" d="M173.686 217.113C184.239 217.113 192.795 208.557 192.795 198.003C192.795 187.448 184.239 178.892 173.686 178.892C163.133 178.892 154.578 187.448 154.578 198.003C154.578 208.557 163.133 217.113 173.686 217.113Z" fill="white" stroke="#020046" stroke-miterlimit="10" stroke-linecap="round"/>
<path id="Vector_137" d="M182.666 200.14C183.846 195.168 180.773 190.181 175.802 189.001C170.831 187.82 165.845 190.893 164.664 195.865C163.484 200.836 166.557 205.824 171.528 207.004C176.499 208.184 181.486 205.111 182.666 200.14Z" fill="#B1B1B1" stroke="#020046" stroke-miterlimit="10" stroke-linecap="round"/>
<g id="Group_42">
<path id="Vector_138" d="M175.964 184.189C175.964 185.45 174.941 186.466 173.687 186.466C172.426 186.466 171.41 185.45 171.41 184.189C171.41 182.928 172.426 181.912 173.687 181.912C174.941 181.912 175.964 182.935 175.964 184.189Z" stroke="#020046" stroke-miterlimit="10" stroke-linecap="round"/>
<path id="Vector_139" d="M181.663 185.421C181.663 186.682 180.64 187.698 179.386 187.698C178.125 187.698 177.109 186.682 177.109 185.421C177.109 184.16 178.133 183.144 179.386 183.144C180.647 183.144 181.663 184.16 181.663 185.421Z" stroke="#020046" stroke-miterlimit="10" stroke-linecap="round"/>
<path id="Vector_140" d="M178.925 211.492C178.925 212.753 177.902 213.769 176.648 213.769C175.387 213.769 174.371 212.753 174.371 211.492C174.371 210.231 175.394 209.215 176.648 209.215C177.902 209.215 178.925 210.238 178.925 211.492Z" stroke="#020046" stroke-miterlimit="10" stroke-linecap="round"/>
<path id="Vector_141" d="M172.995 211.492C172.995 212.753 171.972 213.769 170.718 213.769C169.457 213.769 168.441 212.753 168.441 211.492C168.441 210.231 169.465 209.215 170.718 209.215C171.979 209.215 172.995 210.238 172.995 211.492Z" stroke="#020046" stroke-miterlimit="10" stroke-linecap="round"/>
<path id="Vector_142" d="M167.808 209.15C167.808 210.411 166.784 211.427 165.531 211.427C164.27 211.427 163.254 210.411 163.254 209.15C163.254 207.889 164.27 206.873 165.531 206.873C166.784 206.873 167.808 207.889 167.808 209.15Z" stroke="#020046" stroke-miterlimit="10" stroke-linecap="round"/>
<path id="Vector_143" d="M164.038 204.971C164.038 206.232 163.015 207.248 161.761 207.248C160.5 207.248 159.484 206.225 159.484 204.971C159.484 203.71 160.508 202.694 161.761 202.694C163.015 202.694 164.038 203.717 164.038 204.971Z" stroke="#020046" stroke-miterlimit="10" stroke-linecap="round"/>
<path id="Vector_144" d="M162.229 199.509C162.229 200.77 161.206 201.786 159.953 201.786C158.692 201.786 157.676 200.763 157.676 199.509C157.676 198.248 158.699 197.232 159.953 197.232C161.214 197.232 162.229 198.248 162.229 199.509Z" stroke="#020046" stroke-miterlimit="10" stroke-linecap="round"/>
<path id="Vector_145" d="M160.578 195.913C161.835 195.913 162.854 194.893 162.854 193.636C162.854 192.378 161.835 191.359 160.578 191.359C159.32 191.359 158.301 192.378 158.301 193.636C158.301 194.893 159.32 195.913 160.578 195.913Z" stroke="#020046" stroke-miterlimit="10" stroke-linecap="round"/>
<path id="Vector_146" d="M165.71 188.75C165.71 190.011 164.687 191.027 163.433 191.027C162.172 191.027 161.156 190.004 161.156 188.75C161.156 187.489 162.172 186.473 163.433 186.473C164.687 186.473 165.71 187.489 165.71 188.75Z" stroke="#020046" stroke-miterlimit="10" stroke-linecap="round"/>
<path id="Vector_147" d="M167.98 187.698C169.237 187.698 170.257 186.679 170.257 185.421C170.257 184.163 169.237 183.144 167.98 183.144C166.723 183.144 165.703 184.163 165.703 185.421C165.703 186.679 166.723 187.698 167.98 187.698Z" stroke="#020046" stroke-miterlimit="10" stroke-linecap="round"/>
<path id="Vector_148" d="M175.964 184.189C175.964 185.45 174.941 186.466 173.687 186.466C172.426 186.466 171.41 185.45 171.41 184.189C171.41 182.928 172.426 181.912 173.687 181.912C174.941 181.912 175.964 182.935 175.964 184.189Z" stroke="#020046" stroke-miterlimit="10" stroke-linecap="round"/>
</g>
<path id="Vector_149" d="M186.693 212.833L183.991 207.226C183.652 206.52 184.3 205.749 185.05 205.958L190.908 207.587C191.534 207.76 191.779 208.516 191.376 209.028L188.227 213.005C187.809 213.524 186.988 213.438 186.693 212.833Z" fill="#B1B1B1" stroke="#020046" stroke-miterlimit="10" stroke-linecap="round"/>
</g>
</g>
</g>
</g>
</g>
</svg>
