<svg width="94" height="46" viewBox="0 0 94 46" fill="none" xmlns="http://www.w3.org/2000/svg">
<path d="M38.6393 37.3401H32.7166C31.5493 37.3401 30.6055 36.3961 30.6055 35.2288C30.6055 34.0614 31.5493 33.1174 32.7166 33.1174H38.6393C39.8065 33.1174 40.7504 34.0614 40.7504 35.2288C40.7504 36.3961 39.8065 37.3401 38.6393 37.3401Z" fill="white" stroke="#020046" stroke-miterlimit="10" stroke-linecap="round" stroke-linejoin="round"/>
<path d="M38.6388 33.1101H35.8359V37.34H38.6388C39.806 37.34 40.7499 36.396 40.7499 35.2287C40.7499 34.0613 39.806 33.1101 38.6388 33.1101Z" fill="#3458FF" stroke="#020046" stroke-miterlimit="10" stroke-linecap="round" stroke-linejoin="round"/>
<path d="M26.9322 45.0865H21.0096C19.8423 45.0865 18.8984 44.1425 18.8984 42.9751C18.8984 41.8077 19.8423 40.8638 21.0096 40.8638H26.9322C28.0995 40.8638 29.0434 41.8077 29.0434 42.9751C29.0434 44.1425 28.0995 45.0865 26.9322 45.0865Z" fill="white" stroke="#020046" stroke-miterlimit="10" stroke-linecap="round" stroke-linejoin="round"/>
<path d="M26.9317 40.8564H24.1289V45.0864H26.9317C28.099 45.0864 29.0429 44.1424 29.0429 42.975C29.0429 41.8076 28.099 40.8564 26.9317 40.8564Z" fill="#3458FF" stroke="#020046" stroke-miterlimit="10" stroke-linecap="round" stroke-linejoin="round"/>
<path d="M57.2057 43.7245H51.283C50.1158 43.7245 49.1719 42.7805 49.1719 41.6132C49.1719 40.4458 50.1158 39.5018 51.283 39.5018H57.2057C58.3729 39.5018 59.3168 40.4458 59.3168 41.6132C59.3168 42.7805 58.3729 43.7245 57.2057 43.7245Z" fill="white" stroke="#020046" stroke-miterlimit="10" stroke-linecap="round" stroke-linejoin="round"/>
<path d="M57.2052 39.5018H54.4023V43.7245H57.2052C58.3724 43.7245 59.3163 42.7805 59.3163 41.6132C59.3163 40.4458 58.3724 39.5018 57.2052 39.5018Z" fill="#3458FF" stroke="#020046" stroke-miterlimit="10" stroke-linecap="round" stroke-linejoin="round"/>
<path d="M1.27344 32.6057V21.0761C1.27344 18.4604 3.39177 16.3418 6.00726 16.3418H33.0196V37.34H6.00726C3.39177 37.34 1.27344 35.2214 1.27344 32.6057Z" fill="white" stroke="#020046" stroke-miterlimit="10" stroke-linecap="round" stroke-linejoin="round"/>
<path d="M23.8106 16.3418H10.7188V37.34H23.8106V16.3418Z" fill="white" stroke="#020046" stroke-miterlimit="10" stroke-linecap="round" stroke-linejoin="round"/>
<path d="M20.8359 19.3179V34.3639" stroke="#020046" stroke-miterlimit="10" stroke-linecap="round" stroke-linejoin="round"/>
<path d="M17.7031 19.3179V34.3639" stroke="#020046" stroke-miterlimit="10" stroke-linecap="round" stroke-linejoin="round"/>
<path d="M14.5742 19.3179V34.3639" stroke="#020046" stroke-miterlimit="10" stroke-linecap="round" stroke-linejoin="round"/>
<path d="M72.6059 36.2087H61.0776C58.4621 36.2087 56.3438 34.0901 56.3438 31.4744V4.45923H77.3397V31.4744C77.3397 34.0901 75.2214 36.2087 72.6059 36.2087Z" fill="white" stroke="#020046" stroke-miterlimit="10" stroke-linecap="round" stroke-linejoin="round"/>
<path d="M77.3397 13.6685H56.3438V26.7617H77.3397V13.6685Z" fill="white" stroke="#020046" stroke-miterlimit="10" stroke-linecap="round" stroke-linejoin="round"/>
<path d="M77.3394 9.48894H56.3434C55.3707 9.48894 54.5781 8.70351 54.5781 7.7235V3.06843C54.5781 2.09562 55.3635 1.30298 56.3434 1.30298H77.3394C78.3121 1.30298 79.1047 2.08842 79.1047 3.06843V7.7235C79.0975 8.6963 78.3121 9.48894 77.3394 9.48894Z" fill="#B3FFD1" stroke="#020046" stroke-miterlimit="10" stroke-linecap="round" stroke-linejoin="round"/>
<path d="M58.2305 1.30298V9.48894" stroke="#020046" stroke-miterlimit="10" stroke-linecap="round" stroke-linejoin="round"/>
<path d="M62.5312 1.30298V9.48894" stroke="#020046" stroke-miterlimit="10" stroke-linecap="round" stroke-linejoin="round"/>
<path d="M66.8398 1.30298V9.48894" stroke="#020046" stroke-miterlimit="10" stroke-linecap="round" stroke-linejoin="round"/>
<path d="M71.1406 1.30298V9.48894" stroke="#020046" stroke-miterlimit="10" stroke-linecap="round" stroke-linejoin="round"/>
<path d="M75.4492 1.30298V9.48894" stroke="#020046" stroke-miterlimit="10" stroke-linecap="round" stroke-linejoin="round"/>
<path d="M59.3203 16.6445H74.3648" stroke="#020046" stroke-miterlimit="10" stroke-linecap="round" stroke-linejoin="round"/>
<path d="M59.3203 19.7791H74.3648" stroke="#020046" stroke-miterlimit="10" stroke-linecap="round" stroke-linejoin="round"/>
<path d="M59.3203 22.9065H74.3648" stroke="#020046" stroke-miterlimit="10" stroke-linecap="round" stroke-linejoin="round"/>
<path d="M70.3125 30.4511L91.3084 30.6024C92.2811 30.6096 93.0665 31.4023 93.0593 32.3751L93.0233 37.0301C93.0161 38.003 92.2235 38.7884 91.2508 38.7812L70.2548 38.6299C69.2821 38.6227 68.4968 37.83 68.504 36.8572L68.54 32.2022C68.54 31.2294 69.3398 30.4439 70.3125 30.4511Z" fill="#B3FFD1" stroke="#020046" stroke-miterlimit="10" stroke-linecap="round" stroke-linejoin="round"/>
<path d="M89.3594 38.7668L89.4242 30.588" stroke="#020046" stroke-miterlimit="10" stroke-linecap="round" stroke-linejoin="round"/>
<path d="M85.0547 38.738L85.1123 30.552" stroke="#020046" stroke-miterlimit="10" stroke-linecap="round" stroke-linejoin="round"/>
<path d="M80.7539 38.702L80.8115 30.5232" stroke="#020046" stroke-miterlimit="10" stroke-linecap="round" stroke-linejoin="round"/>
<path d="M76.4453 38.6731L76.503 30.4944" stroke="#020046" stroke-miterlimit="10" stroke-linecap="round" stroke-linejoin="round"/>
<path d="M72.1445 38.6444L72.2022 30.4656" stroke="#020046" stroke-miterlimit="10" stroke-linecap="round" stroke-linejoin="round"/>
</svg>
