<svg width="105" height="119" viewBox="0 0 105 119" fill="none" xmlns="http://www.w3.org/2000/svg">
<path d="M94.784 76.4546C100.077 53.4231 85.699 30.4612 62.6699 25.1677C39.6409 19.8742 16.6814 34.2536 11.3884 57.2851C6.09547 80.3166 20.4734 103.279 43.5025 108.572C66.5315 113.866 89.4911 99.4861 94.784 76.4546Z" fill="#F0F0F0"/>
<path d="M19.9922 17.2655L27.6873 2.11133L35.3897 15.8819" stroke="#B1B1B1" stroke-miterlimit="10" stroke-linecap="round" stroke-linejoin="round"/>
<path d="M29.8043 2.11135C29.8043 3.27871 28.8604 4.2227 27.6932 4.2227C26.5259 4.2227 25.582 3.27871 25.582 2.11135C25.582 0.943981 26.5259 0 27.6932 0C28.8532 0 29.8043 0.943981 29.8043 2.11135Z" fill="#B1B1B1"/>
<path d="M54.3834 14.7002H1V60.595H54.3834V14.7002Z" fill="white" stroke="#B1B1B1" stroke-miterlimit="10" stroke-linecap="round" stroke-linejoin="round"/>
<path d="M46.8959 21.1423H8.49219V54.1601H46.8959V21.1423Z" stroke="#B1B1B1" stroke-miterlimit="10" stroke-linecap="round" stroke-linejoin="round"/>
<path d="M1 14.7002L8.49341 21.1423" stroke="#B1B1B1" stroke-miterlimit="10" stroke-linecap="round" stroke-linejoin="round"/>
<path d="M54.3841 14.7002L46.8906 21.1423" stroke="#B1B1B1" stroke-miterlimit="10" stroke-linecap="round" stroke-linejoin="round"/>
<path d="M54.3841 60.595L46.8906 54.16" stroke="#B1B1B1" stroke-miterlimit="10" stroke-linecap="round" stroke-linejoin="round"/>
<path d="M1 60.595L8.49341 54.16" stroke="#B1B1B1" stroke-miterlimit="10" stroke-linecap="round" stroke-linejoin="round"/>
<path d="M22.7893 32.0233C22.7893 32.0233 19.0138 25.9775 17.2125 26.3018C15.4112 26.626 14.6546 36.7432 15.6129 36.21C16.5712 35.6839 22.7893 32.0233 22.7893 32.0233Z" fill="white" stroke="#B1B1B1" stroke-width="0.75" stroke-miterlimit="10"/>
<path d="M32.8906 31.3748C32.8906 31.3748 36.8823 25.4731 38.6692 25.855C40.4561 26.2442 40.838 36.383 39.9013 35.8209C38.9718 35.2588 32.8906 31.3748 32.8906 31.3748Z" fill="#B1B1B1"/>
<path d="M41.0692 38.5663C40.9684 44.2014 34.88 48.6691 27.473 48.5322C20.0661 48.3953 14.1434 43.7186 14.2515 38.0763C14.3523 32.4413 20.4407 27.9736 27.8477 28.1105C35.2546 28.2402 41.1773 32.9241 41.0692 38.5663Z" fill="white"/>
<path d="M14.2509 38.0692C14.2437 38.5592 14.2797 39.042 14.359 39.5176C15.1876 39.9355 16.1675 40.1949 17.2339 40.2093C20.2168 40.267 22.6738 38.4583 22.717 36.1668C22.7603 33.8825 20.3753 31.9873 17.3852 31.9297C17.2915 31.9297 17.1978 31.9369 17.1042 31.9369C15.3533 33.6303 14.2941 35.7488 14.2509 38.0692Z" fill="#B1B1B1"/>
<path d="M41.0692 38.5663C40.9684 44.2014 34.88 48.6691 27.473 48.5322C20.0661 48.3953 14.1434 43.7186 14.2515 38.0763C14.3523 32.4413 20.4407 27.9736 27.8477 28.1105C35.2546 28.2402 41.1773 32.9241 41.0692 38.5663Z" stroke="#B1B1B1" stroke-width="0.75" stroke-miterlimit="10"/>
<path d="M32.2203 37.363C32.2203 37.5359 32.0761 37.68 31.896 37.6728C31.7231 37.6728 31.579 37.5215 31.5862 37.3486C31.5862 37.1756 31.7375 37.0315 31.9104 37.0387C32.0834 37.0387 32.2275 37.1828 32.2203 37.363Z" fill="#B1B1B1"/>
<path d="M32.2554 38.5663C32.2554 38.7393 32.1041 38.8834 31.9312 38.8762C31.7582 38.8762 31.6141 38.7249 31.6214 38.5519C31.6214 38.379 31.7726 38.2349 31.9456 38.2421C32.1185 38.2493 32.2554 38.3934 32.2554 38.5663Z" fill="#B1B1B1"/>
<path d="M33.2085 37.8818C33.2085 38.0547 33.0572 38.1988 32.8843 38.1916C32.7114 38.1916 32.5673 38.0403 32.5745 37.8674C32.5745 37.6944 32.7258 37.5503 32.8987 37.5575C33.0716 37.5575 33.2157 37.7016 33.2085 37.8818Z" fill="#B1B1B1"/>
<path d="M23.6875 37.4926C23.6875 37.6656 23.8244 37.8097 23.9973 37.8169C24.1702 37.8241 24.3144 37.68 24.3216 37.507C24.3216 37.3341 24.1846 37.19 24.0117 37.1828C23.8316 37.1756 23.6875 37.3125 23.6875 37.4926Z" fill="#B1B1B1"/>
<path d="M23.6094 38.696C23.6094 38.8689 23.7463 39.013 23.9192 39.0202C24.0921 39.0202 24.2362 38.8833 24.2434 38.7104C24.2434 38.5374 24.1065 38.3933 23.9336 38.3861C23.7607 38.3789 23.6094 38.523 23.6094 38.696Z" fill="#B1B1B1"/>
<path d="M22.6797 37.9754C22.6797 38.1484 22.8166 38.2925 22.9895 38.2997C23.1624 38.2997 23.3065 38.1628 23.3137 37.9898C23.3137 37.8169 23.1768 37.6728 23.0039 37.6656C22.831 37.6583 22.6797 37.7953 22.6797 37.9754Z" fill="#B1B1B1"/>
<path d="M26.5932 39.604C26.3627 40.6488 26.4923 42.9691 28.0271 42.998C29.5618 43.0268 29.7707 40.7137 29.5834 39.6616C29.5402 39.4022 29.1367 39.5031 29.1871 39.7625C29.324 40.5191 29.2447 42.6088 28.0343 42.5872C26.8238 42.5656 26.8238 40.4759 26.9895 39.7193C27.0399 39.467 26.6437 39.3518 26.5932 39.604Z" fill="#B1B1B1"/>
<path d="M29.3822 36.7505C29.375 37.2333 28.813 37.6152 28.1357 37.608C27.4512 37.5935 26.9108 37.19 26.918 36.7072C26.9252 36.2244 27.4872 35.8425 28.1645 35.8497C28.849 35.8569 29.3966 36.2604 29.3822 36.7505Z" fill="#B1B1B1"/>
<path d="M27.9424 37.2045C27.928 37.853 27.9208 38.4943 27.9063 39.1429C27.8991 39.4095 28.3098 39.4167 28.317 39.1501C28.3314 38.5015 28.3387 37.8602 28.3531 37.2117C28.3531 36.945 27.9424 36.9378 27.9424 37.2045Z" fill="#B1B1B1"/>
<path d="M20.6208 37.5792C20.6208 38.1556 20.1524 38.624 19.576 38.624C18.9996 38.624 18.5312 38.1556 18.5312 37.5792C18.5312 37.0027 18.9996 36.5343 19.576 36.5343C20.1596 36.5343 20.6208 37.0027 20.6208 37.5792Z" fill="#B1B1B1"/>
<path d="M37.6754 37.6728C37.6754 38.2493 37.2071 38.7177 36.6307 38.7177C36.0543 38.7177 35.5859 38.2493 35.5859 37.6728C35.5859 37.0963 36.0543 36.6279 36.6307 36.6279C37.2071 36.6279 37.6754 37.0963 37.6754 37.6728Z" fill="#B1B1B1"/>
</svg>
